<svg xmlns="http://www.w3.org/2000/svg" width="32" height="33" viewBox="0 0 32 33" fill="none">
<rect y="0.714844" width="32" height="32" rx="16" fill="#F5F5F5"/>
<path d="M24.6111 19.2975L23.4898 18.7861C23.4735 18.7787 23.459 18.7679 23.4472 18.7544C23.4353 18.7409 23.4265 18.7251 23.4213 18.708C23.4161 18.6908 23.4146 18.6728 23.4169 18.655C23.4192 18.6373 23.4253 18.6202 23.4347 18.605L23.8758 17.8929C23.9986 17.6933 24.0683 17.4655 24.0784 17.2313C24.0884 16.9971 24.0384 16.7642 23.9331 16.5548L23.5528 15.8048C23.5424 15.7845 23.5377 15.7617 23.5394 15.7389C23.541 15.7161 23.5488 15.6942 23.562 15.6756L24.2737 14.6572C24.3342 14.5706 24.3734 14.471 24.3883 14.3665C24.4032 14.262 24.3932 14.1555 24.3593 14.0555C24.3254 13.9555 24.2685 13.8649 24.1931 13.791C24.1178 13.7171 24.0261 13.6619 23.9254 13.63L22.815 13.2772C22.7894 13.2692 22.767 13.2532 22.7512 13.2316C22.7353 13.21 22.7268 13.1838 22.727 13.157V12.8256C22.7274 12.7114 22.6985 12.599 22.6432 12.4991C22.5878 12.3992 22.5078 12.3152 22.4108 12.255L22.1795 12.1104C22.1586 12.0974 22.1419 12.0785 22.1317 12.0561L21.3705 10.3923C21.3635 10.377 21.3596 10.3605 21.359 10.3437L21.3365 9.66309C21.3283 9.38036 21.2186 9.11004 21.0275 8.90149C20.8364 8.69294 20.5767 8.56008 20.2958 8.52716L20.134 8.50747C19.9777 8.48824 19.8196 8.52455 19.6873 8.61006C19.555 8.69556 19.457 8.82483 19.4103 8.97528L18.4556 12.0389C18.4052 12.2015 18.3229 12.3525 18.2134 12.4829L17.7331 13.0565C17.7172 13.0755 17.6961 13.0894 17.6724 13.0964C17.6487 13.1035 17.6235 13.1034 17.5998 13.0962C17.5762 13.0891 17.5551 13.0751 17.5394 13.0561C17.5236 13.037 17.5137 13.0138 17.5111 12.9892L17.3603 11.5975C17.3398 11.402 17.2649 11.2162 17.1439 11.0613C17.023 10.9064 16.8609 10.7886 16.6762 10.7214L16.4178 10.6261C16.1732 10.5369 15.904 10.543 15.6637 10.6432C15.4234 10.7434 15.2296 10.9304 15.1209 11.167L14.044 13.5322C14.0369 13.5477 14.0267 13.5616 14.014 13.5731L13.1515 14.3589C12.9529 14.539 12.7975 14.7616 12.6968 15.01C12.596 15.2585 12.5526 15.5265 12.5697 15.794L12.5987 16.2628C12.6045 16.3566 12.6299 16.4481 12.6733 16.5315C12.7166 16.6148 12.7769 16.6882 12.8503 16.7469C12.9237 16.8055 13.0086 16.8481 13.0995 16.872C13.1903 16.8959 13.2852 16.9005 13.3779 16.8854L14.6912 16.6731C14.8043 16.6552 14.9109 16.6086 15.0008 16.5378C15.0907 16.467 15.1609 16.3743 15.2048 16.2686L15.8501 14.7292C15.8617 14.7013 15.8796 14.6765 15.9024 14.6567C15.9252 14.6369 15.9522 14.6226 15.9815 14.615C16.0107 14.6075 16.0413 14.6068 16.0708 14.613C16.1004 14.6193 16.128 14.6323 16.1517 14.6511L16.3298 14.7925C16.3467 14.8059 16.3599 14.8235 16.3681 14.8435C16.3763 14.8635 16.3793 14.8852 16.3767 14.9067L16.2048 16.2962C16.201 16.3274 16.1856 16.3561 16.1617 16.3765L14.4236 17.8729C14.4058 17.8882 14.3842 17.8982 14.3611 17.9018L12.5053 18.199C12.0236 18.2766 11.5649 18.4591 11.1615 18.7337L10.1504 19.424C10.0147 19.5171 9.89922 19.6368 9.81109 19.7758C9.72296 19.9148 9.66401 20.0703 9.63779 20.2328L9.54998 20.7797C9.54718 20.7972 9.5407 20.814 9.53097 20.8288C9.52124 20.8437 9.50847 20.8563 9.49351 20.8659C9.47855 20.8755 9.46174 20.8818 9.44416 20.8845C9.42659 20.8871 9.40866 20.886 9.39154 20.8812L8.62342 20.6659C8.404 20.6045 8.17045 20.6174 7.9591 20.7025C7.74776 20.7876 7.57047 20.9402 7.45482 21.1365L7.00717 21.8975C6.8606 22.1437 6.79762 22.4308 6.82761 22.7157C6.8576 23.0007 6.97896 23.2684 7.17357 23.4787L7.41467 23.7411C7.52663 23.8632 7.67977 23.9397 7.84467 23.9558L9.23686 24.0922C9.40405 24.1086 9.57132 24.0617 9.70561 23.9608L11.0711 22.9365C11.1897 22.8474 11.2757 22.7217 11.3158 22.5789L11.4294 22.1717C11.4341 22.1549 11.4422 22.1393 11.4532 22.1258C11.4642 22.1123 11.4779 22.1013 11.4934 22.0933C11.5089 22.0854 11.5258 22.0807 11.5432 22.0796C11.5606 22.0785 11.578 22.081 11.5944 22.087L12.1583 22.2937C12.3215 22.354 12.5019 22.3484 12.6611 22.2781C12.6773 22.271 12.6949 22.2673 12.7126 22.2675C12.7304 22.2676 12.7479 22.2715 12.764 22.2789C12.7802 22.2862 12.7946 22.297 12.8063 22.3103C12.818 22.3236 12.8268 22.3393 12.832 22.3562L13.0447 23.0293C13.0727 23.1182 13.1189 23.2003 13.1803 23.2704C13.2417 23.3405 13.317 23.397 13.4014 23.4365L13.917 23.6773C14.0743 23.7512 14.2541 23.7612 14.4187 23.7054C14.5832 23.6495 14.7197 23.532 14.7995 23.3776L15.2012 22.6031C15.209 22.5883 15.2196 22.5751 15.2324 22.5644C15.2453 22.5538 15.2602 22.5457 15.2762 22.5409C15.2922 22.536 15.309 22.5343 15.3256 22.536C15.3423 22.5377 15.3584 22.5426 15.3731 22.5506L15.7169 22.7381C15.7432 22.7523 15.7635 22.7754 15.7743 22.8033C15.7851 22.8312 15.7856 22.8621 15.7758 22.8903L15.7537 22.9545C15.685 23.155 15.6649 23.3689 15.695 23.5787C15.7251 23.7885 15.8046 23.9881 15.9269 24.1612L16.2687 24.6439C16.324 24.7222 16.3953 24.7878 16.478 24.8363C16.5606 24.8848 16.6526 24.9151 16.7479 24.9251C16.7711 24.9276 16.7945 24.9289 16.8178 24.9289C16.9872 24.9288 17.1503 24.865 17.2747 24.75L18.0131 24.0675C18.1265 23.9621 18.2004 23.821 18.2223 23.6678L18.3534 22.74C18.3567 22.7167 18.3664 22.6948 18.3814 22.6768C18.3965 22.6588 18.4163 22.6453 18.4386 22.6379L18.7153 22.5458C18.8494 22.5013 18.9661 22.4156 19.0487 22.301C19.1314 22.1864 19.1758 22.0486 19.1756 21.9073V20.5695C19.1756 20.5177 19.1962 20.4681 19.2329 20.4314C19.2695 20.3948 19.3191 20.3742 19.3709 20.3742H20.6603C20.6776 20.3742 20.6947 20.3778 20.7105 20.3847C20.7264 20.3916 20.7407 20.4017 20.7525 20.4143L21.3578 21.0637C21.4322 21.1435 21.5249 21.204 21.6278 21.24C21.7308 21.2761 21.841 21.2866 21.9489 21.2706L24.604 20.8773C24.7534 20.8554 24.8911 20.7839 24.9949 20.6742C25.0986 20.5645 25.1624 20.423 25.1759 20.2726C25.1941 20.0716 25.1496 19.8699 25.0484 19.6953C24.9473 19.5207 24.7945 19.3817 24.6111 19.2975ZM24.6326 20.2231C24.6303 20.2513 24.6184 20.2779 24.5989 20.2985C24.5795 20.319 24.5536 20.3324 24.5256 20.3364L21.8703 20.7303C21.8501 20.7333 21.8294 20.7313 21.8101 20.7246C21.7908 20.7178 21.7735 20.7065 21.7595 20.6915L21.1542 20.042C21.0911 19.9745 21.0149 19.9207 20.9302 19.8839C20.8455 19.8471 20.7542 19.8281 20.6619 19.8279H19.3725C19.1757 19.8282 18.9871 19.9065 18.8479 20.0456C18.7088 20.1847 18.6305 20.3734 18.6303 20.5701V21.9062C18.6304 21.9327 18.6221 21.9586 18.6066 21.9801C18.5911 22.0016 18.5691 22.0176 18.5439 22.0258L18.2673 22.1181C18.1484 22.1573 18.0429 22.2291 17.9628 22.3253C17.8827 22.4215 17.8312 22.5383 17.8142 22.6623L17.6825 23.5897C17.6783 23.6184 17.6645 23.645 17.6433 23.6648L16.905 24.3472C16.8918 24.3593 16.8762 24.3686 16.8591 24.3742C16.8421 24.3799 16.8241 24.3818 16.8062 24.38C16.7884 24.3781 16.7711 24.3725 16.7556 24.3634C16.7402 24.3544 16.7268 24.3421 16.7164 24.3275L16.3748 23.8447C16.3026 23.7424 16.2556 23.6244 16.2378 23.5004C16.22 23.3764 16.2319 23.25 16.2725 23.1315L16.2945 23.0673C16.3467 22.9169 16.3438 22.7529 16.2861 22.6045C16.2285 22.4561 16.12 22.3331 15.98 22.2573L15.6362 22.0698C15.5576 22.027 15.4712 22.0004 15.3821 21.9914C15.2931 21.9824 15.2031 21.9912 15.1175 22.0174C15.0319 22.0436 14.9524 22.0866 14.8836 22.1439C14.8148 22.2012 14.7581 22.2716 14.7169 22.3511L14.3142 23.1248C14.2994 23.1539 14.2738 23.176 14.243 23.1865C14.2121 23.197 14.1783 23.195 14.1489 23.1809L13.6333 22.9401C13.6174 22.9328 13.6033 22.9222 13.5918 22.9091C13.5803 22.8959 13.5717 22.8805 13.5665 22.8639L13.3548 22.1906C13.3264 22.1005 13.2792 22.0173 13.2165 21.9466C13.1538 21.8759 13.0769 21.8192 12.9908 21.7802C12.9047 21.7412 12.8113 21.7208 12.7168 21.7202C12.6223 21.7197 12.5287 21.7391 12.4422 21.7772C12.4122 21.7903 12.3784 21.7914 12.3476 21.7801L11.7837 21.574C11.6965 21.5421 11.6037 21.5285 11.511 21.5342C11.4183 21.5399 11.3278 21.5647 11.2451 21.6071C11.1625 21.6495 11.0895 21.7085 11.0308 21.7804C10.9721 21.8524 10.9289 21.9357 10.9039 22.0251L10.7901 22.4325C10.7826 22.4592 10.7666 22.4828 10.7444 22.4995L9.37873 23.5237C9.35341 23.5424 9.32212 23.5512 9.29076 23.5484L7.89873 23.4118C7.86785 23.4089 7.83917 23.3946 7.81826 23.3717L7.57701 23.1092C7.4619 22.985 7.39006 22.8269 7.37221 22.6585C7.35435 22.4901 7.39145 22.3204 7.47795 22.1748L7.92561 21.414C7.98003 21.3217 8.06345 21.2499 8.16289 21.2099C8.26233 21.1698 8.37221 21.1638 8.47545 21.1926L9.24357 21.4079C9.33492 21.4335 9.43064 21.4395 9.52446 21.4255C9.61828 21.4115 9.70807 21.3778 9.78796 21.3267C9.86784 21.2755 9.936 21.2081 9.98798 21.1287C10.0399 21.0493 10.0745 20.9599 10.0895 20.8662L10.1773 20.3193C10.1917 20.2302 10.224 20.1449 10.2724 20.0687C10.3207 19.9924 10.3841 19.9268 10.4586 19.8758L11.4697 19.1856C11.8065 18.9563 12.1896 18.804 12.5919 18.7392L14.4478 18.4423C14.5709 18.4226 14.6861 18.3692 14.7806 18.2879L16.5189 16.7912C16.6459 16.6821 16.7276 16.5295 16.7479 16.3633L16.9186 14.9742C16.9323 14.8597 16.9166 14.7437 16.8728 14.637C16.829 14.5303 16.7587 14.4366 16.6686 14.3648L16.4908 14.2234C16.401 14.1523 16.296 14.1029 16.184 14.0791C16.072 14.0553 15.9559 14.0577 15.845 14.0863C15.7341 14.1148 15.6313 14.1686 15.5446 14.2434C15.4579 14.3183 15.3898 14.4122 15.3454 14.5178L14.7001 16.057C14.6919 16.0768 14.6787 16.0941 14.6618 16.1074C14.645 16.1207 14.6251 16.1295 14.6039 16.1329L13.2906 16.3453C13.2732 16.348 13.2555 16.3471 13.2385 16.3427C13.2215 16.3382 13.2056 16.3303 13.1919 16.3193C13.1781 16.3084 13.1668 16.2946 13.1588 16.279C13.1507 16.2634 13.146 16.2463 13.145 16.2287L13.1159 15.76C13.104 15.574 13.1341 15.3878 13.2041 15.2151C13.2741 15.0424 13.3821 14.8878 13.5201 14.7626L14.3829 13.9768C14.4502 13.9154 14.5043 13.841 14.542 13.7581L15.6192 11.3925C15.6704 11.2814 15.7614 11.1936 15.8743 11.1465C15.9872 11.0994 16.1136 11.0964 16.2286 11.1381L16.487 11.2334C16.576 11.2658 16.654 11.3225 16.7123 11.3971C16.7705 11.4717 16.8066 11.5611 16.8164 11.6553L16.9672 13.0468C16.9814 13.1781 17.0339 13.3022 17.1181 13.4038C17.2024 13.5054 17.3146 13.58 17.4409 13.6183C17.5672 13.6567 17.702 13.657 17.8285 13.6192C17.955 13.5815 18.0676 13.5074 18.1523 13.4062L18.6326 12.8325C18.7885 12.6467 18.9058 12.4317 18.9776 12.2001L19.9323 9.13653C19.9413 9.10849 19.9596 9.08442 19.9844 9.06843C20.0091 9.05245 20.0386 9.04553 20.0678 9.04888L20.2297 9.06856C20.3809 9.08632 20.5206 9.15787 20.6235 9.27015C20.7263 9.38243 20.7853 9.52795 20.7897 9.68013L20.8123 10.3612C20.8153 10.4501 20.8359 10.5375 20.873 10.6184L21.6342 12.2823C21.6889 12.4023 21.7778 12.5034 21.8897 12.5731L22.1208 12.7176C22.139 12.7289 22.154 12.7446 22.1643 12.7633C22.1747 12.782 22.1801 12.8031 22.18 12.8245V13.1565C22.1796 13.2996 22.225 13.4391 22.3095 13.5545C22.3941 13.6699 22.5133 13.7553 22.6498 13.7981L23.7601 14.15C23.779 14.156 23.7962 14.1663 23.8103 14.1801C23.8244 14.194 23.8351 14.211 23.8414 14.2297C23.8478 14.2485 23.8496 14.2684 23.8468 14.288C23.844 14.3076 23.8366 14.3263 23.8253 14.3425L23.1136 15.3609C23.0437 15.4607 23.0023 15.5776 22.9937 15.6991C22.9851 15.8206 23.0098 15.9422 23.065 16.0508L23.4451 16.8008C23.5083 16.9264 23.5383 17.0661 23.5323 17.2066C23.5263 17.3471 23.4845 17.4837 23.4109 17.6036L22.9704 18.3168C22.9201 18.3981 22.8876 18.4891 22.8752 18.5839C22.8628 18.6787 22.8707 18.775 22.8984 18.8665C22.9261 18.958 22.973 19.0425 23.036 19.1144C23.0989 19.1864 23.1764 19.2441 23.2634 19.2837L24.3845 19.795C24.4651 19.8319 24.5323 19.8928 24.5767 19.9695C24.6212 20.0462 24.6407 20.1348 24.6326 20.2231Z" fill="#0561E2"/>
<path d="M9.51024 14.9711L10.3429 14.5288H11.0715L11.5658 15.1792L11.2536 16.8443L9.51024 18.1191L8.46989 18.3272L8.26172 17.3906V16.3239L8.88601 15.9337L9.51024 14.9711Z" fill="#0099FF"/>
<path d="M8.20835 20.9028L9.09309 21.0589L9.71734 20.9028L9.92548 20.0182L10.81 19.2638L11.5905 18.8735L12.6312 18.5353L14.5044 18.2231L15.1288 17.6768L16.4296 16.48L16.6117 14.6849L15.8572 14.3207L15.571 14.9191L14.7385 16.48L13.1255 16.6882L12.8393 16.2199V15.0752L14.1141 13.8264L14.7385 12.6036L15.571 10.9125H16.4296L17.054 11.3548L17.2621 13.0719L17.6784 13.306L18.615 12.3434L19.8117 8.80518L20.8263 9.06539L21.0345 9.76781L21.7369 11.9532L22.4394 12.6036V13.306L23.7922 13.8264L24.1825 14.3207L23.1678 15.7255L23.7922 17.2085L23.1678 18.3532V18.8735L25.015 20.0182L24.8589 20.6426L21.7369 20.9028L20.8263 20.0182H19.4215L18.9271 20.4605V22.0215L18.0426 22.5418V23.8167L16.8198 24.8053L15.8572 23.8167V22.6719L15.7531 22.4378L15.1288 22.2557L14.5044 23.5305L13.7499 23.3223L13.3336 22.6719L12.8393 22.0215H12.0068L11.4344 21.6833L11.2003 22.4378L9.92548 23.5305L8.80677 23.8167L7.506 23.5305L7.08984 22.4378L7.506 21.4752L8.20835 20.9028Z" fill="#0561E2"/>
<path d="M8.52836 18.4199L8.7382 18.4707C8.89833 18.5096 9.06501 18.5134 9.22672 18.4816C9.38842 18.4498 9.5413 18.3833 9.67477 18.2866L11.1182 17.2425C11.2463 17.1496 11.3537 17.0311 11.4336 16.8945C11.5134 16.7578 11.564 16.606 11.582 16.4488L11.728 15.1702C11.7521 14.9503 11.693 14.7295 11.5623 14.551C11.4317 14.3726 11.239 14.2495 11.0221 14.206L10.4893 14.1016C10.3125 14.0673 10.1295 14.0879 9.96479 14.1605C9.80004 14.2331 9.66139 14.3543 9.56742 14.5079L9.07508 15.3182C9.00135 15.4396 8.88645 15.5305 8.75133 15.5743L8.69523 15.5924C8.47629 15.6624 8.28384 15.7974 8.14343 15.9794C8.00302 16.1613 7.9213 16.3818 7.90914 16.6113L7.85695 17.513C7.84499 17.7189 7.90564 17.9224 8.02833 18.0881C8.15102 18.2538 8.32798 18.3712 8.52836 18.4199ZM8.45461 16.6429C8.46104 16.5235 8.50363 16.4089 8.57672 16.3143C8.64981 16.2198 8.74995 16.1496 8.86383 16.1133L8.91992 16.095C9.17974 16.0109 9.40066 15.8361 9.54242 15.6027L10.0349 14.7925C10.0705 14.7343 10.1231 14.6884 10.1855 14.6608C10.2479 14.6332 10.3173 14.6254 10.3843 14.6383L10.9171 14.7427C10.9993 14.7592 11.0724 14.8058 11.1219 14.8735C11.1714 14.9411 11.1939 15.0248 11.1848 15.1082L11.0387 16.3863C11.0292 16.4681 11.0029 16.547 10.9613 16.6181C10.9198 16.6892 10.8639 16.7509 10.7973 16.7993L9.35383 17.8432C9.28447 17.8935 9.205 17.9281 9.12093 17.9446C9.03686 17.9612 8.9502 17.9592 8.86695 17.9389L8.65711 17.888C8.58112 17.8696 8.51399 17.8251 8.46744 17.7623C8.4209 17.6995 8.39789 17.6223 8.40242 17.5443L8.45461 16.6429Z" fill="#0099FF"/>
</svg>