<svg xmlns="http://www.w3.org/2000/svg" width="32" height="33" viewBox="0 0 32 33" fill="none">
<rect y="0.714844" width="32" height="32" rx="16" fill="#F5F5F5"/>
<g clip-path="url(#clip0_3937_6321)">
<path fill-rule="evenodd" clip-rule="evenodd" d="M9.23872 15.7132C9.40781 15.487 8.93575 14.6315 8.70241 14.3034C8.59631 14.1538 8.33231 14.0193 8.37251 13.7966C8.56358 12.7367 9.47537 13.5438 9.96111 13.2415C10.5641 12.8661 10.6143 12.0937 10.9662 11.5757C11.1195 11.3499 11.6011 11.0322 11.6732 10.7738C11.7565 10.475 11.2148 10.2033 11.1232 9.94324C10.9363 9.41021 11.1145 8.73776 11.0408 8.50558C10.9467 8.20784 10.5948 8.10833 10.6251 7.75145C10.6748 7.16773 11.7665 7.30897 12.1005 7.54157C12.4027 7.75194 12.9361 8.18612 13.2523 8.31357C13.656 8.47653 14.0965 7.80445 14.4588 8.06569C15.1248 8.54604 14.1405 9.04015 14.1765 9.50529C14.1898 9.67766 14.4442 10.067 14.3792 10.2117C14.2648 10.4672 13.8992 10.5215 13.8039 10.8019C13.6626 11.22 14.7804 11.5815 14.9731 11.8012C15.2147 12.0774 14.7199 12.4412 14.6681 12.7149C14.6618 12.7491 15.1227 12.9704 15.1629 13.0018C15.3967 13.1845 15.6163 13.5117 15.8948 13.6249C16.2853 13.7834 16.6964 13.615 17.0951 13.6688C17.6695 13.7463 18.3534 14.5108 18.9502 14.1163C19.2967 13.8873 18.7981 13.168 19.1288 13.0537C19.9138 12.7823 19.7571 13.6272 20.0348 13.7783C20.0655 13.795 21.2276 13.6532 21.3453 13.6133C21.4651 13.5725 21.3735 13.281 21.4514 13.164C21.6566 12.8545 22.0461 12.3576 22.3819 12.1737C22.8672 11.9083 24.266 12.3267 24.3489 12.9635C24.3741 13.1553 24.0351 13.1869 23.9087 13.2602C23.5763 13.4531 23.0827 13.9146 22.9414 14.2699C22.8755 14.4361 23.0715 14.6678 23.1005 14.8379C23.1287 15.0071 22.9633 15.3478 22.8862 15.5C22.7528 15.7624 22.2733 15.5225 22.1626 15.9319C22.0486 16.3518 22.6769 16.7553 22.374 17.1545C22.2592 17.3054 21.9152 16.6741 21.8683 16.5545C21.8497 16.5067 21.8559 16.5188 21.8422 16.4832C21.836 16.4669 21.8298 16.4507 21.8232 16.4345C21.8174 16.4202 21.8095 16.3991 21.7991 16.3876C21.6731 16.2487 21.1149 16.5903 21.0013 16.2857C20.8011 15.7485 20.9918 15.5806 21.1824 15.1229C21.2189 15.035 20.9947 15.0901 20.9002 15.0784C20.7141 15.0554 20.5247 15.056 20.3452 14.9977C19.9531 14.8702 19.7841 14.1589 19.404 14.5997C18.9444 15.1329 20.0858 16.5286 19.7293 17.1111C19.4794 17.5202 18.9232 17.476 18.6041 17.7793C18.4342 17.9405 18.5527 18.1566 18.3873 18.335C18.2278 18.5069 18.0007 18.5862 17.8386 18.7596C17.1817 19.4625 16.5803 20.2112 15.9151 20.8983C15.5334 21.2925 14.9345 21.2673 14.6129 21.767C14.4882 21.9609 14.8251 22.6063 14.8094 22.9027C14.7932 23.2124 14.5719 23.5271 14.5329 23.8467C14.5085 24.0477 14.6647 24.3773 14.586 24.5498C14.4218 24.9086 13.8565 25.1646 13.5784 25.4268C13.3468 25.645 13.1959 26.1513 12.7819 26.0811C12.0222 25.9523 12.1096 24.6555 11.8804 24.1075C11.7606 23.8217 11.5029 23.5979 11.3636 23.3124C11.1497 22.8729 11.1941 22.3658 11.0072 21.9223C10.7805 21.3847 10.4145 20.9497 10.2943 20.3682C10.0991 19.4212 10.3876 18.6856 10.2512 17.8172C10.245 17.7772 10.1704 17.5151 10.1074 17.5073C9.88193 17.4791 9.61005 17.901 9.41775 17.9871C9.11893 18.1209 8.44627 17.659 8.23241 17.5023C7.85318 17.2244 7.83951 17.1278 8.11554 16.7474C8.19718 16.6351 7.70149 16.3016 7.64554 16.2399C7.63933 16.233 7.66378 16.183 7.6642 16.1826C7.74915 16.0098 8.1976 15.7748 8.37457 15.6741C8.58885 15.5523 8.98217 15.7873 9.23872 15.7132Z" fill="#0561E2"/>
</g>
<defs>
<clipPath id="clip0_3937_6321">
<rect width="20" height="20" fill="white" transform="translate(6 6.71484)"/>
</clipPath>
</defs>
</svg>