<svg xmlns="http://www.w3.org/2000/svg" width="32" height="33" viewBox="0 0 32 33" fill="none">
<rect y="0.214844" width="32" height="32" rx="16" fill="#F5F5F5"/>
<g clip-path="url(#clip0_3937_6287)">
<path d="M13.5912 6.75242C13.1851 6.63016 12.7481 6.82672 12.5777 7.21516C12.5752 7.22078 12.5727 7.22641 12.5703 7.23211C12.3259 7.80235 11.8372 7.63938 11.8372 8.2911C11.8372 8.94282 11.6743 9.18719 11.0226 9.83883C10.3709 10.4905 9.96359 10.9793 10.6153 11.3051C11.267 11.6309 11.4299 11.7938 11.5928 12.527C11.7557 13.2601 12.0001 13.5859 12.8147 13.9118C13.6293 14.2377 13.4663 14.5634 13.4663 15.1337C13.4663 15.7039 13.0591 17.4145 13.3034 18.3106C13.5478 19.2067 12.6518 20.0213 13.0591 20.8359C13.4663 21.6505 12.3259 22.5465 13.1405 23.9313C13.9155 25.2488 14.3219 25.6078 14.9909 25.7098C15.0555 25.7196 15.1217 25.7123 15.1818 25.6865C15.4294 25.5803 15.4594 25.248 15.2409 25.0905C15.133 25.0128 15.0367 24.9134 14.9734 24.7866C14.729 24.2979 14.4846 24.0535 14.8919 23.6462C15.2991 23.2389 15.2177 22.9945 15.2177 22.7501C15.2177 22.5056 14.729 22.3428 15.2177 21.854C15.7065 21.3652 15.625 20.9579 15.9509 20.3877C16.2767 19.8175 16.6025 20.2248 17.0913 19.7361C17.5801 19.2473 18.8834 18.4327 19.0463 17.6181C19.2092 16.8035 19.4536 15.7445 20.0238 15.7445C20.5941 15.7445 21.0013 15.7445 21.4087 14.9299C21.8159 14.1153 21.653 13.3007 22.3048 12.812C22.9564 12.3232 22.9564 11.1013 21.4902 10.4496C20.0239 9.79789 20.0239 10.4496 19.1278 9.30914C18.2317 8.16867 17.9873 8.41305 17.0913 8.00578C16.1953 7.59852 16.1138 6.9468 14.9734 6.9468C14.3798 6.94703 13.9076 6.84766 13.5912 6.75242Z" fill="#0099FF"/>
<path d="M15.0463 25.9091C15.0181 25.9091 14.9898 25.907 14.9616 25.9027C14.2052 25.7874 13.759 25.3675 12.9723 24.0302C12.4581 23.1562 12.6612 22.451 12.8243 21.8845C12.9347 21.5009 13.022 21.198 12.8845 20.9231C12.6331 20.4202 12.7988 19.9381 12.9591 19.4718C13.0906 19.0891 13.2148 18.7275 13.1152 18.3619C12.9377 17.7108 13.0744 16.7227 13.1843 15.9286C13.2309 15.5916 13.2713 15.3005 13.2713 15.1336C13.2713 15.0428 13.2752 14.9573 13.2787 14.8817C13.2977 14.4715 13.3047 14.318 12.7423 14.093C11.9001 13.756 11.587 13.4 11.4023 12.5692C11.2523 11.894 11.1227 11.7769 10.5281 11.4797C10.2751 11.3531 10.1301 11.1861 10.0971 10.9831C10.0331 10.5887 10.3993 10.186 10.8847 9.70063C11.5359 9.04945 11.6421 8.8518 11.6421 8.29102C11.6421 7.82399 11.8722 7.66117 12.0572 7.53031C12.1905 7.43594 12.3056 7.35445 12.391 7.15508L12.3988 7.13711C12.6084 6.65969 13.1452 6.4143 13.6477 6.56539C13.9301 6.65039 14.3893 6.75164 14.9736 6.75164C15.7565 6.75164 16.0945 7.03797 16.4525 7.34102C16.6528 7.51063 16.8599 7.68609 17.1724 7.82813C17.4073 7.93492 17.5985 7.99586 17.7672 8.04969C18.2471 8.20274 18.5939 8.31328 19.2816 9.18867C19.7769 9.81899 19.9374 9.84391 20.3251 9.90406C20.5964 9.94617 20.968 10.0038 21.5697 10.2713C22.3497 10.618 22.8377 11.1764 22.9087 11.8034C22.9609 12.2652 22.7791 12.7007 22.4222 12.9684C22.0827 13.223 22.0014 13.5823 21.8984 14.0373C21.8305 14.3375 21.7535 14.6778 21.5837 15.0174C21.1224 15.94 20.6134 15.94 20.0241 15.94C19.5815 15.94 19.3409 17.1429 19.2381 17.6566C19.1049 18.3226 18.3498 18.9383 17.743 19.433C17.5424 19.5966 17.3531 19.7509 17.2296 19.8743C16.9549 20.149 16.7058 20.1895 16.5238 20.219C16.3394 20.2489 16.2468 20.264 16.1206 20.4848C16.002 20.6923 15.9406 20.8804 15.8813 21.0622C15.7849 21.3577 15.6851 21.6632 15.3561 21.9923C15.1352 22.2131 15.1806 22.2784 15.2802 22.4216C15.3395 22.5067 15.4133 22.6128 15.4133 22.7502C15.4133 22.7816 15.4148 22.813 15.4163 22.8448C15.4274 23.0804 15.4412 23.3734 15.0302 23.7844C14.7877 24.027 14.8454 24.1336 15.0365 24.4869C15.0722 24.5529 15.1102 24.6233 15.1483 24.6994C15.1916 24.7861 15.2613 24.8644 15.3552 24.932C15.5177 25.0491 15.6018 25.2367 15.5801 25.434C15.5588 25.6275 15.4388 25.789 15.259 25.866C15.192 25.8945 15.1198 25.9091 15.0463 25.9091ZM13.3464 6.91149C13.0959 6.91149 12.8608 7.05633 12.7566 7.29352L12.7514 7.30555C12.6211 7.60961 12.4334 7.74234 12.2827 7.84906C12.1162 7.96688 12.0326 8.02602 12.0326 8.29094C12.0326 9.00367 11.8468 9.29078 11.1607 9.9768C10.9108 10.2267 10.4455 10.692 10.4826 10.9205C10.4942 10.9925 10.5683 11.063 10.7027 11.1303C11.3931 11.4755 11.6054 11.6829 11.7834 12.4845C11.9282 13.136 12.1168 13.4222 12.8872 13.7303C13.7075 14.0585 13.6887 14.4671 13.6687 14.8998C13.6652 14.9745 13.6616 15.0519 13.6616 15.1336C13.6616 15.3274 13.6196 15.6309 13.571 15.9822C13.4716 16.7009 13.3353 17.6852 13.4919 18.2591C13.6232 18.7408 13.4666 19.1966 13.3284 19.5988C13.182 20.0245 13.0557 20.3922 13.2338 20.7484C13.4394 21.1596 13.3229 21.5642 13.1995 21.9926C13.0423 22.5384 12.8798 23.1029 13.3088 23.8323C14.1009 25.1788 14.4621 25.4316 15.0202 25.5166C15.0501 25.5213 15.0794 25.5179 15.1048 25.507C15.1723 25.4781 15.1881 25.422 15.1915 25.3913C15.1976 25.3358 15.1734 25.2826 15.1266 25.249C14.9809 25.1441 14.8705 25.0179 14.7986 24.8741C14.7625 24.802 14.7265 24.7353 14.6926 24.6727C14.4934 24.3045 14.3052 23.9566 14.7538 23.5081C15.0426 23.2193 15.0348 23.0542 15.0259 22.8631C15.0241 22.8252 15.0224 22.7877 15.0224 22.7502C15.0202 22.732 14.9835 22.6794 14.9593 22.6445C14.8434 22.478 14.6277 22.1679 15.0796 21.7159C15.3425 21.453 15.4163 21.227 15.5097 20.9409C15.572 20.7498 15.6428 20.5331 15.7812 20.2909C15.9999 19.9081 16.2556 19.8666 16.4609 19.8333C16.6255 19.8066 16.7676 19.7835 16.9531 19.598C17.0906 19.4605 17.2784 19.3074 17.4958 19.1301C18.0247 18.6988 18.7491 18.1083 18.8547 17.5798C19.0513 16.5973 19.3198 15.5491 20.0238 15.5491C20.5763 15.5491 20.8806 15.5491 21.2339 14.8425C21.3825 14.5452 21.4509 14.243 21.5171 13.9508C21.6282 13.46 21.7331 12.9964 22.1875 12.6556C22.4324 12.472 22.5567 12.1697 22.5202 11.847C22.4653 11.3613 22.0609 10.917 21.4108 10.628C20.8564 10.3816 20.5284 10.3307 20.2649 10.2898C19.792 10.2165 19.5395 10.1492 18.9742 9.42977C18.3606 8.64883 18.0924 8.56328 17.6482 8.42164C17.4692 8.36461 17.2663 8.29984 17.0104 8.18359C16.6485 8.01914 16.4101 7.81719 16.1997 7.63899C15.8719 7.36141 15.613 7.14211 14.9733 7.14211C14.3415 7.14211 13.8423 7.0318 13.5348 6.9393C13.4724 6.92047 13.4089 6.91149 13.3464 6.91149Z" fill="#0099FF"/>
</g>
<defs>
<clipPath id="clip0_3937_6287">
<rect width="20" height="20" fill="white" transform="translate(6 6.21484)"/>
</clipPath>
</defs>
</svg>