<svg xmlns="http://www.w3.org/2000/svg" width="32" height="33" viewBox="0 0 32 33" fill="none">
<rect y="0.714844" width="32" height="32" rx="16" fill="#F5F5F5"/>
<g clip-path="url(#clip0_3937_6303)">
<path d="M20.137 12.0132C20.1274 12.3217 20.3694 12.5798 20.6779 12.59H20.8955C21.0472 12.5909 21.1919 12.6548 21.2948 12.7663C21.4018 12.8822 21.4609 13.0344 21.4601 13.1921V13.6482C21.466 13.8368 21.318 13.9946 21.1293 14.0009H21.0235C20.7065 14.0114 20.4579 14.2765 20.4678 14.5935V14.5964C20.4624 14.861 20.6348 15.0965 20.8887 15.1713L21.4275 15.315C21.6551 15.3744 21.897 15.303 22.0558 15.1294L22.7895 14.347C22.8632 14.2672 22.9723 14.2302 23.0793 14.2487C23.1863 14.2672 23.2767 14.3387 23.3192 14.4387L23.354 14.6102C23.3703 14.7142 23.4356 14.8041 23.5296 14.8516C23.6236 14.8991 23.7347 14.8984 23.8281 14.8497L24.3785 14.5491C24.5081 14.4773 24.611 14.3654 24.6717 14.2302L25.0082 13.4937C25.0598 13.3749 25.1761 13.2974 25.3056 13.2954H25.5021C25.6582 13.2919 25.7912 13.1811 25.823 13.0283L25.9884 12.3228C26.0158 12.2209 25.9954 12.1119 25.9331 12.0267C25.8707 11.9415 25.773 11.8892 25.6675 11.8846H24.905C24.8161 11.8841 24.7314 11.8466 24.6711 11.7813L23.8982 10.9571C23.8239 10.8761 23.7131 10.8392 23.6051 10.8595L20.5812 11.4457C20.3167 11.5047 20.1307 11.7423 20.137 12.0132Z" fill="#0561E2"/>
<path d="M12.552 13.7224C12.7413 13.6354 12.9601 13.6405 13.145 13.7362L14.1277 14.2258C14.1936 14.2594 14.2683 14.2715 14.3415 14.2603L15.1 14.1327C15.3494 14.0916 15.6016 14.1882 15.7595 14.3855C15.9175 14.5828 15.9567 14.85 15.862 15.0843L15.6931 15.505C15.6501 15.612 15.663 15.7335 15.7276 15.8291L16.0482 16.3152C16.1114 16.4097 16.2164 16.4678 16.3299 16.4712C16.4436 16.4747 16.5518 16.423 16.6206 16.3325L17.1619 15.6084C17.2935 15.4323 17.5006 15.3287 17.7205 15.3291H18.0687C18.2886 15.3288 18.4956 15.4323 18.6273 15.6084L18.9617 16.0566C19.0864 16.2222 19.1312 16.4345 19.0839 16.6363C19.0366 16.8381 18.9022 17.0084 18.7169 17.1014L18.0825 17.5323C17.8609 17.6828 17.7444 17.9464 17.7825 18.2116L17.817 18.4461C17.8773 18.5368 17.8916 18.6506 17.8558 18.7534C17.8199 18.8563 17.7379 18.9365 17.6343 18.9701L16.2206 19.4425C16.0629 19.4966 15.9288 19.6039 15.8414 19.7459L15.1311 20.9355C15.004 21.1452 14.7765 21.2734 14.5312 21.2734H13.0279C12.7073 21.2739 12.4285 21.493 12.3521 21.8043L12.2418 22.2388C12.2161 22.3435 12.2401 22.4543 12.3067 22.5391C12.3733 22.6239 12.4753 22.6734 12.5831 22.6732H12.8314C13.0252 22.6741 13.1822 22.831 13.183 23.0249V23.5076C13.1831 23.6403 13.2578 23.7616 13.3761 23.8214L13.8795 24.111C13.9972 24.1698 14.0718 24.2897 14.0725 24.4213L13.7002 25.1454C13.6563 25.2305 13.5794 25.2939 13.4875 25.3206C13.3956 25.3473 13.2967 25.3351 13.214 25.2867L11.2142 24.1213C11.1318 24.0894 11.0642 24.0279 11.0246 23.9489L9.71433 21.325C9.69976 21.2904 9.6773 21.2597 9.64883 21.2354L8.69718 20.2805C8.46326 20.0437 8.42729 19.6753 8.61098 19.3978L9.45916 18.122C9.60774 17.9003 9.6657 17.6301 9.62121 17.3669L9.44881 16.3325C9.3905 15.9649 9.05327 15.7082 8.68339 15.7498L6.59046 15.9843C6.35795 16.0097 6.13633 15.8793 6.04568 15.6636H6.04228C5.93386 15.408 6.04053 15.1121 6.2871 14.9844L8.24895 13.9534C8.27812 13.9375 8.30949 13.9258 8.34202 13.919L9.80397 13.6259C9.95575 13.5948 10.1135 13.6155 10.2522 13.6845L11.1245 14.1224C11.1383 14.1293 11.1555 14.1362 11.1728 14.1431L12.552 13.7224Z" fill="#0099FF"/>
</g>
<defs>
<clipPath id="clip0_3937_6303">
<rect width="20" height="20" fill="white" transform="translate(6 6.71484)"/>
</clipPath>
</defs>
</svg>