<svg xmlns="http://www.w3.org/2000/svg" width="32" height="33" viewBox="0 0 32 33" fill="none">
<rect y="0.714844" width="32" height="32" rx="16" fill="#F5F5F5"/>
<g clip-path="url(#clip0_3937_6281)">
<path d="M11.2441 13.4322C11.4249 13.2887 11.6931 13.3507 11.7955 13.5576C11.8125 13.5919 11.8241 13.6289 11.8297 13.6668L11.9217 14.2941L12.0675 14.8201C12.0872 14.8913 12.1195 14.9585 12.1626 15.0185C12.25 15.1399 12.2911 15.2886 12.2782 15.4376L12.26 15.6493C12.2521 15.7407 12.2725 15.8322 12.3183 15.9115C12.385 16.027 12.3967 16.1661 12.3503 16.2911L12.325 16.3592C12.2909 16.4513 12.2797 16.5503 12.2926 16.6476L12.3 16.704C12.3153 16.8198 12.306 16.9375 12.2728 17.0494L12.1726 17.3866L12.1021 17.7188C12.099 17.7336 12.0998 17.749 12.1046 17.7634L12.1328 17.849C12.1516 17.9059 12.2331 17.9028 12.2475 17.8447C12.2587 17.7994 12.315 17.7839 12.3478 17.8171C12.4838 17.9549 12.6199 18.0949 12.756 18.2488C12.7853 18.282 12.8083 18.3201 12.8246 18.3613L12.8456 18.4142C12.8817 18.5055 12.936 18.5886 13.0051 18.6584L13.0465 18.7002C13.0827 18.7368 13.1138 18.7784 13.1386 18.8235C13.1958 18.9274 13.2183 19.0469 13.2027 19.1645C13.1857 19.2933 13.2143 19.4239 13.2836 19.5338L13.2901 19.5442C13.331 19.6092 13.3589 19.6815 13.3721 19.7572L13.3864 19.8391C13.4132 19.9926 13.4805 20.1362 13.5814 20.255L13.6639 20.3523C13.7063 20.4022 13.7352 20.4621 13.7479 20.5263C13.7676 20.626 13.826 20.7137 13.9103 20.7705L14.381 21.0875L14.7713 21.3987C14.8269 21.4431 14.8972 21.465 14.9682 21.4603L15.0897 21.4521C15.171 21.4466 15.2342 21.379 15.2342 21.2975C15.2342 21.276 15.2298 21.2548 15.2211 21.2351L15.0674 20.8857C15.045 20.8347 15.0134 20.7884 14.9743 20.7488C14.899 20.6728 14.853 20.5728 14.8442 20.4662L14.838 20.3914C14.8345 20.3487 14.8242 20.3069 14.8075 20.2675C14.7749 20.1908 14.767 20.1058 14.785 20.0244L14.792 19.9926C14.8023 19.9454 14.8059 19.897 14.8025 19.8488L14.7985 19.7925C14.788 19.6442 14.7407 19.5009 14.6609 19.3755L14.5567 19.2117L14.3282 18.939C14.297 18.9017 14.257 18.8726 14.2119 18.8544C14.1744 18.8392 14.1405 18.8167 14.1121 18.788L13.9826 18.6572C13.9153 18.5892 13.8283 18.5441 13.734 18.5282C13.6329 18.5112 13.5405 18.4607 13.4716 18.3848L13.4219 18.3299C13.3433 18.2433 13.2887 18.1376 13.2636 18.0234L13.2158 17.8064C13.2063 17.7632 13.193 17.7209 13.1759 17.68L13.0529 17.3849C13.0209 17.3081 12.9486 17.2558 12.8657 17.2493C12.756 17.2408 12.6692 17.153 12.6619 17.0432L12.6544 16.9296C12.6511 16.8799 12.6584 16.8302 12.6756 16.7835C12.8087 16.4224 12.9419 16.0439 13.075 15.6828C13.0923 15.6359 13.1033 15.5869 13.1076 15.5371L13.1345 15.2251C13.144 15.1143 13.2368 15.0292 13.348 15.0292H13.3843C13.4985 15.0292 13.5851 15.1322 13.5654 15.2446C13.5458 15.3571 13.6323 15.4601 13.7465 15.4601H13.8981C13.9515 15.4601 14.0039 15.4738 14.0504 15.4999L14.1793 15.5722C14.3429 15.664 14.4727 15.8059 14.5497 15.977L14.654 16.2088C14.6727 16.2503 14.6955 16.2899 14.7221 16.3268L14.7279 16.3349C14.8273 16.4729 14.9765 16.5668 15.144 16.5966L15.1884 16.6045C15.2678 16.6187 15.3424 16.6527 15.4052 16.7034L15.5023 16.7819C15.611 16.8698 15.6483 17.019 15.5937 17.1476L15.578 17.1848C15.551 17.2483 15.5542 17.3205 15.5867 17.3814C15.6522 17.5044 15.8116 17.5404 15.9238 17.4577L16.3226 17.1633C16.3498 17.1432 16.3755 17.121 16.3993 17.097L16.5114 16.9837C16.6962 16.797 16.9072 16.6381 17.1377 16.512L17.3013 16.4225C17.3619 16.3893 17.4191 16.3504 17.4722 16.3062C17.694 16.1218 17.832 15.8557 17.8551 15.5681L17.8725 15.3514C17.8869 15.1717 17.8707 14.9908 17.8244 14.8166L17.6852 14.2925C17.6409 14.1258 17.5677 13.9683 17.4689 13.8269C17.3685 13.6832 17.2433 13.5586 17.0991 13.4589L17.0787 13.4449C16.921 13.3359 16.7837 13.1999 16.6758 13.0415C16.4915 12.7709 16.3134 12.5003 16.1291 12.2297C16.0248 12.0766 15.9962 11.8837 16.0542 11.7078C16.0762 11.6412 16.1099 11.5791 16.1538 11.5244L16.4813 11.1157C16.503 11.0886 16.5285 11.0646 16.5568 11.0444L16.7897 10.8789C16.952 10.7635 16.9091 10.5116 16.7178 10.4564C16.6828 10.4463 16.6506 10.4284 16.6237 10.4039L16.5051 10.296C16.4486 10.2447 16.4242 10.1669 16.4412 10.0926C16.4675 9.97757 16.3945 9.86332 16.2791 9.83879L16.0861 9.79774C16.0375 9.78741 15.992 9.76574 15.9534 9.7345C15.8405 9.64329 15.68 9.64077 15.5643 9.72841L15.4582 9.80881C15.3936 9.85777 15.3177 9.88977 15.2376 9.90192L14.9595 9.94404C14.8918 9.9543 14.8234 9.95946 14.7549 9.95946H14.6779C14.5319 9.95946 14.3876 9.991 14.2549 10.0519L14.2026 10.0759C14.1877 10.0828 14.1723 10.0884 14.1565 10.0927C14.0114 10.1327 13.9173 10.2727 13.9351 10.4221L13.9576 10.6121C13.9689 10.7068 13.8901 10.7877 13.7951 10.779C13.7389 10.7739 13.6903 10.7375 13.6695 10.685L13.6611 10.6636C13.6559 10.6505 13.6525 10.6368 13.6509 10.6228C13.6395 10.5188 13.532 10.4546 13.435 10.4938L13.3436 10.5307C13.2849 10.5544 13.2191 10.5532 13.1613 10.5272L13.0259 10.4664L12.8405 10.3666C12.73 10.307 12.6781 10.1768 12.7175 10.0575L12.7314 10.0151C12.7691 9.90098 12.7059 9.77811 12.5911 9.74243C12.5184 9.71984 12.4631 9.6605 12.4456 9.58642L12.4029 9.40515C12.3723 9.27547 12.2454 9.19255 12.1144 9.21662C11.9534 9.24618 11.8079 9.11566 11.8199 8.95243L11.8353 8.74254C11.8424 8.6445 11.8844 8.55225 11.9536 8.48239L12.081 8.3537C12.237 8.1961 12.3296 7.98663 12.3411 7.76517L12.3483 7.62739L12.3325 7.34025C12.3266 7.23372 12.2712 7.1361 12.1827 7.0765L12.1723 7.06953C12.1234 7.0366 12.0853 6.98995 12.0629 6.93544L12.0221 6.83663C11.9927 6.76538 11.918 6.72392 11.842 6.73671L11.8065 6.74268C11.7326 6.75512 11.6842 6.82685 11.7003 6.90001C11.7126 6.95578 11.6873 7.01307 11.6379 7.04162L11.6295 7.04642C11.5786 7.07582 11.5506 7.13321 11.5589 7.19143L11.5607 7.20451C11.5772 7.32077 11.4695 7.41602 11.3561 7.38548L11.3014 7.37075C11.2487 7.35657 11.1926 7.36437 11.1458 7.39237L10.7308 7.64077C10.6148 7.71024 10.5479 7.83935 10.5582 7.97423C10.5636 8.04554 10.5475 8.11684 10.512 8.17889L10.3676 8.43075C10.3168 8.51939 10.2858 8.61797 10.2766 8.71974L10.2734 8.75536C10.2681 8.81408 10.2526 8.87143 10.2276 8.92481L10.1134 9.16823C10.0711 9.25841 9.96863 9.30336 9.87365 9.27338C9.75261 9.23517 9.62726 9.31867 9.61588 9.44509L9.59571 9.6692C9.59053 9.72672 9.57202 9.78224 9.54163 9.83135L9.50456 9.89126C9.4775 9.93499 9.46854 9.98755 9.47959 10.0378C9.49899 10.1259 9.45621 10.2161 9.37563 10.2567L9.36579 10.2617C9.30189 10.294 9.2616 10.3595 9.2616 10.4311V10.6271C9.2616 10.671 9.21668 10.7005 9.17643 10.683C9.13485 10.665 9.08886 10.6971 9.09135 10.7423L9.1068 11.0231C9.10955 11.0732 9.12823 11.121 9.16012 11.1596L9.44253 11.502C9.47172 11.5373 9.51144 11.5625 9.55591 11.5737L9.64343 11.5958C9.72094 11.6154 9.76431 11.6979 9.73649 11.7728C9.72189 11.8122 9.7265 11.8561 9.74895 11.8915L10.0049 12.2955C10.0776 12.4102 10.1284 12.5373 10.1547 12.6704L10.1872 12.8347C10.2057 12.9277 10.203 13.0236 10.1794 13.1154L10.1144 13.3688C10.0717 13.5351 10.1601 13.7072 10.3202 13.7694C10.3504 13.7811 10.3822 13.7885 10.4146 13.7912L10.4544 13.7945C10.5921 13.8061 10.7297 13.7711 10.8451 13.6951L11.2441 13.4322ZM16.0624 24.4042C16.0624 24.3562 16.0669 24.3084 16.0759 24.2612L16.1477 23.8839C16.1732 23.7497 16.1406 23.6109 16.0578 23.5023L16.045 23.4855C15.9758 23.3946 15.8732 23.3349 15.76 23.3197C15.6335 23.3026 15.5212 23.2304 15.4532 23.1225L15.4236 23.0755C15.3979 23.0348 15.3797 22.9899 15.3697 22.9428L15.3421 22.8125C15.3226 22.7206 15.2471 22.6512 15.1539 22.6394C15.1241 22.6357 15.0954 22.6259 15.0695 22.6106L15.0108 22.576C14.8955 22.5081 14.8507 22.3638 14.9072 22.2425C14.9643 22.1199 14.9177 21.9739 14.8001 21.907L14.6858 21.8421C14.6338 21.8126 14.5891 21.7718 14.5548 21.7228L14.3918 21.4895C14.3347 21.4077 14.2668 21.334 14.1902 21.2702L14.0572 21.1596C13.9421 21.0639 13.7971 21.0114 13.6474 21.0114C13.46 21.0114 13.282 20.9294 13.1602 20.787L12.9507 20.542C12.9005 20.4833 12.8454 20.429 12.7858 20.3798L12.5992 20.2256L12.1977 19.8707L11.9132 19.5514C11.8053 19.4303 11.6577 19.3516 11.497 19.3305C11.2744 19.3013 11.0518 19.274 10.8293 19.2539C10.7222 19.2442 10.6373 19.3407 10.6581 19.4462C10.6639 19.4752 10.6774 19.5021 10.6972 19.524L11.0938 19.9627C11.1604 20.0365 11.2328 20.1049 11.3101 20.1674L11.3837 20.2269C11.5072 20.3267 11.6124 20.4472 11.6946 20.5831L11.7105 20.6094C11.8001 20.7574 11.92 20.8848 12.0623 20.9832C12.2334 21.1015 12.3716 21.2613 12.4639 21.4477L12.524 21.5691L12.554 21.66C12.6331 21.8999 12.7701 22.1166 12.9529 22.2909C13.0678 22.4005 13.165 22.5272 13.2411 22.6665L13.5278 23.1914C13.6948 23.4444 13.8826 23.6831 14.0893 23.9049L14.1802 24.0025C14.3297 24.2038 14.5131 24.3774 14.7222 24.5155L14.9578 24.6711C15.0248 24.7154 15.087 24.7664 15.1435 24.8235L15.3656 25.0478C15.4421 25.1251 15.5464 25.1686 15.6551 25.1686C15.88 25.1686 16.0624 24.9862 16.0624 24.7613V24.4042ZM19.9176 26.0932C19.7965 26.0695 19.6926 25.9926 19.6345 25.8837C19.581 25.7833 19.4881 25.7096 19.3781 25.6804L18.7367 25.5099C18.6546 25.4881 18.5682 25.525 18.5273 25.5994C18.4932 25.6615 18.4266 25.6986 18.3558 25.6949L17.5985 25.6557C17.5338 25.6523 17.4767 25.6124 17.4514 25.5528C17.4301 25.5025 17.3859 25.4657 17.3327 25.4537L17.2321 25.4311C17.2052 25.4251 17.1791 25.4161 17.1542 25.4043L16.9188 25.2924C16.8173 25.2441 16.7072 25.2169 16.5949 25.2124L16.2892 25.2001C16.1948 25.1962 16.1051 25.241 16.0513 25.3186L15.9896 25.4076C15.898 25.5397 15.9813 25.7216 16.1412 25.7386C16.2166 25.7467 16.282 25.7944 16.3125 25.8639L16.3174 25.8749C16.3465 25.941 16.4046 25.9898 16.4747 26.0071L17.1637 26.1763C17.2475 26.1969 17.3355 26.1932 17.4173 26.1657C17.4835 26.1434 17.5539 26.1367 17.6231 26.146L17.7848 26.1678C17.8576 26.1776 17.9294 26.1943 17.999 26.2178L18.4966 26.3853L18.9734 26.4867L19.3703 26.5249C19.4569 26.5332 19.544 26.5351 19.6309 26.5305L19.757 26.5238C19.9024 26.516 20.0479 26.5369 20.1852 26.5852L20.4807 26.689C20.5284 26.7057 20.5804 26.7057 20.6281 26.689C20.8145 26.6235 20.8292 26.3654 20.6514 26.2792L20.5364 26.2235C20.515 26.2131 20.4924 26.2056 20.4691 26.201L19.9176 26.0932ZM22.0601 22.1414C22.0601 22.0651 22.0777 21.9898 22.1116 21.9213L22.1853 21.7724C22.2166 21.7091 22.2787 21.6669 22.349 21.6609C22.5285 21.6458 22.5996 21.4208 22.4612 21.3054L22.3671 21.2268C22.3042 21.1743 22.2836 21.0865 22.3166 21.0115C22.344 20.9491 22.3347 20.8766 22.2924 20.8231L22.1763 20.6765C22.0464 20.5125 22.0337 20.2846 22.1446 20.1073L22.2082 20.0056C22.2426 19.9506 22.292 19.9067 22.3506 19.8791L22.5367 19.7914C22.5933 19.7647 22.6194 19.6988 22.5963 19.6406C22.5669 19.5662 22.6181 19.4846 22.6979 19.4789L22.7829 19.4728C22.8441 19.4683 22.8937 19.4213 22.9012 19.3603C22.9083 19.3026 22.8758 19.2471 22.8213 19.2266C22.6364 19.1571 22.4417 19.096 22.2558 19.0147C22.1811 18.982 22.1354 18.9067 22.1354 18.8251C22.1354 18.7645 22.11 18.7067 22.0654 18.6658L21.9202 18.5324C21.881 18.4965 21.8298 18.4766 21.7767 18.4766C21.7033 18.4766 21.635 18.5146 21.5964 18.5771L21.4601 18.7973C21.4253 18.8535 21.3824 18.9044 21.3328 18.9483L21.1385 19.12C21.0503 19.1979 20.9566 19.2693 20.8582 19.3337L20.8183 19.3597C20.6595 19.4635 20.5122 19.5838 20.3787 19.7186L20.1278 20.0482L20.0746 20.1055C19.8644 20.3319 19.5884 20.4867 19.2856 20.5478L19.1686 20.5715C19.1389 20.5775 19.11 20.5868 19.0824 20.5992L19.0791 20.6006C18.9651 20.6518 18.8815 20.7534 18.8531 20.8751C18.8191 21.0211 18.7064 21.1359 18.5611 21.1726L18.5247 21.1818C18.4416 21.2027 18.3538 21.1942 18.2763 21.1577C18.1249 21.0863 17.9446 21.1254 17.8363 21.253L17.8052 21.2896C17.7488 21.3561 17.7138 21.438 17.7048 21.5248L17.6837 21.7273C17.6736 21.8242 17.6765 21.922 17.6923 22.0181L17.7107 22.1291C17.7325 22.2617 17.7768 22.3898 17.8417 22.5076L17.9451 22.6957C17.9776 22.7547 18.025 22.8042 18.0827 22.8392C18.1854 22.9014 18.2531 23.008 18.2657 23.1274L18.2806 23.2673C18.3042 23.4898 18.4786 23.6664 18.7008 23.6928C18.7319 23.6965 18.7633 23.6971 18.7945 23.6947L18.9376 23.6836C19.0219 23.677 19.1034 23.7158 19.1516 23.7853C19.21 23.8696 19.3159 23.9069 19.4143 23.8779L19.6652 23.804C19.783 23.7693 19.9102 23.7904 20.0105 23.8613C20.0708 23.9039 20.1416 23.9291 20.2153 23.9341L20.3324 23.942C20.4244 23.9482 20.5076 23.9987 20.5556 24.0774C20.6274 24.1953 20.7736 24.2443 20.902 24.1936L21.2126 24.0708C21.2373 24.061 21.2653 24.0728 21.2757 24.0972C21.294 24.1404 21.3566 24.1356 21.3682 24.0902L21.5265 23.4707C21.5309 23.4535 21.5335 23.436 21.5344 23.4182L21.5435 23.2354C21.5528 23.0476 21.6479 22.8745 21.8014 22.7659C21.9636 22.6512 22.0601 22.4649 22.0601 22.2662V22.1414Z" fill="#0561E2"/>
</g>
<defs>
<clipPath id="clip0_3937_6281">
<rect width="20" height="20" fill="white" transform="translate(6 6.71484)"/>
</clipPath>
</defs>
</svg>