<svg width="94" height="29" viewBox="0 0 94 29" fill="none" xmlns="http://www.w3.org/2000/svg">
<path d="M21.5089 7.45232V16.015C21.5089 16.1538 21.4533 16.2869 21.3543 16.385C21.2553 16.4832 21.121 16.5383 20.9811 16.5383H18.2549C18.1149 16.5382 17.9807 16.4831 17.8818 16.3849C17.7828 16.2868 17.7272 16.1537 17.7271 16.015V2.08741C17.7271 1.94861 17.7827 1.8155 17.8817 1.71735C17.9807 1.61921 18.1149 1.56407 18.2549 1.56407H20.7777C20.9176 1.56407 21.0519 1.61921 21.1509 1.71735C21.2499 1.8155 21.3055 1.94861 21.3055 2.08741V4.04877C21.3055 4.04877 22.2073 1.25094 24.8836 1.25094C24.8836 1.25094 27.5309 0.933663 28.6072 3.84687C28.6072 3.84687 29.509 1.25094 32.2436 1.25094C32.2436 1.25094 36.3102 1.01119 36.3102 5.18337L36.3412 7.48116V16.0438C36.3412 16.1826 36.2855 16.3157 36.1866 16.4139C36.0876 16.512 35.9533 16.5671 35.8133 16.5671H33.087C32.947 16.5671 32.8128 16.5119 32.7138 16.4138C32.6148 16.3157 32.5592 16.1826 32.5591 16.0438L32.5342 6.70239C32.6117 4.58711 30.8858 4.74102 30.8858 4.74102C28.7138 4.77956 28.9228 7.48116 28.9228 7.48116V16.0438C28.9228 16.1826 28.8672 16.3157 28.7682 16.4139C28.6692 16.512 28.535 16.5671 28.395 16.5671H25.6688C25.5289 16.5671 25.3947 16.5119 25.2957 16.4138C25.1967 16.3157 25.1411 16.1826 25.141 16.0438V6.91375C25.141 6.91375 25.3004 4.72164 23.3609 4.72164C23.3611 4.72164 21.4412 4.47174 21.5089 7.45232ZM91.7814 7.42671V15.9891C91.7814 16.1279 91.7258 16.261 91.6268 16.3591C91.5278 16.4572 91.3936 16.5124 91.2536 16.5124L88.4183 16.5669C88.2784 16.5668 88.1441 16.5117 88.0452 16.4136C87.9462 16.3154 87.8906 16.1823 87.8905 16.0436V6.91375C87.8905 6.91375 88.0499 4.72164 86.1106 4.72164C86.1106 4.72164 84.2584 4.63118 84.2584 8.06819V16.0147C84.2583 16.1535 84.2027 16.2866 84.1037 16.3847C84.0047 16.4828 83.8705 16.538 83.7305 16.5381H81.0042C80.8642 16.538 80.73 16.4828 80.631 16.3847C80.532 16.2866 80.4764 16.1535 80.4763 16.0147V2.08741C80.4764 1.94863 80.532 1.81555 80.631 1.71742C80.73 1.61929 80.8642 1.56413 81.0042 1.56407H83.5269C83.6669 1.56407 83.8011 1.61921 83.9001 1.71735C83.9991 1.8155 84.0547 1.94861 84.0547 2.08741V4.04877C84.0547 4.04877 84.9565 1.25094 87.6329 1.25094C87.6329 1.25094 90.4998 0.819673 91.4654 3.79264C91.4656 3.79241 91.7814 4.40574 91.7814 7.42671ZM72.0975 1.19326C68.6113 1.19326 65.7849 4.10646 65.7849 9.00988C65.7849 13.327 67.9667 16.8265 72.0975 16.8265C75.9957 16.8265 78.4102 13.327 78.4102 9.00988C78.4102 4.19299 75.584 1.19326 72.0975 1.19326ZM74.298 9.18294C74.298 11.0289 74.0652 12.0096 74.0652 12.0096C73.7341 13.9611 72.3054 13.9638 72.0947 13.9534C71.8674 13.9624 70.4266 13.9421 70.1284 12.0096C70.1284 12.0096 69.8957 11.0289 69.8957 9.18294V8.87535C69.8957 7.02936 70.1284 6.04868 70.1284 6.04868C70.4266 4.11615 71.8676 4.09585 72.0947 4.10462C72.3054 4.09423 73.7341 4.09677 74.0652 6.04868C74.0652 6.04868 74.298 7.02936 74.298 8.87535V9.18294ZM64.2026 4.02939V2.03111C64.2025 1.89233 64.1469 1.75925 64.0479 1.66112C63.9489 1.56298 63.8147 1.50783 63.6747 1.50777H54.6636C54.5236 1.50777 54.3894 1.5629 54.2904 1.66105C54.1914 1.75919 54.1358 1.89231 54.1358 2.03111V4.01393C54.1359 4.15271 54.1915 4.28579 54.2905 4.38392C54.3894 4.48205 54.5237 4.53721 54.6636 4.53727H59.364L53.8004 12.5396C53.8004 12.5396 53.5812 12.8641 53.5884 13.2224V15.6566C53.5884 15.6566 53.5521 16.4912 54.5068 16.0069C54.5068 16.0069 56.2024 14.9911 59.0456 14.9911C59.0456 14.9911 61.8534 14.9565 63.7255 16.0943C63.7255 16.0943 64.5025 16.4446 64.5025 15.6744V13.5556C64.5025 13.5556 64.5731 12.9949 63.8314 12.6449C63.8314 12.6449 61.6768 11.4717 58.8513 11.6642L64.2026 4.02939ZM15.623 14.0476L14.7696 12.7595C14.498 12.2787 14.5176 11.7401 14.5176 11.7401V5.79854C14.6339 0.664379 8.89331 1.10672 8.89331 1.10672C3.79011 1.10672 3.03631 5.04446 3.03631 5.04446C2.8236 5.83616 3.44218 5.85531 3.44218 5.85531L5.93584 6.10613C5.93584 6.10613 6.36102 6.20258 6.51579 5.70071C6.51579 5.70071 6.84416 3.98278 8.6806 3.98278C10.6788 3.98278 10.6581 5.68317 10.6581 5.68317V7.10666C6.66915 7.23888 4.82062 8.33678 4.82062 8.33678C2.35768 9.72128 2.51268 12.4711 2.51268 12.4711C2.51268 16.9513 6.8181 16.7589 6.8181 16.7589C9.57193 16.7589 11.201 14.7592 11.201 14.7592C11.6858 15.6056 12.578 16.4128 12.578 16.4128C13.0244 16.8927 13.4896 16.4898 13.4896 16.4898L15.5067 14.7786C15.9526 14.4514 15.623 14.0476 15.623 14.0476ZM8.16209 13.9922C6.86674 13.9922 6.38523 12.7159 6.60027 11.4616C6.81554 10.2072 7.93355 9.22147 10.6583 9.25032V10.0129C10.7549 13.3445 9.2403 13.9922 8.16209 13.9922ZM51.8504 14.0476L50.9973 12.7595C50.7257 12.2787 50.745 11.7401 50.745 11.7401V5.79854C50.8614 0.664379 45.1207 1.10672 45.1207 1.10672C40.0175 1.10672 39.2637 5.04446 39.2637 5.04446C39.051 5.83616 39.6696 5.85531 39.6696 5.85531L42.1632 6.10613C42.1632 6.10613 42.5884 6.20258 42.7432 5.70071C42.7432 5.70071 43.0716 3.98278 44.908 3.98278C46.9062 3.98278 46.8855 5.68317 46.8855 5.68317V7.10666C42.8968 7.23888 41.048 8.33678 41.048 8.33678C38.5851 9.72128 38.7401 12.4711 38.7401 12.4711C38.7401 16.9513 43.0455 16.7589 43.0455 16.7589C45.7993 16.7589 47.4284 14.7592 47.4284 14.7592C47.9134 15.6056 48.8052 16.4128 48.8052 16.4128C49.2516 16.8927 49.717 16.4898 49.717 16.4898L51.7338 14.7786C52.18 14.4514 51.8504 14.0476 51.8504 14.0476ZM44.3895 13.9922C43.0942 13.9922 42.6126 12.7159 42.8277 11.4616C43.0429 10.2072 44.161 9.22147 46.8855 9.25032V10.0129C46.9823 13.3445 45.4679 13.9922 44.3895 13.9922Z" fill="white"/>
<path d="M58.7148 25.2936C58.7148 25.2936 58.4868 25.687 58.767 25.775C58.767 25.775 59.0835 25.8975 59.4782 25.5343C59.4782 25.5343 62.3568 23.0411 62.4261 18.5018C62.4261 18.5018 62.4473 17.9348 62.2178 17.7797C62.2178 17.7797 61.316 16.9887 58.0732 17.2294C58.0732 17.2294 55.2465 17.4186 53.7033 18.777C53.7033 18.777 53.5646 18.8973 53.5646 19.0519C53.5646 19.0519 53.5314 19.3858 54.3796 19.2411C54.3796 19.2411 57.2061 18.8453 58.8882 19.0519C58.8882 19.0519 59.7556 19.155 59.9983 19.4476C59.9983 19.4476 60.3972 19.7743 60.1889 20.8572C60.1889 20.8577 59.6164 23.6087 58.7148 25.2936Z" fill="#F3971B"/>
<path d="M58.1445 20.9383C58.1445 20.9383 58.5666 21.4806 57.8855 21.9483C57.8855 21.9483 50.6088 27.7193 38.3907 27.7193C38.3907 27.7193 25.8138 28.3345 15.3121 18.8738C15.3121 18.8738 14.9439 18.5533 15.1724 18.2554C15.1724 18.2554 15.3768 17.9813 15.9058 18.2794C15.9058 18.2794 25.7847 24.3829 38.7591 24.3829C38.7591 24.3829 47.7773 24.7291 57.0281 20.8063C57.0281 20.8063 57.7651 20.4277 58.1445 20.9383Z" fill="#F3971B"/>
</svg>
