<svg xmlns="http://www.w3.org/2000/svg" width="134" height="68" viewBox="0 0 134 68" fill="none">
<g clip-path="url(#clip0_2221_98931)">
<path d="M129.478 14.8555C129.464 14.8094 129.45 14.7633 129.432 14.7173C118.521 14.7219 107.614 14.7173 96.7077 14.7219C96.6801 14.7541 96.6616 14.7864 96.657 14.8278C96.657 23.2886 96.657 31.7447 96.6523 40.2055C96.7214 40.6568 96.9701 41.0667 97.3018 41.3753C97.3157 41.3799 97.3479 41.3844 97.3617 41.3891C97.5321 41.5686 97.7762 41.6563 98.0065 41.7391C98.1769 41.73 98.3427 41.8036 98.5132 41.7852H112.054C112.183 41.7806 112.316 41.8036 112.441 41.753C112.446 41.7347 112.45 41.7023 112.455 41.6839C112.459 41.6609 112.464 41.6102 112.469 41.5826C112.759 39.9615 113.04 38.3356 113.348 36.7144L113.376 36.5071C112.123 36.5025 110.866 36.5071 109.613 36.5024C109.309 36.4933 108.996 36.5024 108.692 36.4656C108.171 36.4425 107.646 36.461 107.126 36.4103C106.481 36.4103 105.841 36.3504 105.196 36.3504C104.69 36.2998 104.178 36.3182 103.667 36.2952C103.336 36.2538 102.995 36.2722 102.659 36.2583C102.11 36.1985 101.553 36.24 101.005 36.18C100.425 36.1847 99.8444 36.134 99.2641 36.1201C99.2687 36.1155 99.2733 36.0971 99.2733 36.0925C99.4667 36.0971 99.6556 36.0833 99.849 36.0787C100.277 36.0234 100.71 36.0603 101.139 36.0004C101.585 36.0004 102.028 35.9405 102.474 35.9405C102.87 35.8852 103.271 35.9175 103.667 35.8622C104.132 35.8622 104.588 35.8024 105.053 35.7977C105.436 35.7471 105.823 35.7747 106.205 35.724C106.652 35.7286 107.094 35.6596 107.541 35.6642C107.978 35.6134 108.425 35.6272 108.862 35.5812C108.821 35.4109 108.789 35.2404 108.752 35.0699C108.72 34.964 108.591 34.9871 108.508 34.9732C107.508 34.8303 106.514 34.6877 105.519 34.5495C105.583 34.4988 105.671 34.5218 105.744 34.5126C106.518 34.4527 107.287 34.3836 108.061 34.3284C108.236 34.3192 108.406 34.2869 108.581 34.2823C108.503 34.0429 108.457 33.7803 108.351 33.5593C106.698 33.306 105.044 33.0803 103.395 32.8085C103.824 32.7394 104.257 32.7072 104.685 32.6612L104.722 32.6473C106.09 32.5044 107.462 32.3432 108.83 32.2098C110.566 32.2006 112.298 32.2051 114.035 32.2098C114.09 32.2006 114.187 32.2281 114.196 32.1498C114.339 31.4038 114.477 30.6577 114.62 29.9114C114.818 28.8752 115.131 27.8527 115.614 26.9085C116.374 25.3887 117.576 24.099 119.041 23.2424C120.409 22.441 121.993 22.0541 123.568 21.9804C124.08 21.9344 124.596 21.9482 125.102 22.0127C125.434 22.091 125.775 22.1831 126.037 22.4088C126.254 22.5838 126.383 22.8417 126.479 23.0996C126.691 23.7122 126.811 24.3478 126.912 24.988C126.917 25.2459 126.963 25.5361 126.825 25.771C126.696 26.0013 126.438 26.1118 126.194 26.1809C125.305 26.4112 124.375 26.1947 123.486 26.4112C122.753 26.5678 122.072 26.973 121.606 27.558C121.058 28.2396 120.768 29.087 120.607 29.9346C120.483 30.6899 120.326 31.4452 120.202 32.2052C121.077 32.2099 121.957 32.2005 122.836 32.2099C123.186 32.2099 123.545 32.4032 123.688 32.7348C123.872 33.1586 123.831 33.6376 123.771 34.0843C123.697 34.5864 123.578 35.0837 123.352 35.5443C123.163 35.9358 122.85 36.2951 122.422 36.4333C122.201 36.5208 121.961 36.5024 121.726 36.5024C120.952 36.5024 120.179 36.5115 119.405 36.5024C119.281 37.0689 119.198 37.6492 119.087 38.2249C118.885 39.3441 118.686 40.4679 118.484 41.5917C118.479 41.6286 118.475 41.7068 118.475 41.7483C118.838 41.7667 119.202 41.7483 119.566 41.7575C122.265 41.7575 124.969 41.7528 127.672 41.7575C127.962 41.7667 128.257 41.6976 128.51 41.5548C128.662 41.4996 128.755 41.366 128.888 41.2923C129.017 41.2186 129.054 41.0667 129.164 40.9699C129.284 40.7581 129.409 40.5371 129.418 40.2882C129.432 40.2882 129.468 40.2836 129.487 40.2791C129.473 31.8046 129.487 23.33 129.478 14.8555Z" fill="url(#paint0_linear_2221_98931)" stroke="#FCD109" stroke-width="0.0043294"/>
<path d="M100.945 9.28241C101.337 9.15806 101.747 9.24096 102.148 9.21333C109.669 9.21793 117.19 9.21333 124.711 9.21333C125.158 9.1949 125.549 9.44822 125.964 9.57718C126.295 9.71075 126.641 9.81668 126.972 9.95946C127.042 9.98709 127.092 10.047 127.143 10.0976C127.138 10.7056 127.143 11.3181 127.143 11.9307C127.148 12.0919 127.12 12.2577 127.175 12.4143C127.272 12.4281 127.322 12.5018 127.387 12.5617C127.691 12.6999 127.949 12.9256 128.225 13.1098C128.64 13.4046 129.082 13.6625 129.487 13.9665C129.506 14.0862 129.492 14.2106 129.455 14.3211C129.414 14.4501 129.441 14.5882 129.427 14.7172C118.516 14.7218 107.61 14.7172 96.7034 14.7218C96.6804 14.5698 96.7219 14.4178 96.6574 14.275C96.6482 14.1553 96.6067 13.9987 96.7219 13.9158C97.1824 13.5934 97.6707 13.3032 98.1219 12.9624C98.403 12.7828 98.6746 12.5985 98.9464 12.4143C99.0016 12.3222 98.9832 12.2071 98.9832 12.1057C98.9832 11.4379 98.9832 10.7701 98.9878 10.1022C99.1444 9.89958 99.4162 9.87655 99.6326 9.77523C100.07 9.60942 100.512 9.44822 100.945 9.28241ZM100.973 9.36071C100.384 9.58639 99.7894 9.80286 99.1999 10.0285C99.1216 10.0424 99.08 10.1114 99.0387 10.1713C99.0433 10.2082 99.0479 10.2726 99.0479 10.3095C99.0432 10.8622 99.0479 11.4149 99.0432 11.9676C99.0479 12.1057 99.0293 12.2439 99.08 12.3683C99.0201 12.4281 98.9557 12.488 98.882 12.5341C98.2141 12.967 97.5693 13.4368 96.9015 13.8651C96.7864 13.9342 96.6574 14.0263 96.6942 14.1783C96.6712 14.2612 96.7127 14.3303 96.8002 14.3073C98.2464 14.2981 99.688 14.3165 101.134 14.2935C103.285 14.2935 105.431 14.2981 107.582 14.2935L107.615 14.2796C107.711 14.3027 107.808 14.2935 107.909 14.2935C111.806 14.2935 115.702 14.2981 119.603 14.2935C120.828 14.2981 122.058 14.2935 123.288 14.2935C125.314 14.2935 127.345 14.3119 129.372 14.3027C129.432 14.2889 129.45 14.2474 129.427 14.1737C129.423 14.1 129.45 13.9987 129.372 13.9526C129.05 13.8006 128.773 13.5658 128.465 13.3815C128.354 13.2894 128.211 13.2387 128.128 13.1144C127.811 12.9348 127.516 12.7137 127.203 12.5156C127.143 12.4788 127.097 12.4189 127.046 12.3683C127.074 12.2715 127.083 12.1656 127.083 12.0643C127.078 11.4794 127.083 10.8944 127.078 10.3095C127.092 10.2174 127.087 10.1114 127.005 10.0516C126.452 9.85352 125.904 9.64166 125.356 9.43901C125.185 9.3561 124.996 9.31005 124.812 9.28241H101.272C101.171 9.28702 101.074 9.33768 100.973 9.36071Z" fill="#F8F3B5" stroke="#F8F3B5" stroke-width="0.0043294"/>
<path d="M99.0516 10.3096C99.4569 10.48 99.8897 10.5767 100.3 10.7425C100.521 10.83 100.59 11.0695 100.687 11.263C100.59 11.3597 100.475 11.438 100.36 11.5117C99.9358 11.7972 99.5028 12.0736 99.0837 12.3683C99.0331 12.244 99.0516 12.1058 99.0469 11.9676C99.0516 11.4149 99.047 10.8623 99.0516 10.3096ZM125.834 10.7425C126.244 10.5813 126.672 10.4708 127.082 10.3096C127.087 10.8945 127.082 11.4794 127.087 12.0644C127.087 12.1657 127.078 12.2716 127.05 12.3683C126.691 12.1196 126.327 11.8847 125.968 11.6406C125.793 11.5117 125.599 11.4149 125.442 11.2584C125.539 11.0649 125.613 10.83 125.834 10.7425Z" fill="#F7B402" stroke="#F7B402" stroke-width="0.0043294"/>
<path d="M106.08 10.9317C106.586 10.812 107.153 11.2633 107.111 11.793C107.116 12.3134 106.568 12.7372 106.066 12.6174C105.863 12.5483 105.67 12.4424 105.545 12.2628C105.384 12.0187 105.347 11.6917 105.476 11.4245C105.568 11.1666 105.817 10.9916 106.08 10.9317ZM119.22 11.2219C119.432 10.987 119.768 10.8534 120.081 10.9363C120.316 11.0054 120.546 11.1574 120.648 11.3877C120.85 11.7838 120.694 12.318 120.298 12.5253C119.947 12.7187 119.505 12.6266 119.238 12.3457C118.967 12.0371 118.948 11.5305 119.22 11.2219Z" fill="#BDA727" stroke="#BDA727" stroke-width="0.0043294"/>
<path d="M100.357 11.5116C100.473 11.4379 100.588 11.3596 100.685 11.2629L100.717 11.2951C100.749 11.5346 100.726 11.7787 100.735 12.0182C100.721 12.7367 100.749 13.4598 100.717 14.1783C99.3764 14.1783 98.0362 14.1691 96.6959 14.1783C96.659 14.0264 96.788 13.9342 96.9031 13.8652C97.571 13.4368 98.2158 12.967 98.8836 12.5341C98.9574 12.488 99.0218 12.4282 99.0816 12.3683C99.5008 12.0735 99.9337 11.7972 100.357 11.5116ZM125.394 11.4195C125.394 11.3596 125.408 11.309 125.44 11.2583C125.597 11.4149 125.79 11.5116 125.965 11.6406C126.325 11.8847 126.688 12.1196 127.048 12.3683C127.098 12.4189 127.144 12.4788 127.204 12.5157C127.517 12.7137 127.812 12.9348 128.13 13.1144C128.213 13.2388 128.356 13.2894 128.466 13.3815C128.775 13.5658 129.051 13.8007 129.374 13.9527C129.452 13.9987 129.424 14.1 129.429 14.1737C128.088 14.1783 126.753 14.1691 125.413 14.1783C125.39 13.9941 125.403 13.8099 125.399 13.6303C125.399 12.8933 125.39 12.1564 125.394 11.4195Z" fill="#F7E62D" stroke="#F7E62D" stroke-width="0.0043294"/>
<path d="M129.429 14.174C128.089 14.1786 126.753 14.1694 125.413 14.1786C125.39 13.9944 125.404 13.8102 125.399 13.6305C125.399 12.8936 125.39 12.1567 125.394 11.4198C125.394 11.3599 125.408 11.3092 125.44 11.2586C125.537 11.0651 125.611 10.8302 125.832 10.7427C126.242 10.5815 126.67 10.471 127.08 10.3098C127.094 10.2177 127.089 10.1117 127.006 10.0519C126.454 9.85383 125.906 9.64196 125.357 9.43931C125.187 9.35641 124.998 9.31035 124.814 9.28271H101.274C101.173 9.28732 101.076 9.33798 100.975 9.36101C100.385 9.58669 99.7909 9.80316 99.2013 10.0288C99.123 10.0427 99.0815 10.1117 99.0401 10.1716C99.0448 10.2085 99.0494 10.2729 99.0494 10.3098C99.4547 10.4802 99.8875 10.5769 100.298 10.7427C100.519 10.8302 100.588 11.0697 100.684 11.2632L100.717 11.2954C100.749 11.5349 100.726 11.779 100.735 12.0185C100.721 12.737 100.749 13.4601 100.717 14.1786C99.3763 14.1786 98.0361 14.1694 96.6957 14.1786C96.6727 14.2615 96.7142 14.3306 96.8017 14.3076C98.2479 14.2984 99.6895 14.3168 101.136 14.2938C103.287 14.2938 105.433 14.2984 107.584 14.2938L107.616 14.2799C107.713 14.303 107.809 14.2938 107.911 14.2938C111.807 14.2938 115.704 14.2984 119.605 14.2938C120.83 14.2984 122.06 14.2938 123.289 14.2938C125.316 14.2938 127.347 14.3122 129.373 14.303C129.434 14.2892 129.452 14.2477 129.429 14.174ZM105.474 11.4244C105.567 11.1665 105.815 10.9914 106.078 10.9316C106.584 10.8118 107.151 11.2632 107.109 11.7928C107.114 12.3133 106.566 12.737 106.064 12.6173C105.861 12.5482 105.668 12.4423 105.544 12.2626C105.382 12.0185 105.345 11.6915 105.474 11.4244ZM119.218 11.2217C119.43 10.9868 119.766 10.8533 120.079 10.9362C120.314 11.0053 120.544 11.1573 120.646 11.3875C120.848 11.7836 120.692 12.3179 120.296 12.5252C119.946 12.7186 119.504 12.6265 119.236 12.3455C118.965 12.0369 118.946 11.5303 119.218 11.2217Z" fill="url(#paint1_radial_2221_98931)" stroke="#FCD109" stroke-width="0.0043294"/>
<path d="M120.393 16.1981C120.457 16.2119 120.057 15.8137 120.135 15.7952C120.209 15.8045 120.488 15.5876 120.826 15.7645C121.164 15.9415 121.08 16.3556 121.042 16.5091C120.996 16.6919 120.88 16.8085 120.788 16.9006C120.737 16.9421 120.623 17.0066 120.554 17.002C120.596 16.7763 120.462 16.7394 120.453 16.5091L120.393 16.1981Z" fill="url(#paint2_linear_2221_98931)" stroke="#FCD109" stroke-width="0.0043294"/>
<path d="M105.67 16.4476C105.66 16.6779 105.527 16.7148 105.568 16.9405C105.499 16.9451 105.386 16.8806 105.335 16.8391C105.243 16.747 105.127 16.6304 105.081 16.4476C105.043 16.2941 104.959 15.88 105.297 15.703C105.634 15.526 105.914 15.7429 105.987 15.7338C106.066 15.7522 105.666 16.1504 105.73 16.1366L105.67 16.4476Z" fill="url(#paint3_linear_2221_98931)" stroke="#FCD109" stroke-width="0.0043294"/>
<path d="M119.788 19.1485C119.857 19.0884 119.903 19.0884 119.995 19.0884C119.442 20.2859 118.798 21.4834 117.828 22.4157C117.724 22.5083 117.615 22.5941 117.5 22.6726C117.389 22.7538 117.28 22.83 117.172 22.9076C117.066 22.9812 116.961 23.0551 116.858 23.1323C116.596 23.275 116.366 23.4731 116.075 23.5606C115.546 23.8139 114.975 23.9843 114.399 24.1041C114.173 24.141 113.943 24.1962 113.713 24.2008C113.427 24.2837 113.123 24.2238 112.833 24.2423C112.672 24.2699 112.529 24.1778 112.373 24.1962C112.237 24.177 112.101 24.154 111.966 24.1271C111.83 24.0991 111.694 24.0669 111.559 24.0304C109.448 23.3717 107.375 21.7597 106.771 19.5796C106.744 19.4328 106.731 19.2838 106.73 19.1344C106.795 19.2634 106.862 19.3914 106.931 19.5183C107.79 21.3913 109.494 22.8651 111.507 23.3095C111.671 23.384 111.847 23.3579 112.004 23.4224C112.147 23.4224 112.285 23.4178 112.423 23.4638C112.898 23.473 113.372 23.4684 113.846 23.4684C113.911 23.473 113.971 23.4408 114.035 23.427C114.826 23.4002 115.601 23.1845 116.322 22.8575C116.466 22.7921 116.608 22.7223 116.748 22.6486C116.87 22.5842 116.99 22.5145 117.106 22.4396C117.22 22.366 117.331 22.2877 117.438 22.2049C118.291 21.5294 119.028 20.6543 119.528 19.648C119.623 19.4669 119.711 19.2992 119.788 19.1485Z" fill="#BDA727" stroke="#BDA727" stroke-width="0.0043294"/>
<path d="M119.042 23.2427C120.409 22.4413 121.994 22.0544 123.569 21.9807C124.08 21.9347 124.596 21.9485 125.103 22.013C125.434 22.0913 125.775 22.1834 126.038 22.4091C125.904 22.4183 125.775 22.3584 125.642 22.34C125.264 22.2663 124.873 22.2939 124.49 22.2847C123.38 22.2847 122.261 22.3722 121.188 22.6762C120.626 22.8466 120.064 23.0447 119.553 23.3394C118.669 23.8276 117.872 24.4724 117.227 25.2462C116.076 26.5681 115.399 28.2445 115.071 29.9533C114.915 30.8698 114.735 31.7817 114.592 32.7028C114.362 32.7258 114.127 32.7121 113.897 32.7121C112.884 32.7075 111.871 32.7028 110.857 32.6937C110.641 32.7028 110.429 32.6523 110.212 32.666C108.37 32.6752 106.528 32.6614 104.686 32.6614L104.722 32.6475C106.09 32.5047 107.463 32.3435 108.831 32.21C110.567 32.2008 112.299 32.2053 114.035 32.21C114.09 32.2008 114.187 32.2283 114.196 32.1501C114.339 31.404 114.477 30.6579 114.62 29.9117C114.818 28.8755 115.131 27.853 115.615 26.9088C116.375 25.3889 117.577 24.0993 119.042 23.2427Z" fill="#0D69B3" stroke="#0D69B3" stroke-width="0.0043294"/>
<path d="M121.187 22.6762C122.26 22.3722 123.379 22.2847 124.489 22.2847C124.871 22.2939 125.263 22.2662 125.64 22.3399C125.774 22.3584 125.903 22.4182 126.037 22.409C126.253 22.584 126.382 22.842 126.479 23.0999C126.691 23.7124 126.81 24.348 126.912 24.9882C126.916 25.2462 126.962 25.5363 126.824 25.7712C126.695 26.0015 126.437 26.112 126.193 26.1811C125.304 26.4114 124.374 26.1949 123.485 26.4114C122.753 26.568 122.071 26.9733 121.606 27.5582C121.058 28.2398 120.768 29.0872 120.606 29.9348C120.482 30.6901 120.325 31.4454 120.201 32.2054C120.146 32.3759 120.114 32.5601 120.081 32.7398C120.952 32.7536 121.822 32.7397 122.693 32.7489C123.024 32.7397 123.356 32.7581 123.688 32.7351C123.872 33.1588 123.83 33.6379 123.771 34.0846C123.697 34.5866 123.577 35.084 123.351 35.5446C123.163 35.936 122.849 36.2953 122.421 36.4335C122.2 36.521 121.96 36.5026 121.726 36.5026C120.952 36.5026 120.178 36.5118 119.404 36.5026C119.28 37.0691 119.197 37.6494 119.087 38.2251C118.884 39.3443 118.686 40.4681 118.483 41.5919C118.479 41.6288 118.474 41.7071 118.474 41.7485V41.7531C116.461 41.7531 114.453 41.7578 112.44 41.7531C112.445 41.7348 112.45 41.7025 112.454 41.6841C112.459 41.661 112.463 41.6104 112.468 41.5828C112.473 41.6197 112.477 41.6888 112.482 41.7209C112.606 41.7348 112.832 41.7992 112.864 41.6197C113.177 39.9247 113.468 38.2206 113.79 36.5256C113.666 36.498 113.537 36.498 113.408 36.521C113.389 36.5855 113.371 36.6499 113.348 36.7144L113.375 36.5072C112.123 36.5025 110.865 36.5072 109.613 36.5025C109.309 36.4934 108.996 36.5025 108.692 36.4657C108.171 36.4426 107.646 36.4611 107.126 36.4103C106.481 36.4103 105.841 36.3505 105.196 36.3505C104.689 36.2999 104.178 36.3182 103.667 36.2952C103.335 36.2538 102.994 36.2722 102.658 36.2584C102.11 36.1985 101.553 36.2401 101.005 36.1801C100.424 36.1848 99.844 36.134 99.2637 36.1202C99.2683 36.1156 99.2729 36.0972 99.2729 36.0926C99.4663 36.0972 99.6552 36.0833 99.8486 36.0787C100.277 36.0235 100.71 36.0603 101.138 36.0005C101.585 36.0005 102.027 35.9406 102.474 35.9406C102.87 35.8853 103.271 35.9175 103.667 35.8623C104.132 35.8623 104.588 35.8024 105.053 35.7978C105.435 35.7472 105.822 35.7748 106.205 35.7241C106.651 35.7287 107.093 35.6597 107.54 35.6642C107.978 35.6135 108.424 35.6273 108.862 35.5813C108.821 35.4109 108.788 35.2405 108.752 35.07C108.719 34.964 108.59 34.9871 108.507 34.9733C107.508 34.8304 106.513 34.6877 105.518 34.5495C105.583 34.4988 105.67 34.5218 105.744 34.5127C106.518 34.4527 107.287 34.3836 108.061 34.3285C108.236 34.3192 108.406 34.2871 108.581 34.2824C108.503 34.0429 108.457 33.7804 108.351 33.5593C106.697 33.306 105.044 33.0803 103.395 32.8086C103.823 32.7395 104.256 32.7072 104.685 32.6612C106.527 32.6612 108.369 32.675 110.212 32.6658C110.428 32.652 110.64 32.7027 110.856 32.6935C111.87 32.7027 112.883 32.7074 113.896 32.7118C114.126 32.7118 114.361 32.7257 114.592 32.7027C114.734 31.7815 114.914 30.8695 115.071 29.9531C115.398 28.2443 116.075 26.5679 117.226 25.2461C117.871 24.4723 118.668 23.8275 119.552 23.3392C120.063 23.0446 120.625 22.8466 121.187 22.6762Z" fill="#107BD4" stroke="#107BD4" stroke-width="0.0043294"/>
<path d="M120.2 32.2056C121.075 32.2103 121.955 32.201 122.834 32.2103C123.184 32.2103 123.544 32.4037 123.686 32.7352C123.355 32.7583 123.023 32.7399 122.692 32.7491C121.821 32.7399 120.95 32.7538 120.08 32.7399C120.112 32.5603 120.144 32.376 120.2 32.2056ZM113.406 36.5212C113.535 36.4982 113.664 36.4982 113.789 36.5258C113.466 38.2208 113.176 39.9249 112.863 41.6198C112.831 41.7994 112.605 41.735 112.481 41.7211C112.476 41.6889 112.471 41.6198 112.467 41.5829C112.757 39.9618 113.038 38.3359 113.346 36.7147C113.37 36.6501 113.388 36.5857 113.406 36.5212Z" fill="#0D69B3" stroke="#0D69B3" stroke-width="0.0043294"/>
<path d="M120.602 16.3269C120.565 16.2579 120.561 16.1749 120.561 16.0966L120.524 16.1013C120.469 15.8986 120.298 15.7052 120.077 15.6959C119.911 15.6821 119.704 15.6867 119.607 15.8433C119.423 16.092 119.511 16.4098 119.502 16.6908C119.502 16.7092 119.506 16.7415 119.506 16.7599C119.506 16.9487 119.483 17.1329 119.451 17.3172C119.423 17.3724 119.409 17.4323 119.409 17.4968C119.331 17.9297 119.175 18.3581 118.963 18.7496C118.921 18.8048 118.889 18.8647 118.875 18.9292C118.737 19.1687 118.571 19.3898 118.401 19.6108C118.373 19.6339 118.35 19.6615 118.327 19.6891C118.207 19.8365 118.078 19.9609 117.945 20.0898C117.913 20.1083 117.89 20.1313 117.862 20.1497C117.705 20.3017 117.53 20.4445 117.341 20.5596C117.318 20.5734 117.295 20.5919 117.268 20.6103C116.089 21.3886 114.656 21.711 113.261 21.7249C112.077 21.7617 110.884 21.5084 109.816 20.9972C109.797 20.9879 109.751 20.9695 109.733 20.9603C109.553 20.8636 109.369 20.7807 109.203 20.6609C109.166 20.6425 109.129 20.6195 109.088 20.6011C108.917 20.4997 108.756 20.3892 108.604 20.2602C108.554 20.2142 108.498 20.1773 108.443 20.1359C108.277 20.0023 108.107 19.8595 107.964 19.6983C107.927 19.6569 107.89 19.62 107.854 19.5832C107.352 19.0627 106.96 18.4272 106.753 17.7363C106.555 17.1882 106.583 16.5895 106.56 16.0137C106.394 15.7604 106.044 15.6177 105.767 15.7742C105.652 15.8572 105.638 16.0091 105.551 16.1151C105.408 17.635 106.057 19.1503 107.094 20.2464C107.094 20.2833 107.112 20.3063 107.145 20.3201C107.329 20.4905 107.508 20.6655 107.693 20.8314C107.725 20.8636 107.762 20.8958 107.803 20.9235C107.987 21.0755 108.185 21.2136 108.379 21.3564C108.416 21.384 108.452 21.4071 108.494 21.4301C108.747 21.5775 108.987 21.7525 109.258 21.8538C109.277 21.8676 109.309 21.8907 109.328 21.8999C110.203 22.319 111.147 22.6046 112.114 22.6967C112.22 22.6967 112.326 22.7059 112.432 22.7289C112.892 22.7566 113.353 22.7427 113.814 22.7335C115.237 22.6092 116.706 22.2637 117.894 21.4255L117.908 21.4439C117.945 21.4117 117.977 21.384 118.014 21.3564C118.203 21.2182 118.387 21.0709 118.571 20.9189C118.613 20.8866 118.659 20.8498 118.7 20.8083C118.903 20.5872 119.138 20.3846 119.308 20.1313L119.336 20.1451C119.35 20.1221 119.373 20.076 119.387 20.053C119.543 19.8411 119.686 19.62 119.824 19.399C119.833 19.3851 119.856 19.3621 119.866 19.3483L119.847 19.3299C119.861 19.3115 119.893 19.2746 119.907 19.2562C120.16 18.7403 120.386 18.2015 120.464 17.6304C120.497 17.6165 120.515 17.5889 120.515 17.5567C120.52 17.3724 120.584 17.1974 120.566 17.0132C120.607 16.7875 120.611 16.5572 120.602 16.3269Z" fill="white" stroke="white" stroke-width="0.0043294"/>
<mask id="mask0_2221_98931" style="mask-type:luminance" maskUnits="userSpaceOnUse" x="105" y="15" width="16" height="8">
<path d="M120.61 16.3269C120.573 16.2579 120.569 16.1749 120.569 16.0966L120.532 16.1013C120.477 15.8986 120.306 15.7052 120.085 15.6959C119.919 15.6821 119.712 15.6867 119.615 15.8433C119.431 16.092 119.518 16.4098 119.509 16.6908C119.509 16.7092 119.514 16.7415 119.514 16.7599C119.514 16.9487 119.491 17.1329 119.459 17.3172C119.431 17.3724 119.417 17.4323 119.417 17.4968C119.339 17.9297 119.182 18.3581 118.971 18.7496C118.929 18.8048 118.897 18.8647 118.883 18.9292C118.745 19.1687 118.579 19.3898 118.409 19.6108C118.381 19.6339 118.358 19.6615 118.335 19.6891C118.215 19.8365 118.086 19.9609 117.953 20.0898C117.92 20.1083 117.897 20.1313 117.87 20.1497C117.713 20.3017 117.538 20.4445 117.349 20.5596C117.326 20.5734 117.303 20.5919 117.276 20.6103C116.096 21.3886 114.664 21.711 113.269 21.7249C112.085 21.7617 110.892 21.5084 109.823 20.9972C109.805 20.9879 109.759 20.9695 109.74 20.9603C109.561 20.8636 109.377 20.7807 109.211 20.6609C109.174 20.6425 109.137 20.6195 109.096 20.6011C108.925 20.4997 108.764 20.3892 108.612 20.2602C108.561 20.2142 108.506 20.1773 108.451 20.1359C108.285 20.0023 108.115 19.8595 107.972 19.6983C107.935 19.6569 107.898 19.62 107.861 19.5832C107.36 19.0627 106.968 18.4272 106.761 17.7363C106.563 17.1882 106.59 16.5895 106.567 16.0137C106.401 15.7604 106.051 15.6177 105.775 15.7742C105.66 15.8572 105.646 16.0091 105.559 16.1151C105.416 17.635 106.065 19.1503 107.102 20.2464C107.102 20.2833 107.12 20.3063 107.152 20.3201C107.337 20.4905 107.516 20.6655 107.7 20.8314C107.733 20.8636 107.769 20.8958 107.811 20.9235C107.995 21.0755 108.193 21.2136 108.387 21.3564C108.423 21.384 108.46 21.4071 108.502 21.4301C108.755 21.5775 108.994 21.7525 109.266 21.8538C109.285 21.8676 109.317 21.8907 109.335 21.8999C110.21 22.319 111.155 22.6046 112.122 22.6967C112.228 22.6967 112.334 22.7059 112.44 22.7289C112.9 22.7566 113.361 22.7427 113.821 22.7335C115.244 22.6092 116.714 22.2637 117.902 21.4255L117.916 21.4439C117.953 21.4117 117.985 21.384 118.022 21.3564C118.211 21.2182 118.395 21.0709 118.579 20.9189C118.621 20.8866 118.667 20.8498 118.708 20.8083C118.911 20.5872 119.146 20.3846 119.316 20.1313L119.344 20.1451C119.358 20.1221 119.381 20.076 119.395 20.053C119.551 19.8411 119.694 19.62 119.832 19.399C119.841 19.3851 119.864 19.3621 119.873 19.3483L119.855 19.3299C119.869 19.3115 119.901 19.2746 119.915 19.2562C120.168 18.7403 120.394 18.2015 120.472 17.6304C120.504 17.6165 120.523 17.5889 120.523 17.5567C120.528 17.3724 120.592 17.1974 120.574 17.0132C120.615 16.7875 120.619 16.5572 120.61 16.3269Z" fill="white"/>
</mask>
<g mask="url(#mask0_2221_98931)">
<path d="M105.201 16.1714C105.575 16.2885 106.432 15.9938 106.675 16.2635M105.416 17.3074C105.774 17.1829 106.541 16.8882 106.859 17.0618M105.785 18.4435C105.958 18.4995 106.298 18.1957 106.468 18.1067C106.72 17.9742 106.978 17.8726 107.258 17.8295M106.337 19.641C106.516 19.3875 106.729 19.177 106.987 18.9969C107.242 18.8185 107.941 18.3417 108.241 18.5049M106.859 20.5008C107.062 20.3398 107.144 20.0551 107.357 19.886C107.614 19.6814 108.008 19.6447 108.272 19.5182M107.727 21.1378C107.787 20.6926 108.239 20.1552 108.671 20.1937M108.394 21.7597C108.622 21.7368 108.815 21.2265 108.969 21.0536C109.201 20.7945 109.44 20.7148 109.745 20.6236M109.715 22.3124C109.7 21.9901 110.033 21.0663 110.421 21.1149M110.697 22.6194C110.681 22.2386 110.878 21.0932 111.342 21.0535M111.711 23.2335C111.623 22.701 111.628 21.9306 112.048 21.5447M112.97 23.3563C112.923 22.9124 112.482 22.0151 112.97 21.6676M114.32 23.0493C114.11 22.8051 113.988 21.8421 114.075 21.5754M115.61 22.8343C115.448 22.5394 115.246 22.2625 115.185 21.9201C115.148 21.7155 115.213 21.4241 115.18 21.2684M116.685 22.3738C116.333 22.1433 116.235 21.2964 116.347 20.9306M117.729 21.9132C117.478 21.3756 117.211 20.9589 117.207 20.3472M118.742 20.9306C118.353 20.6687 117.856 20.1926 117.913 19.6717M119.817 20.1016C119.225 19.9705 118.515 19.4412 118.159 18.9655M120.308 19.0883C119.881 18.9968 118.471 18.4467 118.558 17.8908M120.769 18.0137C120.174 17.7957 119.309 17.5997 118.834 17.1846M121.076 17.0311C120.701 17.0631 120.164 16.8818 119.784 16.8161C119.361 16.7432 118.969 16.6008 118.558 16.5091M120.707 16.0793C119.985 16.1225 119.307 15.8753 118.65 15.6494" stroke="#D1D1D1" stroke-width="0.0921149"/>
</g>
<path d="M28.2634 18.2938C28.9309 18.193 29.699 18.1301 30.2656 18.5456C30.6182 18.81 30.7441 19.2885 30.7189 19.7167C30.7441 20.4219 30.4168 21.1774 29.7872 21.5427C29.2331 21.8449 28.5658 21.87 27.9486 21.807C27.5331 21.7567 27.1176 21.5301 26.9035 21.1523C26.4249 20.0568 27.0167 18.5079 28.2634 18.2938ZM8.29154 19.0871C8.32927 18.7093 8.66931 18.3693 9.05964 18.382C11.9686 18.382 14.8649 18.3945 17.7612 18.382C18.076 18.3568 18.4161 18.4952 18.5671 18.7723C18.7811 19.1501 18.5923 19.5656 18.5671 19.956C18.479 20.4848 18.5041 21.1901 17.8872 21.3915C15.7716 21.4545 13.656 21.3915 11.5404 21.4167C11.3389 22.7514 11.1501 24.0737 10.9485 25.3959C10.9485 25.4463 10.9612 25.5597 10.9612 25.6099C12.51 25.5974 14.0589 25.6099 15.6078 25.5974C16.036 25.5722 16.4892 25.9375 16.4515 26.3907C16.4137 26.8567 16.313 27.31 16.25 27.7759C16.1996 28.0907 15.9478 28.3804 15.6203 28.4433C13.8951 28.4811 12.1447 28.4055 10.4197 28.4811C10.1425 30.3826 9.81512 32.2839 9.52547 34.1855C9.48779 34.5633 9.18547 34.8907 8.80771 34.9032C8.09001 34.9159 7.37214 34.9159 6.65444 34.9032C6.18852 34.9159 5.81071 34.3994 5.93658 33.9587C6.70496 28.9975 7.49825 24.0487 8.29154 19.0871ZM21.0856 18.407C21.7405 18.3567 22.4078 18.3945 23.0627 18.382C23.4657 18.3568 23.8686 18.6715 23.9063 19.0871C23.9063 19.4144 23.8182 19.7419 23.7804 20.0693C23.2515 23.4441 22.7101 26.819 22.1811 30.1938C22.1056 30.7353 21.9671 31.3145 22.1308 31.8686C22.3197 32.4226 23.1633 32.1834 23.3648 32.7626C23.4907 33.2285 23.3521 33.7196 23.3144 34.1982C23.2767 34.8278 22.5589 34.9662 22.0678 35.105C20.9975 35.3064 19.7003 35.1553 18.9322 34.2737C18.3781 33.6316 18.3403 32.7248 18.4538 31.919C19.1211 27.6375 19.7885 23.3561 20.4686 19.0619C20.5064 18.7471 20.7582 18.4575 21.0856 18.407ZM46.0819 19.0871C46.1196 18.7093 46.4597 18.382 46.8374 18.382H48.7515C49.23 18.3693 49.6205 18.8857 49.5071 19.3389C49.0664 22.1345 48.6131 24.9301 48.1724 27.7255C48.8397 27.6248 49.5953 27.4989 50.0613 26.9575C50.8419 26.0759 51.4842 25.0561 51.9627 23.9857C52.1263 23.5701 52.2145 22.9657 52.756 22.8901C53.4738 22.8649 54.2041 22.8775 54.9219 22.8901C55.4131 22.8775 55.7782 23.4315 55.6145 23.8848C55.4257 24.5524 55.1109 25.1693 54.7835 25.7612C54.0531 26.9449 53.2472 28.116 52.1893 29.0478C52.6553 30.4456 53.2472 31.8056 53.7634 33.1782C53.9145 33.6315 54.2798 34.1604 53.9398 34.6012C53.5493 35.1301 52.8189 34.8655 52.2775 34.9285C51.7108 34.8655 50.8923 35.1552 50.5775 34.513C49.9856 33.1403 49.4946 31.7301 48.89 30.3575C48.5374 30.3699 48.1723 30.3827 47.8196 30.3449C47.7946 30.3953 47.7442 30.4959 47.7189 30.5464C47.53 31.8056 47.3286 33.0649 47.127 34.3241C47.0515 34.6263 46.8122 34.8908 46.4849 34.916C45.8175 34.9412 45.1374 34.9285 44.4575 34.9285C44.1678 34.9285 43.9034 34.7396 43.7774 34.4878C43.6515 34.2358 43.727 33.9463 43.7649 33.6693C44.5456 28.8085 45.3137 23.9478 46.0819 19.0871ZM81.0767 20.4597C81.1649 20.107 81.5048 19.8678 81.8575 19.8804C82.3612 19.893 82.8775 19.8678 83.3937 19.893C83.8093 19.9056 84.1367 20.3211 84.0863 20.7241C84.0107 21.4419 83.8344 22.1597 83.7841 22.8774C84.2752 22.8774 84.7788 22.8648 85.27 22.8774C85.7108 22.8774 86.076 23.3308 86.0004 23.7588C85.9374 24.1493 85.8492 24.5271 85.7863 24.9173C85.7233 25.2449 85.4464 25.5093 85.1316 25.5596C84.527 25.5974 83.9353 25.5344 83.3434 25.5974C83.0915 27.2847 82.8145 28.9721 82.55 30.6596C82.5122 31.05 82.4871 31.4907 82.7137 31.8307C83.0538 32.2463 83.6455 32.0951 84.1241 32.1455C84.5019 32.2588 84.7411 32.6745 84.6781 33.0523C84.6152 33.4803 84.6026 33.9085 84.5019 34.324C84.3508 34.7899 83.8093 34.8781 83.3937 34.9914C82.2478 35.2937 80.9255 35.2937 79.9056 34.6262C78.9612 33.984 78.81 32.7373 78.9108 31.6795C79.1751 29.6395 79.5908 27.6122 79.8174 25.5596C79.4649 25.5721 79.0367 25.6225 78.7723 25.3077C78.4701 24.9929 78.6212 24.527 78.6715 24.1365C78.7472 23.721 78.7345 23.1795 79.1879 22.9528C79.553 22.8142 79.9687 22.9151 80.359 22.8647C80.5982 22.0589 80.8249 21.253 81.0767 20.4597ZM73.9619 24.5396C74.7552 23.7463 75.7122 23.0915 76.8078 22.7642C77.2863 22.55 77.9033 22.953 77.8908 23.4819C77.8027 24.1745 77.6389 24.8544 77.5256 25.5344C77.4751 25.8745 77.1855 26.1641 76.8455 26.2019C75.6114 26.4159 74.5411 27.1587 73.6848 28.0403C73.4708 28.3049 73.1559 28.5567 73.1182 28.9218C72.8538 30.6847 72.5767 32.4477 72.2997 34.2107C72.262 34.5884 71.9344 34.9537 71.5441 34.9285H69.63C69.1893 34.9537 68.7989 34.513 68.8493 34.0722C69.4034 30.584 69.9575 27.1086 70.4989 23.6203C70.5241 23.2678 70.776 22.9278 71.1411 22.89C71.6071 22.8648 72.0729 22.8774 72.5515 22.8774C72.9293 22.8774 73.2818 23.2174 73.2818 23.6078C73.2818 24.1492 73.2315 24.7033 73.2189 25.2573C73.5212 25.0686 73.71 24.7663 73.9619 24.5396ZM26.8908 22.9404C27.5708 22.8019 28.276 22.9153 28.9559 22.8774C29.3464 22.8271 29.7619 23.0789 29.8248 23.4693C29.8753 23.8219 29.7744 24.1619 29.7366 24.5019C29.2204 27.7383 28.704 30.9745 28.2003 34.2108C28.1626 34.5761 27.8605 34.9412 27.47 34.9286C26.7901 34.9286 26.11 34.9412 25.4175 34.9161C24.9893 34.8656 24.6745 34.3746 24.7878 33.959C25.3293 30.5969 25.8457 27.2472 26.3871 23.8849C26.4123 23.5197 26.5131 23.0915 26.8908 22.9404ZM67.6404 23.1042C65.764 22.7515 63.8501 22.4996 61.9485 22.6885C60.2485 22.9027 58.5359 23.6708 57.4908 25.0686C56.0426 26.9071 55.5515 29.3753 55.8788 31.6672C56.0552 32.7627 56.5337 33.8709 57.4278 34.5508C58.2589 35.1931 59.3796 35.2811 60.3871 35.1174C61.7973 34.8404 62.9936 33.9339 63.9759 32.9264C64.0262 33.3545 63.9255 33.7827 63.9507 34.1983C63.9759 34.5885 64.3285 34.9537 64.7188 34.9285H66.0034C66.3812 34.9285 66.696 34.5761 66.7212 34.2108C67.2626 30.7982 67.8041 27.3981 68.333 23.9982C68.4085 23.57 68.0686 23.1545 67.6404 23.1042ZM64.102 29.0352C63.5982 29.9797 62.8929 30.836 62.0996 31.5662C61.6464 31.944 61.067 32.3345 60.4501 32.2086C59.8456 32.0827 59.556 31.4531 59.4175 30.9115C59.1027 29.5012 59.3923 27.9648 60.1856 26.7434C60.5382 26.1766 61.1048 25.7486 61.7597 25.5722C62.6789 25.3455 63.6486 25.4589 64.5427 25.7107L64.593 25.7612C64.4797 26.8567 64.2656 27.9397 64.102 29.0352ZM42.9212 27.1464C42.9085 25.8871 42.5686 24.5649 41.6871 23.6204C41.0827 22.953 40.176 22.613 39.2946 22.6255C37.8337 22.5753 36.4612 23.2931 35.3909 24.25C35.1515 24.439 34.9879 24.716 34.7235 24.8671C34.7235 24.4514 34.7612 24.0359 34.7485 23.6078C34.7612 23.2174 34.396 22.8774 34.0182 22.8774H32.7337C32.3309 22.8774 32.0034 23.2301 31.9782 23.6204C31.1849 28.6574 30.379 33.6945 29.5856 38.7315C29.4724 39.1974 29.8754 39.676 30.3539 39.6634C31.059 39.6508 31.7768 39.7137 32.4694 39.6129C33.0235 39.4618 33.0108 38.8195 33.099 38.3537C33.3005 37.2455 33.4391 36.1373 33.565 35.0166C36.0457 35.4951 38.9294 35.1678 40.7805 33.2914C42.2916 31.6419 42.9967 29.3626 42.9212 27.1464ZM39.3953 28.4182C39.3198 29.5767 38.9042 30.7478 38.0983 31.5914C37.0532 32.5864 35.4664 32.4477 34.1819 32.1079C34.1569 32.07 34.119 31.9944 34.1064 31.9568C34.3079 30.8612 34.4086 29.753 34.6605 28.6701C35.3657 27.5116 36.2219 26.3404 37.4434 25.6982C37.8968 25.4842 38.5138 25.5346 38.8412 25.9501C39.3953 26.6427 39.4457 27.5745 39.3953 28.4182Z" fill="white" stroke="white" stroke-width="0.0046518"/>
</g>
<g clip-path="url(#clip1_2221_98931)">
<path d="M123.323 53.0881C123.673 53.0881 123.96 52.9064 123.999 52.6717L124.345 48.7697C124.345 48.384 123.892 48.0674 123.324 48.0674C122.756 48.0674 122.304 48.384 122.304 48.7697L122.649 52.6717C122.687 52.9064 122.975 53.0881 123.324 53.0881H123.323ZM121.212 54.3069C121.388 54.0046 121.374 53.6649 121.19 53.514L117.98 51.2642C117.646 51.0711 117.146 51.3035 116.862 51.7956C116.577 52.2871 116.627 52.8361 116.96 53.0292L120.514 54.6828C120.736 54.7651 121.039 54.6067 121.213 54.3046L121.212 54.3069ZM125.435 54.3048C125.61 54.6069 125.912 54.7653 126.134 54.683L129.688 53.0295C130.023 52.8363 130.071 52.2873 129.789 51.7958C129.503 51.3042 129.002 51.0713 128.669 51.2644L125.459 53.5142C125.276 53.6649 125.262 54.0049 125.436 54.3071L125.435 54.3048ZM123.323 57.9624C123.673 57.9624 123.96 58.1425 123.999 58.3775L124.345 62.2789C124.345 62.6658 123.892 62.9817 123.324 62.9817C122.756 62.9817 122.304 62.6658 122.304 62.2789L122.649 58.3775C122.687 58.1425 122.975 57.9624 123.324 57.9624H123.323ZM125.435 56.7433C125.61 56.4404 125.912 56.2833 126.134 56.3666L129.688 58.019C130.023 58.2123 130.071 58.7618 129.789 59.2537C129.503 59.7438 129.002 59.9773 128.669 59.7845L125.459 57.5368C125.276 57.3849 125.262 57.0447 125.436 56.7427H125.435M121.212 56.7429C121.388 57.0447 121.374 57.3849 121.19 57.5371L117.98 59.7847C117.646 59.9775 117.146 59.744 116.862 59.254C116.577 58.762 116.627 58.2126 116.96 58.0192L120.514 56.3668C120.736 56.2835 121.039 56.4406 121.213 56.7436H121.212" fill="#FDBB30"/>
<path d="M103.076 57.5296C103.076 57.6493 103.066 57.7728 103.033 57.8813C102.897 58.3318 102.43 58.7127 101.846 58.7127C101.359 58.7127 100.972 58.4364 100.972 57.8526C100.972 56.9592 101.956 56.7125 103.077 56.7187L103.076 57.5295V57.5296ZM104.834 55.9727C104.834 54.4995 104.204 53.2033 102.075 53.2033C100.982 53.2033 100.115 53.5099 99.6418 53.7832L99.9885 54.9676C100.421 54.6947 101.111 54.4688 101.763 54.4688C102.843 54.4658 103.02 55.0797 103.02 55.4726V55.5656C100.666 55.5622 99.1782 56.3765 99.1782 58.0353C99.1782 59.0489 99.9359 59.9983 101.253 59.9983C102.063 59.9983 102.74 59.6755 103.146 59.1579H103.186C103.186 59.1579 103.455 60.2816 104.937 59.8517C104.859 59.3843 104.834 58.8855 104.834 58.2856L104.834 55.9727M68.1621 51.1971C68.1621 51.1971 69.7001 57.4942 69.9457 58.5161C70.2322 59.709 70.7486 60.1482 72.2366 59.8517L73.1968 55.9477C73.4404 54.9775 73.6033 54.2858 73.7602 53.2999H73.7875C73.8977 54.2963 74.054 54.9805 74.2543 55.9509C74.2543 55.9509 74.6451 57.7233 74.8455 58.654C75.0462 59.5843 75.6047 60.1711 77.0623 59.8517L79.3507 51.1968H77.5036L76.7221 54.9389C76.5119 56.0277 76.3214 56.8794 76.1744 57.8753H76.1483C76.0147 56.8882 75.8447 56.0712 75.6313 55.0101L74.8182 51.1968H72.8934L72.0232 54.914C71.7769 56.0438 71.546 56.9558 71.3996 57.9185H71.373C71.2228 57.012 71.0229 55.8653 70.8065 54.7722C70.8065 54.7722 70.2898 52.1133 70.1081 51.1968L68.1621 51.1971ZM82.8445 57.5296C82.8445 57.6493 82.8338 57.7728 82.8005 57.8813C82.6646 58.3318 82.1975 58.7127 81.6135 58.7127C81.1265 58.7127 80.7403 58.4364 80.7403 57.8526C80.7403 56.9592 81.7242 56.7125 82.8447 56.7187L82.8445 57.5295V57.5296ZM84.6014 55.9727C84.6014 54.4995 83.9714 53.2033 81.8432 53.2033C80.7502 53.2033 79.8823 53.5099 79.4093 53.7832L79.7555 54.9676C80.1881 54.6947 80.8775 54.4688 81.5302 54.4688C82.6107 54.4658 82.7875 55.0797 82.7875 55.4726V55.5656C80.433 55.5622 78.9459 56.3765 78.9459 58.0353C78.9459 59.0489 79.7032 59.9983 81.0195 59.9983C81.83 59.9983 82.5074 59.6755 82.9136 59.1579H82.9532C82.9532 59.1579 83.2224 60.2816 84.7041 59.8517C84.6266 59.3843 84.6014 58.8855 84.6014 58.2856V55.9727ZM87.5336 58.0145V51.1971H85.7744V59.8519H87.5336V58.0145ZM110.548 51.1971V57.5816C110.548 58.4623 110.714 59.0786 111.068 59.4558C111.378 59.7855 111.889 59.999 112.5 59.999C113.021 59.999 113.532 59.8998 113.773 59.8103L113.751 58.4371C113.571 58.4809 113.365 58.5164 113.083 58.5164C112.483 58.5164 112.283 58.1327 112.283 57.3425V54.8996H113.815V53.2434H112.283V51.1971H110.548ZM106.007 53.3501V59.8519H107.821V56.5229C107.821 56.3429 107.832 56.1861 107.861 56.0427C107.995 55.345 108.529 54.8996 109.295 54.8996C109.505 54.8996 109.656 54.9225 109.819 54.9456V53.2434C109.682 53.2162 109.589 53.2035 109.419 53.2035C108.742 53.2035 107.971 53.6401 107.648 54.5767H107.599V53.3501H106.007ZM88.7654 53.3501V59.8519H90.5335V56.0392C90.5335 55.8603 90.5545 55.6711 90.6165 55.5071C90.7631 55.1232 91.1206 54.6736 91.6912 54.6736C92.405 54.6736 92.7383 55.2763 92.7383 56.1461V59.8515H94.505V55.9923C94.505 55.8216 94.5283 55.6158 94.5788 55.4653C94.7239 55.0284 95.109 54.6732 95.6395 54.6732C96.3628 54.6732 96.71 55.2652 96.71 56.289V59.8512H98.4778V56.0216C98.4778 54.0023 97.4515 53.2029 96.2929 53.2029C95.7802 53.2029 95.3752 53.3312 95.0088 53.5555C94.7012 53.7448 94.4253 54.0131 94.1846 54.3658H94.1585C93.8791 53.6651 93.2217 53.2032 92.3651 53.2032C91.2646 53.2032 90.77 53.7606 90.47 54.2333H90.4437V53.3499H88.7654" fill="white"/>
<path d="M130.58 59.5356H130.606C130.642 59.5356 130.665 59.521 130.665 59.4992C130.665 59.4745 130.643 59.4611 130.61 59.4611C130.599 59.4611 130.587 59.4634 130.58 59.4634V59.5362V59.5355L130.58 59.5356ZM130.576 59.7109H130.482V59.4049C130.503 59.4007 130.553 59.3933 130.616 59.3933C130.686 59.3933 130.717 59.403 130.739 59.4183C130.758 59.4317 130.772 59.4545 130.772 59.4854C130.772 59.5168 130.743 59.5434 130.701 59.555V59.5589C130.736 59.5682 130.755 59.5934 130.764 59.6376C130.774 59.6817 130.78 59.6997 130.786 59.7111H130.679C130.67 59.6997 130.665 59.6727 130.658 59.6456C130.652 59.6147 130.638 59.5991 130.606 59.5991H130.575L130.576 59.7109ZM130.614 59.3052C130.48 59.3052 130.378 59.4151 130.378 59.5551C130.378 59.6916 130.48 59.8029 130.618 59.8029C130.757 59.8052 130.859 59.6917 130.859 59.5529C130.859 59.4148 130.757 59.3052 130.617 59.3052H130.614ZM130.621 59.2222C130.809 59.2222 130.959 59.3702 130.959 59.5528C130.959 59.7377 130.809 59.8859 130.618 59.8859C130.427 59.8859 130.275 59.7375 130.275 59.5529C130.275 59.3702 130.427 59.2222 130.618 59.2222H130.62" fill="#FDBB30"/>
</g>
<defs>
<linearGradient id="paint0_linear_2221_98931" x1="113.07" y1="14.7172" x2="113.07" y2="41.7882" gradientUnits="userSpaceOnUse">
<stop stop-color="#F7E830"/>
<stop offset="1" stop-color="#FDCB06"/>
</linearGradient>
<radialGradient id="paint1_radial_2221_98931" cx="0" cy="0" r="1" gradientUnits="userSpaceOnUse" gradientTransform="translate(112.926 27.0645) scale(22.0191 22.0191)">
<stop offset="0.596" stop-color="#F29405"/>
<stop offset="0.736" stop-color="#F7D01E"/>
<stop offset="1" stop-color="#FDCB06"/>
</radialGradient>
<linearGradient id="paint2_linear_2221_98931" x1="120.6" y1="15.6945" x2="120.608" y2="16.9764" gradientUnits="userSpaceOnUse">
<stop stop-color="#FADA1C"/>
<stop offset="1" stop-color="#FDCB06"/>
</linearGradient>
<linearGradient id="paint3_linear_2221_98931" x1="105.522" y1="15.633" x2="105.514" y2="16.9149" gradientUnits="userSpaceOnUse">
<stop stop-color="#FADA1C"/>
<stop offset="1" stop-color="#FDCB06"/>
</linearGradient>
<clipPath id="clip0_2221_98931">
<rect width="123.585" height="32.5809" fill="white" transform="translate(5.91602 9.20947)"/>
</clipPath>
<clipPath id="clip1_2221_98931">
<rect width="62.8207" height="14.9143" fill="white" transform="translate(68.1504 48.0674)"/>
</clipPath>
</defs>
</svg>