<svg width="53" height="52" viewBox="0 0 53 52" fill="none" xmlns="http://www.w3.org/2000/svg">
<rect x="1.22114" y="0.652778" width="50.6944" height="50.6944" rx="25.3472" stroke="#232323" stroke-width="1.30556"/>
<path d="M26.568 14.3328C33.0113 14.3328 38.2347 19.5561 38.2347 25.9994C38.2347 32.4427 33.0113 37.6661 26.568 37.6661C20.1247 37.6661 14.9014 32.4427 14.9014 25.9994C14.9014 19.5561 20.1247 14.3328 26.568 14.3328ZM31.2397 27.0234C30.8367 26.4116 30.546 25.9698 29.4406 26.145C27.3517 26.4766 27.1201 26.8422 27.0204 27.4432L26.9922 27.6261L26.9639 27.8191C26.8499 28.616 26.8542 28.9175 27.2201 29.302C28.6961 30.8507 29.5804 31.9669 29.8482 32.6198C29.979 32.9392 30.3153 33.9037 30.0839 34.8576C31.5114 34.2905 32.7696 33.3882 33.7609 32.248C33.8895 31.8119 33.9823 31.2688 33.9823 30.6099V30.4878C33.9823 29.4116 33.9823 28.9208 33.2217 28.4861C32.9007 28.3037 32.6612 28.1939 32.4693 28.1069C32.0409 27.9121 31.7572 27.7841 31.3745 27.2243C31.3288 27.1577 31.2843 27.0912 31.2397 27.0234ZM26.568 16.4716C23.8644 16.4716 21.4238 17.5978 19.6896 19.4065C19.8961 19.5499 20.076 19.7514 20.1995 20.0291C20.4375 20.5631 20.4375 21.1125 20.4375 21.5983C20.4371 21.9817 20.4365 22.3445 20.5596 22.608C20.7282 22.9677 21.4538 23.1204 22.0944 23.2547C22.3233 23.3029 22.5593 23.3521 22.774 23.4115C23.3644 23.5755 23.8212 24.1053 24.1873 24.5308C24.3392 24.708 24.5636 24.9684 24.6761 25.0331C24.7347 24.991 24.923 24.787 25.0162 24.4518C25.0872 24.1966 25.067 23.9691 24.9626 23.8461C24.3103 23.0763 24.3458 21.5932 24.5474 21.0469C24.8649 20.1848 25.8569 20.2484 26.582 20.2956C26.8525 20.313 27.1077 20.3297 27.298 20.3058C28.0243 20.2147 28.2476 19.1107 28.4055 18.8944C28.7463 18.4275 29.7888 17.7244 30.4365 17.2897C29.2543 16.7639 27.9453 16.4716 26.568 16.4716Z" fill="#F5F5F5"/>
</svg>
