<svg xmlns="http://www.w3.org/2000/svg" width="175" height="175" viewBox="0 0 175 175" fill="none">
<rect x="0.126953" y="0.185059" width="174" height="174" rx="32" fill="#0561E2"/>
<circle cx="150.627" cy="102.685" r="2" fill="#D9D9D9"/>
<circle cx="27.627" cy="106.685" r="2" fill="#D9D9D9"/>
<circle cx="27.627" cy="100.058" r="2" fill="#D9D9D9"/>
<circle cx="24.6147" cy="96.0581" r="2" fill="#D9D9D9"/>
<circle opacity="0.4" cx="27.627" cy="92.0581" r="2" fill="#D9D9D9"/>
<circle cx="27.627" cy="88.0581" r="2" fill="#D9D9D9"/>
<circle cx="27.627" cy="84.0581" r="2" fill="#D9D9D9"/>
<circle cx="27.627" cy="80.0581" r="2" fill="#D9D9D9"/>
<circle opacity="0.4" cx="23.627" cy="80.0581" r="2" fill="#D9D9D9"/>
<circle opacity="0.4" cx="23.627" cy="84.0581" r="2" fill="#D9D9D9"/>
<circle opacity="0.4" cx="23.627" cy="100.058" r="2" fill="#D9D9D9"/>
<circle cx="27.627" cy="110.685" r="2" fill="#D9D9D9"/>
<circle cx="31.627" cy="114.685" r="2" fill="#D9D9D9"/>
<circle cx="35.627" cy="122.685" r="2" fill="#D9D9D9"/>
<circle cx="39.627" cy="122.685" r="2" fill="#D9D9D9"/>
<circle cx="43.627" cy="122.685" r="2" fill="#D9D9D9"/>
<circle cx="47.627" cy="122.685" r="2" fill="#D9D9D9"/>
<circle opacity="0.4" cx="51.627" cy="122.685" r="2" fill="#D9D9D9"/>
<circle opacity="0.4" cx="55.627" cy="122.685" r="2" fill="#D9D9D9"/>
<circle cx="79.627" cy="122.685" r="2" fill="#578FF0"/>
<circle cx="83.627" cy="122.685" r="2" fill="#578FF0"/>
<circle cx="95.627" cy="122.685" r="2" fill="#D9D9D9"/>
<circle cx="99.627" cy="122.685" r="2" fill="#D9D9D9"/>
<circle cx="39.627" cy="114.685" r="2" fill="#D9D9D9"/>
<circle opacity="0.4" cx="47.627" cy="114.685" r="2" fill="#D9D9D9"/>
<circle opacity="0.4" cx="35.627" cy="114.685" r="2" fill="#D9D9D9"/>
<circle cx="43.627" cy="114.685" r="2" fill="#D9D9D9"/>
<circle cx="51.627" cy="114.685" r="2" fill="#D9D9D9"/>
<circle cx="60.627" cy="47.6851" r="2" fill="#D9D9D9"/>
<circle cx="56.627" cy="47.6851" r="2" fill="#D9D9D9"/>
<circle cx="52.627" cy="47.6851" r="2" fill="#D9D9D9"/>
<circle cx="52.627" cy="43.6851" r="2" fill="#D9D9D9"/>
<circle cx="48.627" cy="43.6851" r="2" fill="#D9D9D9"/>
<circle cx="36.627" cy="50.6851" r="2" fill="#D9D9D9"/>
<circle cx="36.627" cy="54.6851" r="2" fill="#D9D9D9"/>
<circle cx="36.627" cy="58.6851" r="2" fill="#D9D9D9"/>
<circle cx="32.627" cy="58.6851" r="2" fill="#D9D9D9"/>
<circle cx="56.627" cy="43.6851" r="2" fill="#D9D9D9"/>
<circle cx="64.627" cy="35.6851" r="2" fill="#D9D9D9"/>
<circle cx="68.627" cy="39.6851" r="2" fill="#D9D9D9"/>
<circle cx="78.627" cy="31.6851" r="2" fill="#D9D9D9"/>
<circle cx="74.627" cy="23.6851" r="2" fill="#D9D9D9"/>
<circle cx="68.627" cy="23.6851" r="2" fill="#D9D9D9"/>
<circle cx="64.627" cy="31.6851" r="2" fill="#D9D9D9"/>
<circle cx="52.627" cy="35.6851" r="2" fill="#D9D9D9"/>
<circle cx="82.627" cy="31.6851" r="2" fill="#D9D9D9"/>
<circle cx="94.627" cy="27.6851" r="2" fill="#D9D9D9"/>
<circle cx="90.627" cy="35.6851" r="2" fill="#D9D9D9"/>
<circle cx="109.627" cy="31.6851" r="2" fill="#D9D9D9"/>
<circle cx="113.627" cy="31.6851" r="2" fill="#D9D9D9"/>
<circle cx="117.627" cy="35.6851" r="2" fill="#D9D9D9"/>
<circle cx="125.627" cy="43.6851" r="2" fill="#D9D9D9"/>
<circle cx="129.627" cy="43.6851" r="2" fill="#D9D9D9"/>
<circle cx="125.627" cy="39.6851" r="2" fill="#D9D9D9"/>
<circle cx="125.627" cy="47.6851" r="2" fill="#D9D9D9"/>
<circle cx="125.627" cy="51.6851" r="2" fill="#D9D9D9"/>
<circle cx="133.627" cy="51.6851" r="2" fill="#D9D9D9"/>
<circle cx="137.627" cy="51.6851" r="2" fill="#D9D9D9"/>
<circle cx="137.627" cy="47.6851" r="2" fill="#D9D9D9"/>
<circle cx="117.627" cy="39.6851" r="2" fill="#D9D9D9"/>
<circle opacity="0.4" cx="64.627" cy="47.6851" r="2" fill="#D9D9D9"/>
<circle opacity="0.4" cx="68.627" cy="35.6851" r="2" fill="#D9D9D9"/>
<circle opacity="0.4" cx="74.627" cy="31.6851" r="2" fill="#D9D9D9"/>
<circle opacity="0.4" cx="74.627" cy="27.6851" r="2" fill="#D9D9D9"/>
<circle opacity="0.4" cx="78.627" cy="23.6851" r="2" fill="#D9D9D9"/>
<circle opacity="0.4" cx="86.627" cy="31.6851" r="2" fill="#D9D9D9"/>
<circle opacity="0.4" cx="98.627" cy="31.6851" r="2" fill="#D9D9D9"/>
<circle opacity="0.4" cx="83.627" cy="47.6851" r="2" fill="#D9D9D9"/>
<circle opacity="0.4" cx="79.627" cy="47.6851" r="2" fill="#D9D9D9"/>
<circle opacity="0.4" cx="90.627" cy="31.6851" r="2" fill="#D9D9D9"/>
<circle opacity="0.4" cx="102.627" cy="31.6851" r="2" fill="#D9D9D9"/>
<circle opacity="0.4" cx="113.627" cy="35.6851" r="2" fill="#D9D9D9"/>
<circle opacity="0.4" cx="121.627" cy="39.6851" r="2" fill="#D9D9D9"/>
<circle opacity="0.4" cx="121.627" cy="35.6851" r="2" fill="#D9D9D9"/>
<circle opacity="0.4" cx="99.627" cy="23.6851" r="2" fill="#D9D9D9"/>
<circle opacity="0.4" cx="106.627" cy="27.6851" r="2" fill="#D9D9D9"/>
<circle opacity="0.4" cx="129.627" cy="51.6851" r="2" fill="#D9D9D9"/>
<circle opacity="0.4" cx="133.627" cy="47.6851" r="2" fill="#D9D9D9"/>
<circle opacity="0.4" cx="141.627" cy="55.6851" r="2" fill="#D9D9D9"/>
<circle opacity="0.4" cx="137.627" cy="55.6851" r="2" fill="#D9D9D9"/>
<circle opacity="0.4" cx="94.627" cy="31.6851" r="2" fill="#D9D9D9"/>
<circle opacity="0.4" cx="64.627" cy="27.6851" r="2" fill="#D9D9D9"/>
<circle opacity="0.4" cx="60.627" cy="31.6851" r="2" fill="#D9D9D9"/>
<circle opacity="0.4" cx="60.627" cy="43.6851" r="2" fill="#D9D9D9"/>
<circle opacity="0.4" cx="64.627" cy="43.6851" r="2" fill="#D9D9D9"/>
<circle opacity="0.4" cx="68.627" cy="43.6851" r="2" fill="#D9D9D9"/>
<circle opacity="0.4" cx="64.627" cy="39.6851" r="2" fill="#D9D9D9"/>
<circle opacity="0.4" cx="60.627" cy="39.6851" r="2" fill="#D9D9D9"/>
<circle opacity="0.4" cx="52.627" cy="39.6851" r="2" fill="#D9D9D9"/>
<circle opacity="0.4" cx="44.627" cy="39.6851" r="2" fill="#D9D9D9"/>
<circle opacity="0.4" cx="56.627" cy="35.6851" r="2" fill="#D9D9D9"/>
<circle opacity="0.4" cx="72.627" cy="39.6851" r="2" fill="#D9D9D9"/>
<circle opacity="0.4" cx="76.627" cy="39.6851" r="2" fill="#D9D9D9"/>
<circle opacity="0.4" cx="48.627" cy="47.6851" r="2" fill="#D9D9D9"/>
<circle opacity="0.4" cx="44.627" cy="47.6851" r="2" fill="#D9D9D9"/>
<circle opacity="0.4" cx="44.627" cy="43.6851" r="2" fill="#D9D9D9"/>
<circle opacity="0.4" cx="40.627" cy="47.6851" r="2" fill="#D9D9D9"/>
<circle opacity="0.4" cx="40.627" cy="43.6851" r="2" fill="#D9D9D9"/>
<circle opacity="0.4" cx="29.627" cy="67.6851" r="2" fill="#D9D9D9"/>
<circle opacity="0.4" cx="29.627" cy="71.6851" r="2" fill="#D9D9D9"/>
<circle opacity="0.4" cx="23.627" cy="75.6851" r="2" fill="#D9D9D9"/>
<circle opacity="0.4" cx="68.627" cy="47.6851" r="2" fill="#D9D9D9"/>
<circle cx="87.627" cy="114.685" r="2" fill="#D9D9D9"/>
<circle cx="91.627" cy="114.685" r="2" fill="#D9D9D9"/>
<circle cx="99.627" cy="114.685" r="2" fill="#D9D9D9"/>
<circle cx="103.627" cy="114.685" r="2" fill="#D9D9D9"/>
<circle cx="107.627" cy="114.685" r="2" fill="#D9D9D9"/>
<circle cx="111.627" cy="114.685" r="2" fill="#D9D9D9"/>
<circle cx="111.627" cy="118.685" r="2" fill="#D9D9D9"/>
<circle cx="111.627" cy="122.685" r="2" fill="#D9D9D9"/>
<circle cx="107.627" cy="122.685" r="2" fill="#D9D9D9"/>
<circle cx="107.627" cy="118.685" r="2" fill="#D9D9D9"/>
<circle cx="111.627" cy="126.685" r="2" fill="#D9D9D9"/>
<circle cx="123.627" cy="114.685" r="2" fill="#D9D9D9"/>
<circle cx="123.627" cy="126.685" r="2" fill="#D9D9D9"/>
<circle cx="127.627" cy="126.685" r="2" fill="#D9D9D9"/>
<circle cx="127.627" cy="130.685" r="2" fill="#D9D9D9"/>
<circle cx="123.627" cy="130.685" r="2" fill="#D9D9D9"/>
<circle cx="119.627" cy="114.685" r="2" fill="#D9D9D9"/>
<circle cx="123.627" cy="102.685" r="2" fill="#D9D9D9"/>
<circle cx="123.627" cy="106.685" r="2" fill="#D9D9D9"/>
<circle cx="127.627" cy="106.685" r="2" fill="#D9D9D9"/>
<circle cx="130.627" cy="102.685" r="2" fill="#D9D9D9"/>
<circle cx="134.627" cy="102.685" r="2" fill="#D9D9D9"/>
<circle cx="138.627" cy="102.685" r="2" fill="#D9D9D9"/>
<circle cx="130.627" cy="98.6851" r="2" fill="#D9D9D9"/>
<circle cx="131.627" cy="90.6851" r="2" fill="#D9D9D9"/>
<circle cx="135.627" cy="90.6851" r="2" fill="#D9D9D9"/>
<circle cx="135.627" cy="86.6851" r="2" fill="#D9D9D9"/>
<circle cx="146.627" cy="86.6851" r="2" fill="#D9D9D9"/>
<circle cx="150.627" cy="90.6851" r="2" fill="#D9D9D9"/>
<circle cx="150.627" cy="94.6851" r="2" fill="#D9D9D9"/>
<circle cx="150.627" cy="98.6851" r="2" fill="#D9D9D9"/>
<circle cx="146.627" cy="82.6851" r="2" fill="#D9D9D9"/>
<circle cx="150.627" cy="75.6851" r="2" fill="#D9D9D9"/>
<circle opacity="0.4" cx="127.627" cy="114.685" r="2" fill="#D9D9D9"/>
<circle opacity="0.4" cx="126.627" cy="98.6851" r="2" fill="#D9D9D9"/>
<circle opacity="0.4" cx="131.627" cy="114.685" r="2" fill="#D9D9D9"/>
<circle opacity="0.4" cx="131.627" cy="126.685" r="2" fill="#D9D9D9"/>
<circle opacity="0.4" cx="127.627" cy="134.685" r="2" fill="#D9D9D9"/>
<circle opacity="0.4" cx="119.627" cy="130.685" r="2" fill="#D9D9D9"/>
<circle opacity="0.4" cx="115.627" cy="130.685" r="2" fill="#D9D9D9"/>
<circle opacity="0.4" cx="103.627" cy="118.685" r="2" fill="#D9D9D9"/>
<circle opacity="0.4" cx="103.627" cy="122.685" r="2" fill="#D9D9D9"/>
<circle opacity="0.4" cx="107.627" cy="126.685" r="2" fill="#D9D9D9"/>
<circle opacity="0.4" cx="107.627" cy="130.685" r="2" fill="#D9D9D9"/>
<circle opacity="0.4" cx="131.627" cy="122.685" r="2" fill="#D9D9D9"/>
<circle opacity="0.4" cx="135.627" cy="122.685" r="2" fill="#D9D9D9"/>
<circle opacity="0.4" cx="135.627" cy="126.685" r="2" fill="#D9D9D9"/>
<circle opacity="0.4" cx="135.627" cy="118.685" r="2" fill="#D9D9D9"/>
<circle opacity="0.4" cx="135.627" cy="114.685" r="2" fill="#D9D9D9"/>
<circle opacity="0.4" cx="150.627" cy="86.6851" r="2" fill="#D9D9D9"/>
<circle opacity="0.4" cx="134.627" cy="106.685" r="2" fill="#D9D9D9"/>
<circle opacity="0.4" cx="138.627" cy="106.685" r="2" fill="#D9D9D9"/>
<circle opacity="0.4" cx="138.627" cy="83.6851" r="2" fill="#D9D9D9"/>
<circle opacity="0.4" cx="146.627" cy="102.685" r="2" fill="#D9D9D9"/>
<circle opacity="0.4" cx="138.627" cy="98.6851" r="2" fill="#D9D9D9"/>
<circle opacity="0.4" cx="142.627" cy="94.6851" r="2" fill="#D9D9D9"/>
<circle opacity="0.4" cx="111.627" cy="90.6851" r="2" fill="#D9D9D9"/>
<circle opacity="0.4" cx="123.627" cy="90.6851" r="2" fill="#D9D9D9"/>
<circle opacity="0.4" cx="127.627" cy="90.6851" r="2" fill="#D9D9D9"/>
<circle cx="142.741" cy="114.685" r="2" fill="#D9D9D9"/>
<circle cx="31.627" cy="118.685" r="2" fill="#D9D9D9"/>
<circle cx="35.627" cy="126.685" r="2" fill="#D9D9D9"/>
<circle cx="39.627" cy="126.685" r="2" fill="#D9D9D9"/>
<circle cx="43.627" cy="126.685" r="2" fill="#D9D9D9"/>
<circle cx="43.627" cy="130.685" r="2" fill="#578FF0"/>
<circle cx="43.627" cy="134.685" r="2" fill="#578FF0"/>
<circle cx="47.627" cy="126.685" r="2" fill="#D9D9D9"/>
<circle cx="47.627" cy="130.685" r="2" fill="#578FF0"/>
<circle cx="47.627" cy="134.685" r="2" fill="#D9D9D9"/>
<circle cx="51.627" cy="126.685" r="2" fill="#D9D9D9"/>
<circle cx="51.627" cy="130.685" r="2" fill="#578FF0"/>
<circle cx="51.627" cy="134.685" r="2" fill="#D9D9D9"/>
<circle cx="51.627" cy="138.685" r="2" fill="#D9D9D9"/>
<circle cx="59.627" cy="142.685" r="2" fill="#D9D9D9"/>
<circle cx="55.627" cy="126.685" r="2" fill="#D9D9D9"/>
<circle cx="55.627" cy="130.685" r="2" fill="#D9D9D9"/>
<circle cx="55.627" cy="134.685" r="2" fill="#D9D9D9"/>
<circle cx="55.627" cy="138.685" r="2" fill="#D9D9D9"/>
<circle cx="63.627" cy="142.685" r="2" fill="#D9D9D9"/>
<circle cx="67.627" cy="146.685" r="2" fill="#D9D9D9"/>
<circle cx="75.627" cy="150.685" r="2" fill="#D9D9D9"/>
<circle cx="59.627" cy="126.685" r="2" fill="#578FF0"/>
<circle cx="59.627" cy="130.685" r="2" fill="#578FF0"/>
<circle cx="59.627" cy="134.685" r="2" fill="#D9D9D9"/>
<circle cx="59.627" cy="138.685" r="2" fill="#D9D9D9"/>
<circle cx="67.627" cy="142.685" r="2" fill="#D9D9D9"/>
<circle cx="71.627" cy="146.685" r="2" fill="#D9D9D9"/>
<circle cx="79.627" cy="150.685" r="2" fill="#D9D9D9"/>
<circle cx="63.627" cy="126.685" r="2" fill="#D9D9D9"/>
<circle cx="63.627" cy="130.685" r="2" fill="#578FF0"/>
<circle cx="63.627" cy="134.685" r="2" fill="#D9D9D9"/>
<circle cx="63.627" cy="138.685" r="2" fill="#D9D9D9"/>
<circle cx="71.627" cy="142.685" r="2" fill="#D9D9D9"/>
<circle cx="75.627" cy="146.685" r="2" fill="#D9D9D9"/>
<circle cx="83.627" cy="150.685" r="2" fill="#D9D9D9"/>
<circle cx="67.627" cy="130.685" r="2" fill="#D9D9D9"/>
<circle cx="67.627" cy="134.685" r="2" fill="#D9D9D9"/>
<circle cx="75.627" cy="130.685" r="2" fill="#D9D9D9"/>
<circle cx="75.627" cy="134.685" r="2" fill="#D9D9D9"/>
<circle cx="75.627" cy="138.685" r="2" fill="#578FF0"/>
<circle cx="67.627" cy="138.685" r="2" fill="#D9D9D9"/>
<circle cx="75.627" cy="142.685" r="2" fill="#D9D9D9"/>
<circle cx="79.627" cy="146.685" r="2" fill="#D9D9D9"/>
<circle cx="87.627" cy="150.685" r="2" fill="#D9D9D9"/>
<circle cx="71.627" cy="130.685" r="2" fill="#D9D9D9"/>
<circle cx="71.627" cy="134.685" r="2" fill="#D9D9D9"/>
<circle cx="79.627" cy="130.685" r="2" fill="#D9D9D9"/>
<circle cx="79.627" cy="134.685" r="2" fill="#D9D9D9"/>
<circle cx="71.627" cy="138.685" r="2" fill="#D9D9D9"/>
<circle cx="79.627" cy="142.685" r="2" fill="#D9D9D9"/>
<circle cx="83.627" cy="146.685" r="2" fill="#D9D9D9"/>
<circle cx="91.627" cy="150.685" r="2" fill="#D9D9D9"/>
<circle cx="75.627" cy="126.685" r="2" fill="#578FF0"/>
<circle cx="79.627" cy="126.685" r="2" fill="#578FF0"/>
<circle cx="83.627" cy="126.685" r="2" fill="#D9D9D9"/>
<circle cx="83.627" cy="130.685" r="2" fill="#D9D9D9"/>
<circle cx="87.627" cy="126.685" r="2" fill="#D9D9D9"/>
<circle cx="87.627" cy="130.685" r="2" fill="#D9D9D9"/>
<circle cx="87.627" cy="134.685" r="2" fill="#D9D9D9"/>
<circle cx="83.627" cy="138.685" r="2" fill="#D9D9D9"/>
<circle cx="83.627" cy="142.685" r="2" fill="#578FF0"/>
<circle cx="87.627" cy="146.685" r="2" fill="#578FF0"/>
<circle cx="91.627" cy="126.685" r="2" fill="#D9D9D9"/>
<circle cx="91.627" cy="130.685" r="2" fill="#578FF0"/>
<circle cx="95.627" cy="126.685" r="2" fill="#D9D9D9"/>
<circle cx="95.627" cy="130.685" r="2" fill="#D9D9D9"/>
<circle cx="91.627" cy="134.685" r="2" fill="#D9D9D9"/>
<circle cx="103.627" cy="134.685" r="2" fill="#D9D9D9"/>
<circle cx="87.627" cy="138.685" r="2" fill="#D9D9D9"/>
<circle cx="87.627" cy="142.685" r="2" fill="#578FF0"/>
<circle cx="91.627" cy="146.685" r="2" fill="#578FF0"/>
<circle cx="99.627" cy="126.685" r="2" fill="#D9D9D9"/>
<circle cx="99.627" cy="130.685" r="2" fill="#D9D9D9"/>
<circle cx="95.627" cy="134.685" r="2" fill="#D9D9D9"/>
<circle cx="107.627" cy="134.685" r="2" fill="#578FF0"/>
<circle cx="91.627" cy="138.685" r="2" fill="#D9D9D9"/>
<circle cx="91.627" cy="142.685" r="2" fill="#D9D9D9"/>
<circle cx="103.627" cy="138.685" r="2" fill="#D9D9D9"/>
<circle cx="103.627" cy="142.685" r="2" fill="#D9D9D9"/>
<circle cx="103.627" cy="146.685" r="2" fill="#D9D9D9"/>
<circle cx="103.627" cy="150.685" r="2" fill="#D9D9D9"/>
<circle cx="119.627" cy="138.685" r="2" fill="#D9D9D9"/>
<circle cx="99.627" cy="134.685" r="2" fill="#D9D9D9"/>
<circle cx="111.627" cy="134.685" r="2" fill="#578FF0"/>
<circle cx="99.627" cy="138.685" r="2" fill="#D9D9D9"/>
<circle cx="99.627" cy="142.685" r="2" fill="#D9D9D9"/>
<circle cx="99.627" cy="146.685" r="2" fill="#D9D9D9"/>
<circle cx="99.627" cy="150.685" r="2" fill="#D9D9D9"/>
<circle cx="115.627" cy="138.685" r="2" fill="#D9D9D9"/>
<circle cx="115.627" cy="142.685" r="2" fill="#D9D9D9"/>
<circle cx="111.627" cy="138.685" r="2" fill="#578FF0"/>
<circle cx="111.627" cy="142.685" r="2" fill="#578FF0"/>
<circle cx="95.627" cy="138.685" r="2" fill="#D9D9D9"/>
<circle cx="95.627" cy="142.685" r="2" fill="#D9D9D9"/>
<circle cx="95.627" cy="146.685" r="2" fill="#D9D9D9"/>
<circle cx="95.627" cy="150.685" r="2" fill="#D9D9D9"/>
<circle cx="107.627" cy="138.685" r="2" fill="#D9D9D9"/>
<circle cx="107.627" cy="142.685" r="2" fill="#578FF0"/>
<circle cx="107.627" cy="146.685" r="2" fill="#578FF0"/>
<circle cx="123.627" cy="138.685" r="2" fill="#D9D9D9"/>
<circle cx="39.627" cy="118.685" r="2" fill="#D9D9D9"/>
<circle cx="55.627" cy="118.685" r="2" fill="#D9D9D9"/>
<circle cx="35.627" cy="118.685" r="2" fill="#D9D9D9"/>
<circle cx="43.627" cy="118.685" r="2" fill="#D9D9D9"/>
<circle cx="79.627" cy="118.685" r="2" fill="#578FF0"/>
<circle cx="83.627" cy="118.685" r="2" fill="#578FF0"/>
<circle cx="87.627" cy="118.685" r="2" fill="#D9D9D9"/>
<circle cx="91.627" cy="118.685" r="2" fill="#D9D9D9"/>
<circle cx="95.627" cy="118.685" r="2" fill="#578FF0"/>
<circle cx="31.627" cy="106.685" r="2" fill="#D9D9D9"/>
<circle opacity="0.4" cx="35.627" cy="106.685" r="2" fill="#D9D9D9"/>
<circle opacity="0.4" cx="39.627" cy="106.685" r="2" fill="#D9D9D9"/>
<circle cx="43.627" cy="106.685" r="2" fill="#D9D9D9"/>
<circle cx="47.627" cy="106.685" r="2" fill="#D9D9D9"/>
<circle opacity="0.4" cx="51.627" cy="106.685" r="2" fill="#D9D9D9"/>
<circle cx="55.627" cy="106.685" r="2" fill="#D9D9D9"/>
<circle opacity="0.4" cx="59.627" cy="106.685" r="2" fill="#D9D9D9"/>
<circle cx="63.627" cy="106.685" r="2" fill="#D9D9D9"/>
<circle cx="67.627" cy="106.685" r="2" fill="#D9D9D9"/>
<circle opacity="0.4" cx="71.627" cy="106.685" r="2" fill="#D9D9D9"/>
<circle cx="75.627" cy="106.685" r="2" fill="#D9D9D9"/>
<circle opacity="0.4" cx="79.627" cy="106.685" r="2" fill="#D9D9D9"/>
<circle cx="83.627" cy="106.685" r="2" fill="#D9D9D9"/>
<circle cx="87.627" cy="106.685" r="2" fill="#D9D9D9"/>
<circle cx="91.627" cy="106.685" r="2" fill="#D9D9D9"/>
<circle cx="95.627" cy="106.685" r="2" fill="#D9D9D9"/>
<circle opacity="0.4" cx="99.627" cy="106.685" r="2" fill="#D9D9D9"/>
<circle cx="103.627" cy="106.685" r="2" fill="#D9D9D9"/>
<circle cx="107.627" cy="106.685" r="2" fill="#D9D9D9"/>
<circle cx="111.627" cy="106.685" r="2" fill="#D9D9D9"/>
<circle cx="2" cy="2" r="2" transform="matrix(-1 0 0 1 121.627 100.685)" fill="#D9D9D9"/>
<circle opacity="0.4" cx="2" cy="2" r="2" transform="matrix(-1 0 0 1 117.627 100.685)" fill="#D9D9D9"/>
<circle opacity="0.4" cx="2" cy="2" r="2" transform="matrix(-1 0 0 1 113.627 100.685)" fill="#D9D9D9"/>
<circle cx="2" cy="2" r="2" transform="matrix(-1 0 0 1 109.627 100.685)" fill="#D9D9D9"/>
<circle cx="2" cy="2" r="2" transform="matrix(-1 0 0 1 105.627 100.685)" fill="#D9D9D9"/>
<circle opacity="0.4" cx="2" cy="2" r="2" transform="matrix(-1 0 0 1 101.627 100.685)" fill="#D9D9D9"/>
<circle cx="2" cy="2" r="2" transform="matrix(-1 0 0 1 97.627 100.685)" fill="#D9D9D9"/>
<circle opacity="0.4" cx="2" cy="2" r="2" transform="matrix(-1 0 0 1 93.627 100.685)" fill="#D9D9D9"/>
<circle cx="2" cy="2" r="2" transform="matrix(-1 0 0 1 89.627 100.685)" fill="#D9D9D9"/>
<circle cx="2" cy="2" r="2" transform="matrix(-1 0 0 1 85.627 100.685)" fill="#D9D9D9"/>
<circle opacity="0.4" cx="2" cy="2" r="2" transform="matrix(-1 0 0 1 81.627 100.685)" fill="#D9D9D9"/>
<circle cx="2" cy="2" r="2" transform="matrix(-1 0 0 1 77.627 100.685)" fill="#D9D9D9"/>
<circle cx="2" cy="2" r="2" transform="matrix(-1 0 0 1 73.627 100.685)" fill="#D9D9D9"/>
<circle opacity="0.4" cx="2" cy="2" r="2" transform="matrix(-1 0 0 1 69.627 100.685)" fill="#D9D9D9"/>
<circle opacity="0.4" cx="2" cy="2" r="2" transform="matrix(-1 0 0 1 65.627 100.685)" fill="#D9D9D9"/>
<circle cx="2" cy="2" r="2" transform="matrix(-1 0 0 1 61.627 100.685)" fill="#D9D9D9"/>
<circle cx="2" cy="2" r="2" transform="matrix(-1 0 0 1 57.627 100.685)" fill="#D9D9D9"/>
<circle cx="2" cy="2" r="2" transform="matrix(-1 0 0 1 53.627 100.685)" fill="#D9D9D9"/>
<circle cx="2" cy="2" r="2" transform="matrix(-1 0 0 1 49.627 100.685)" fill="#D9D9D9"/>
<circle opacity="0.4" cx="2" cy="2" r="2" transform="matrix(-1 0 0 1 45.627 100.685)" fill="#D9D9D9"/>
<circle cx="2" cy="2" r="2" transform="matrix(-1 0 0 1 41.627 100.685)" fill="#D9D9D9"/>
<circle cx="2" cy="2" r="2" transform="matrix(-1 0 0 1 37.627 100.685)" fill="#D9D9D9"/>
<circle cx="2" cy="2" r="2" transform="matrix(-1 0 0 1 33.627 100.685)" fill="#D9D9D9"/>
<circle cx="2" cy="2" r="2" transform="matrix(-1 0 0 1 121.627 96.6851)" fill="#D9D9D9"/>
<circle opacity="0.4" cx="2" cy="2" r="2" transform="matrix(-1 0 0 1 117.627 96.6851)" fill="#D9D9D9"/>
<circle opacity="0.4" cx="2" cy="2" r="2" transform="matrix(-1 0 0 1 113.627 96.6851)" fill="#D9D9D9"/>
<circle cx="2" cy="2" r="2" transform="matrix(-1 0 0 1 109.627 96.6851)" fill="#D9D9D9"/>
<circle cx="2" cy="2" r="2" transform="matrix(-1 0 0 1 105.627 96.6851)" fill="#D9D9D9"/>
<circle opacity="0.4" cx="2" cy="2" r="2" transform="matrix(-1 0 0 1 101.627 96.6851)" fill="#D9D9D9"/>
<circle cx="2" cy="2" r="2" transform="matrix(-1 0 0 1 97.627 96.6851)" fill="#D9D9D9"/>
<circle opacity="0.4" cx="2" cy="2" r="2" transform="matrix(-1 0 0 1 93.627 96.6851)" fill="#D9D9D9"/>
<circle cx="2" cy="2" r="2" transform="matrix(-1 0 0 1 89.627 96.6851)" fill="#D9D9D9"/>
<circle cx="2" cy="2" r="2" transform="matrix(-1 0 0 1 85.627 96.6851)" fill="#D9D9D9"/>
<circle opacity="0.4" cx="2" cy="2" r="2" transform="matrix(-1 0 0 1 81.627 96.6851)" fill="#D9D9D9"/>
<circle cx="2" cy="2" r="2" transform="matrix(-1 0 0 1 77.627 96.6851)" fill="#D9D9D9"/>
<circle cx="2" cy="2" r="2" transform="matrix(-1 0 0 1 73.627 96.6851)" fill="#D9D9D9"/>
<circle cx="2" cy="2" r="2" transform="matrix(-1 0 0 1 69.627 96.6851)" fill="#D9D9D9"/>
<circle opacity="0.4" cx="2" cy="2" r="2" transform="matrix(-1 0 0 1 65.627 96.6851)" fill="#D9D9D9"/>
<circle cx="2" cy="2" r="2" transform="matrix(-1 0 0 1 61.627 96.6851)" fill="#D9D9D9"/>
<circle cx="2" cy="2" r="2" transform="matrix(-1 0 0 1 57.627 96.6851)" fill="#D9D9D9"/>
<circle cx="2" cy="2" r="2" transform="matrix(-1 0 0 1 53.627 96.6851)" fill="#D9D9D9"/>
<circle cx="2" cy="2" r="2" transform="matrix(-1 0 0 1 49.627 96.6851)" fill="#D9D9D9"/>
<circle opacity="0.4" cx="2" cy="2" r="2" transform="matrix(-1 0 0 1 45.627 96.6851)" fill="#D9D9D9"/>
<circle cx="2" cy="2" r="2" transform="matrix(-1 0 0 1 41.627 96.6851)" fill="#D9D9D9"/>
<circle cx="2" cy="2" r="2" transform="matrix(-1 0 0 1 37.627 96.6851)" fill="#D9D9D9"/>
<circle cx="2" cy="2" r="2" transform="matrix(-1 0 0 1 33.627 96.6851)" fill="#D9D9D9"/>
<circle cx="2" cy="2" r="2" transform="matrix(-1 0 0 1 121.627 92.6851)" fill="#D9D9D9"/>
<circle opacity="0.4" cx="2" cy="2" r="2" transform="matrix(-1 0 0 1 117.627 92.6851)" fill="#D9D9D9"/>
<circle opacity="0.4" cx="2" cy="2" r="2" transform="matrix(-1 0 0 1 113.627 92.6851)" fill="#D9D9D9"/>
<circle cx="2" cy="2" r="2" transform="matrix(-1 0 0 1 109.627 92.6851)" fill="#D9D9D9"/>
<circle cx="2" cy="2" r="2" transform="matrix(-1 0 0 1 105.627 92.6851)" fill="#D9D9D9"/>
<circle opacity="0.4" cx="2" cy="2" r="2" transform="matrix(-1 0 0 1 101.627 92.6851)" fill="#D9D9D9"/>
<circle cx="2" cy="2" r="2" transform="matrix(-1 0 0 1 97.627 92.6851)" fill="#D9D9D9"/>
<circle opacity="0.4" cx="2" cy="2" r="2" transform="matrix(-1 0 0 1 93.627 92.6851)" fill="#D9D9D9"/>
<circle cx="2" cy="2" r="2" transform="matrix(-1 0 0 1 89.627 92.6851)" fill="#D9D9D9"/>
<circle cx="2" cy="2" r="2" transform="matrix(-1 0 0 1 85.627 92.6851)" fill="#D9D9D9"/>
<circle cx="2" cy="2" r="2" transform="matrix(-1 0 0 1 81.627 92.6851)" fill="#D9D9D9"/>
<circle cx="2" cy="2" r="2" transform="matrix(-1 0 0 1 77.627 92.6851)" fill="#D9D9D9"/>
<circle opacity="0.4" cx="2" cy="2" r="2" transform="matrix(-1 0 0 1 73.627 92.6851)" fill="#D9D9D9"/>
<circle opacity="0.4" cx="2" cy="2" r="2" transform="matrix(-1 0 0 1 69.627 92.6851)" fill="#D9D9D9"/>
<circle cx="2" cy="2" r="2" transform="matrix(-1 0 0 1 65.627 92.6851)" fill="#D9D9D9"/>
<circle cx="2" cy="2" r="2" transform="matrix(-1 0 0 1 61.627 92.6851)" fill="#D9D9D9"/>
<circle cx="2" cy="2" r="2" transform="matrix(-1 0 0 1 57.627 92.6851)" fill="#D9D9D9"/>
<circle cx="2" cy="2" r="2" transform="matrix(-1 0 0 1 53.627 92.6851)" fill="#D9D9D9"/>
<circle cx="2" cy="2" r="2" transform="matrix(-1 0 0 1 49.627 92.6851)" fill="#D9D9D9"/>
<circle opacity="0.4" cx="2" cy="2" r="2" transform="matrix(-1 0 0 1 45.627 92.6851)" fill="#D9D9D9"/>
<circle cx="2" cy="2" r="2" transform="matrix(-1 0 0 1 41.627 92.6851)" fill="#D9D9D9"/>
<circle cx="2" cy="2" r="2" transform="matrix(-1 0 0 1 37.627 92.6851)" fill="#D9D9D9"/>
<circle cx="2" cy="2" r="2" transform="matrix(-1 0 0 1 33.627 92.6851)" fill="#D9D9D9"/>
<circle cx="2" cy="2" r="2" transform="matrix(-1 0 0 1 144.627 77.6851)" fill="#D9D9D9"/>
<circle opacity="0.4" cx="2" cy="2" r="2" transform="matrix(-1 0 0 1 140.627 77.6851)" fill="#D9D9D9"/>
<circle opacity="0.4" cx="2" cy="2" r="2" transform="matrix(-1 0 0 1 136.627 77.6851)" fill="#D9D9D9"/>
<circle cx="2" cy="2" r="2" transform="matrix(-1 0 0 1 132.627 77.6851)" fill="#D9D9D9"/>
<circle cx="2" cy="2" r="2" transform="matrix(-1 0 0 1 128.627 77.6851)" fill="#D9D9D9"/>
<circle opacity="0.4" cx="2" cy="2" r="2" transform="matrix(-1 0 0 1 124.627 77.6851)" fill="#D9D9D9"/>
<circle cx="2" cy="2" r="2" transform="matrix(-1 0 0 1 120.627 77.6851)" fill="#D9D9D9"/>
<circle cx="2" cy="2" r="2" transform="matrix(-1 0 0 1 116.627 77.6851)" fill="#D9D9D9"/>
<circle cx="2" cy="2" r="2" transform="matrix(-1 0 0 1 112.627 77.6851)" fill="#D9D9D9"/>
<circle cx="2" cy="2" r="2" transform="matrix(-1 0 0 1 108.627 77.6851)" fill="#D9D9D9"/>
<circle opacity="0.4" cx="2" cy="2" r="2" transform="matrix(-1 0 0 1 104.627 77.6851)" fill="#D9D9D9"/>
<circle opacity="0.4" cx="2" cy="2" r="2" transform="matrix(-1 0 0 1 100.627 77.6851)" fill="#D9D9D9"/>
<circle cx="2" cy="2" r="2" transform="matrix(-1 0 0 1 96.627 77.6851)" fill="#D9D9D9"/>
<circle cx="2" cy="2" r="2" transform="matrix(-1 0 0 1 92.627 77.6851)" fill="#D9D9D9"/>
<circle cx="2" cy="2" r="2" transform="matrix(-1 0 0 1 88.627 77.6851)" fill="#D9D9D9"/>
<circle cx="2" cy="2" r="2" transform="matrix(-1 0 0 1 84.627 77.6851)" fill="#D9D9D9"/>
<circle cx="2" cy="2" r="2" transform="matrix(-1 0 0 1 80.627 77.6851)" fill="#D9D9D9"/>
<circle opacity="0.4" cx="2" cy="2" r="2" transform="matrix(-1 0 0 1 76.627 77.6851)" fill="#D9D9D9"/>
<circle cx="2" cy="2" r="2" transform="matrix(-1 0 0 1 72.627 77.6851)" fill="#D9D9D9"/>
<circle cx="2" cy="2" r="2" transform="matrix(-1 0 0 1 68.627 77.6851)" fill="#D9D9D9"/>
<circle cx="2" cy="2" r="2" transform="matrix(-1 0 0 1 64.627 77.6851)" fill="#D9D9D9"/>
<circle cx="34.627" cy="83.6851" r="2" fill="#D9D9D9"/>
<circle opacity="0.4" cx="38.627" cy="83.6851" r="2" fill="#D9D9D9"/>
<circle opacity="0.4" cx="42.627" cy="83.6851" r="2" fill="#D9D9D9"/>
<circle cx="46.627" cy="83.6851" r="2" fill="#D9D9D9"/>
<circle cx="50.627" cy="83.6851" r="2" fill="#D9D9D9"/>
<circle opacity="0.4" cx="54.627" cy="83.6851" r="2" fill="#D9D9D9"/>
<circle cx="58.627" cy="83.6851" r="2" fill="#D9D9D9"/>
<circle opacity="0.4" cx="62.627" cy="83.6851" r="2" fill="#D9D9D9"/>
<circle cx="66.627" cy="83.6851" r="2" fill="#D9D9D9"/>
<circle cx="70.627" cy="83.6851" r="2" fill="#D9D9D9"/>
<circle cx="74.627" cy="83.6851" r="2" fill="#D9D9D9"/>
<circle opacity="0.4" cx="78.627" cy="83.6851" r="2" fill="#D9D9D9"/>
<circle opacity="0.4" cx="82.627" cy="83.6851" r="2" fill="#D9D9D9"/>
<circle cx="86.627" cy="83.6851" r="2" fill="#D9D9D9"/>
<circle cx="90.627" cy="83.6851" r="2" fill="#D9D9D9"/>
<circle cx="94.627" cy="83.6851" r="2" fill="#D9D9D9"/>
<circle cx="98.627" cy="83.6851" r="2" fill="#D9D9D9"/>
<circle cx="102.627" cy="83.6851" r="2" fill="#D9D9D9"/>
<circle opacity="0.4" cx="106.627" cy="83.6851" r="2" fill="#D9D9D9"/>
<circle cx="74.627" cy="75.6851" r="2" fill="#D9D9D9"/>
<circle opacity="0.4" cx="78.627" cy="75.6851" r="2" fill="#D9D9D9"/>
<circle opacity="0.4" cx="82.627" cy="75.6851" r="2" fill="#D9D9D9"/>
<circle cx="86.627" cy="75.6851" r="2" fill="#D9D9D9"/>
<circle cx="90.627" cy="75.6851" r="2" fill="#D9D9D9"/>
<circle opacity="0.4" cx="94.627" cy="75.6851" r="2" fill="#D9D9D9"/>
<circle cx="98.627" cy="75.6851" r="2" fill="#D9D9D9"/>
<circle opacity="0.4" cx="102.627" cy="75.6851" r="2" fill="#D9D9D9"/>
<circle cx="106.627" cy="75.6851" r="2" fill="#D9D9D9"/>
<circle cx="110.627" cy="75.6851" r="2" fill="#D9D9D9"/>
<circle cx="114.627" cy="75.6851" r="2" fill="#D9D9D9"/>
<circle cx="118.627" cy="75.6851" r="2" fill="#D9D9D9"/>
<circle opacity="0.4" cx="122.627" cy="75.6851" r="2" fill="#D9D9D9"/>
<circle opacity="0.4" cx="126.627" cy="75.6851" r="2" fill="#D9D9D9"/>
<circle cx="130.627" cy="75.6851" r="2" fill="#D9D9D9"/>
<circle cx="134.627" cy="75.6851" r="2" fill="#D9D9D9"/>
<circle cx="138.627" cy="75.6851" r="2" fill="#D9D9D9"/>
<circle cx="142.627" cy="75.6851" r="2" fill="#D9D9D9"/>
<circle cx="146.627" cy="75.6851" r="2" fill="#D9D9D9"/>
<circle cx="50.627" cy="54.6851" r="2" fill="#D9D9D9"/>
<circle opacity="0.4" cx="54.627" cy="54.6851" r="2" fill="#D9D9D9"/>
<circle opacity="0.4" cx="58.627" cy="54.6851" r="2" fill="#D9D9D9"/>
<circle cx="62.627" cy="54.6851" r="2" fill="#D9D9D9"/>
<circle cx="66.627" cy="54.6851" r="2" fill="#D9D9D9"/>
<circle opacity="0.4" cx="70.627" cy="54.6851" r="2" fill="#D9D9D9"/>
<circle cx="74.627" cy="54.6851" r="2" fill="#D9D9D9"/>
<circle opacity="0.4" cx="78.627" cy="54.6851" r="2" fill="#D9D9D9"/>
<circle cx="82.627" cy="54.6851" r="2" fill="#D9D9D9"/>
<circle cx="90.627" cy="54.6851" r="2" fill="#D9D9D9"/>
<circle opacity="0.4" cx="98.627" cy="54.6851" r="2" fill="#D9D9D9"/>
<circle cx="106.627" cy="54.6851" r="2" fill="#D9D9D9"/>
<circle opacity="0.4" cx="110.627" cy="54.6851" r="2" fill="#D9D9D9"/>
<circle cx="114.627" cy="54.6851" r="2" fill="#D9D9D9"/>
<circle cx="118.627" cy="54.6851" r="2" fill="#D9D9D9"/>
<circle cx="122.627" cy="54.6851" r="2" fill="#D9D9D9"/>
<circle cx="105.627" cy="59.6851" r="2" fill="#D9D9D9"/>
<circle opacity="0.4" cx="109.627" cy="59.6851" r="2" fill="#D9D9D9"/>
<circle opacity="0.4" cx="113.627" cy="59.6851" r="2" fill="#D9D9D9"/>
<circle cx="117.627" cy="59.6851" r="2" fill="#D9D9D9"/>
<circle cx="121.627" cy="59.6851" r="2" fill="#D9D9D9"/>
<circle opacity="0.4" cx="125.627" cy="59.6851" r="2" fill="#D9D9D9"/>
<circle cx="129.627" cy="59.6851" r="2" fill="#D9D9D9"/>
<circle opacity="0.4" cx="133.627" cy="59.6851" r="2" fill="#D9D9D9"/>
<circle cx="137.627" cy="59.6851" r="2" fill="#D9D9D9"/>
<circle cx="141.627" cy="59.6851" r="2" fill="#D9D9D9"/>
<circle cx="145.627" cy="59.6851" r="2" fill="#D9D9D9"/>
<circle cx="109.627" cy="63.6851" r="2" fill="#D9D9D9"/>
<circle opacity="0.4" cx="113.627" cy="63.6851" r="2" fill="#D9D9D9"/>
<circle opacity="0.4" cx="117.627" cy="63.6851" r="2" fill="#D9D9D9"/>
<circle cx="121.627" cy="63.6851" r="2" fill="#D9D9D9"/>
<circle cx="125.627" cy="63.6851" r="2" fill="#D9D9D9"/>
<circle opacity="0.4" cx="129.627" cy="63.6851" r="2" fill="#D9D9D9"/>
<circle cx="133.627" cy="63.6851" r="2" fill="#D9D9D9"/>
<circle opacity="0.4" cx="137.627" cy="63.6851" r="2" fill="#D9D9D9"/>
<circle cx="141.627" cy="63.6851" r="2" fill="#D9D9D9"/>
<circle cx="145.627" cy="63.6851" r="2" fill="#D9D9D9"/>
<circle cx="149.627" cy="63.6851" r="2" fill="#D9D9D9"/>
<circle cx="103.627" cy="69.6851" r="2" fill="#D9D9D9"/>
<circle opacity="0.4" cx="107.627" cy="69.6851" r="2" fill="#D9D9D9"/>
<circle opacity="0.4" cx="111.627" cy="69.6851" r="2" fill="#D9D9D9"/>
<circle cx="115.627" cy="69.6851" r="2" fill="#D9D9D9"/>
<circle cx="119.627" cy="69.6851" r="2" fill="#D9D9D9"/>
<circle opacity="0.4" cx="123.627" cy="69.6851" r="2" fill="#D9D9D9"/>
<circle cx="127.627" cy="69.6851" r="2" fill="#D9D9D9"/>
<circle opacity="0.4" cx="131.627" cy="69.6851" r="2" fill="#D9D9D9"/>
<circle cx="135.627" cy="69.6851" r="2" fill="#D9D9D9"/>
<circle cx="139.627" cy="69.6851" r="2" fill="#D9D9D9"/>
<circle cx="143.627" cy="69.6851" r="2" fill="#D9D9D9"/>
<circle cx="50.627" cy="65.21" r="2" fill="#D9D9D9"/>
<circle opacity="0.4" cx="54.627" cy="65.21" r="2" fill="#D9D9D9"/>
<circle opacity="0.4" cx="58.627" cy="65.21" r="2" fill="#D9D9D9"/>
<circle cx="46.627" cy="79.6851" r="2" fill="#D9D9D9"/>
<circle opacity="0.4" cx="50.627" cy="79.6851" r="2" fill="#D9D9D9"/>
<circle opacity="0.4" cx="54.627" cy="79.6851" r="2" fill="#D9D9D9"/>
<circle opacity="0.4" cx="38.627" cy="65.21" r="2" fill="#D9D9D9"/>
<circle cx="42.627" cy="65.21" r="2" fill="#D9D9D9"/>
<circle opacity="0.4" cx="33.627" cy="67.6851" r="2" fill="#D9D9D9"/>
<circle cx="33.627" cy="71.6851" r="2" fill="#D9D9D9"/>
</svg>