<svg width="92" height="19" viewBox="0 0 92 19" fill="none" xmlns="http://www.w3.org/2000/svg">
<path d="M88.2044 6.66196C88.2044 7.08691 87.8705 7.4208 87.4456 7.4208C87.0206 7.4208 86.6868 7.08691 86.6868 6.66196C86.6868 6.23701 87.0206 5.90313 87.4456 5.90313C87.8705 5.90313 88.2044 6.23701 88.2044 6.66196ZM85.9431 4.38546C85.9431 4.81041 85.6092 5.14429 85.1843 5.14429C84.7593 5.14429 84.4254 4.81041 84.4254 4.38546C84.4254 3.96051 84.7593 3.62663 85.1843 3.62663C85.6092 3.62663 85.9431 3.97569 85.9431 4.38546ZM88.2044 4.38546C88.2044 4.81041 87.8705 5.14429 87.4456 5.14429C87.0206 5.14429 86.6868 4.81041 86.6868 4.38546C86.6868 3.96051 87.0206 3.62663 87.4456 3.62663C87.8705 3.62663 88.2044 3.97569 88.2044 4.38546ZM83.6666 4.38546C83.6666 4.81041 83.3327 5.14429 82.9078 5.14429C82.4828 5.14429 82.1489 4.81041 82.1489 4.38546C82.1489 3.96051 82.4828 3.62663 82.9078 3.62663C83.3327 3.62663 83.6666 3.97569 83.6666 4.38546ZM89.4944 1.95719C89.7828 2.24555 89.7828 2.7312 89.4944 3.03474C89.2061 3.32309 88.7204 3.32309 88.4321 3.03474C88.1437 2.74638 88.1437 2.26073 88.4321 1.95719C88.7204 1.66883 89.1909 1.66883 89.4944 1.95719ZM91.3764 0.454701C91.6647 0.743058 91.6647 1.22871 91.3764 1.53225C91.088 1.8206 90.6023 1.8206 90.314 1.53225C90.0256 1.24389 90.0256 0.758234 90.314 0.454701C90.6023 0.151167 91.088 0.151167 91.3764 0.454701ZM81.0259 4.38546C81.0259 4.81041 80.692 5.14429 80.267 5.14429C79.8421 5.14429 79.5082 4.81041 79.5082 4.38546C79.5082 3.96051 79.8421 3.62663 80.267 3.62663C80.692 3.62663 81.0259 3.97569 81.0259 4.38546ZM78.7645 4.38546C78.7645 4.81041 78.4306 5.14429 78.0057 5.14429C77.5807 5.14429 77.2469 4.81041 77.2469 4.38546C77.2469 3.96051 77.5807 3.62663 78.0057 3.62663C78.4306 3.62663 78.7645 3.97569 78.7645 4.38546ZM87.4456 8.17963C87.8554 8.17963 88.2044 8.51352 88.2044 8.93846C88.2044 9.36341 87.8705 9.6973 87.4456 9.6973C87.0206 9.6973 86.6868 9.36341 86.6868 8.93846C86.6868 8.51352 87.0358 8.17963 87.4456 8.17963ZM79.144 15.7376C79.144 16.1626 78.8101 16.4964 78.3851 16.4964C77.9602 16.4964 77.6263 16.1626 77.6263 15.7376C77.6263 15.3127 77.9602 14.9788 78.3851 14.9788C78.8101 14.994 79.144 15.3278 79.144 15.7376ZM76.8826 13.4763C76.8826 13.9012 76.5487 14.2351 76.1238 14.2351C75.6988 14.2351 75.365 13.9012 75.365 13.4763C75.365 13.0513 75.6988 12.7175 76.1238 12.7175C76.5487 12.7175 76.8826 13.0513 76.8826 13.4763ZM79.144 13.4763C79.144 13.9012 78.8101 14.2351 78.3851 14.2351C77.9602 14.2351 77.6263 13.9012 77.6263 13.4763C77.6263 13.0513 77.9602 12.7175 78.3851 12.7175C78.8101 12.7175 79.144 13.0513 79.144 13.4763ZM74.6213 13.4763C74.6213 13.9012 74.2874 14.2351 73.8625 14.2351C73.4375 14.2351 73.1036 13.9012 73.1036 13.4763C73.1036 13.0513 73.4375 12.7175 73.8625 12.7175C74.2874 12.7175 74.6213 13.0513 74.6213 13.4763ZM78.3851 17.2553C78.7949 17.2553 79.144 17.5892 79.144 18.0141C79.144 18.4391 78.8101 18.7729 78.3851 18.7729C77.9602 18.7729 77.6263 18.4391 77.6263 18.0141C77.6415 17.6043 77.9753 17.2553 78.3851 17.2553ZM87.4456 10.441C87.8554 10.441 88.2044 10.7748 88.2044 11.1998C88.2044 11.6247 87.8705 11.9586 87.4456 11.9586C87.0206 11.9586 86.6868 11.6247 86.6868 11.1998C86.6868 10.7748 87.0358 10.441 87.4456 10.441ZM87.4456 13.0969C87.8554 13.0969 88.2044 13.4308 88.2044 13.8557C88.2044 14.2807 87.8705 14.6145 87.4456 14.6145C87.0206 14.6145 86.6868 14.2807 86.6868 13.8557C86.6868 13.4308 87.0358 13.0969 87.4456 13.0969ZM82.5435 10.0615C82.5435 10.4865 82.2096 10.8204 81.7847 10.8204C81.3597 10.8204 81.0259 10.4865 81.0259 10.0615C81.0259 9.63659 81.3597 9.3027 81.7847 9.3027C82.2096 9.31788 82.5435 9.65177 82.5435 10.0615ZM83.8335 7.63327C84.1219 7.92163 84.1219 8.40728 83.8335 8.71081C83.5452 8.99917 83.0595 8.99917 82.7712 8.71081C82.4828 8.42246 82.4828 7.9368 82.7712 7.63327C83.0595 7.34491 83.53 7.34491 83.8335 7.63327ZM85.7155 6.13078C86.0038 6.41914 86.0038 6.90479 85.7155 7.20832C85.4271 7.49668 84.9414 7.49668 84.6531 7.20832C84.3647 6.91996 84.3647 6.43431 84.6531 6.13078C84.9414 5.82724 85.4271 5.82724 85.7155 6.13078ZM80.8134 11.048C81.1017 11.3364 81.1017 11.822 80.8134 12.1256C80.525 12.4139 80.0394 12.4139 79.751 12.1256C79.4627 11.8372 79.4627 11.3516 79.751 11.048C80.0394 10.7445 80.5099 10.7445 80.8134 11.048ZM50.9609 16.5268C49.2004 18.0141 47.1363 18.7729 44.7688 18.7729C42.2191 18.7729 40.0185 17.8775 38.1669 16.1019C36.3305 14.2958 35.4048 12.1104 35.4048 9.53035C35.4048 6.95032 36.3305 4.76488 38.1669 2.95885C40.0185 1.13765 42.2191 0.227051 44.7688 0.227051C46.2713 0.227051 47.5916 0.469878 48.7451 0.970708C49.8833 1.45636 51.0367 2.2759 52.1902 3.42933L52.2812 3.52039L50.5056 5.44783L50.3993 5.35677C49.2611 4.41581 48.396 3.77839 47.7738 3.44451C46.8632 2.95885 45.8615 2.7312 44.7688 2.7312C42.8717 2.7312 41.3085 3.39898 40.0488 4.71935C38.7892 6.03972 38.1517 7.64845 38.1517 9.51518C38.1517 11.3819 38.7892 12.9603 40.0488 14.2958C41.3085 15.6162 42.8869 16.284 44.7688 16.284C46.5141 16.284 48.0014 15.7831 49.2004 14.7663C50.46 13.7191 51.0975 12.3836 51.1278 10.7445H44.9509V8.25551H53.9051V9.89459C53.9203 12.6567 52.9338 14.8574 50.9609 16.5268ZM66.3652 16.9062C65.1055 18.1204 63.5879 18.7274 61.8274 18.7274C60.0669 18.7274 58.5644 18.1204 57.3047 16.9062C56.0451 15.6921 55.4076 14.1441 55.4076 12.2925C55.4076 10.441 56.0299 8.90811 57.2744 7.70915C58.534 6.47984 60.0517 5.87277 61.8122 5.87277C63.5727 5.87277 65.0752 6.47984 66.3348 7.70915C67.6249 8.92329 68.2623 10.4561 68.2623 12.2925C68.2623 14.1289 67.64 15.6921 66.3652 16.9062ZM64.5743 9.36341C63.861 8.61975 62.9504 8.24034 61.8274 8.24034C60.7043 8.24034 59.7785 8.61975 59.05 9.36341C58.3519 10.0919 58.0028 11.0632 58.0028 12.2925C58.0028 13.5218 58.3671 14.4628 59.0804 15.2216C59.7937 15.9653 60.7043 16.3447 61.8274 16.3447C62.9504 16.3447 63.861 15.9653 64.5743 15.2216C65.2876 14.478 65.6519 13.5066 65.6519 12.2925C65.6519 11.0936 65.2876 10.1222 64.5743 9.36341ZM33.5229 4.56758C33.2649 4.85594 32.9006 4.99253 32.4301 4.99253C31.99 4.99253 31.6258 4.85594 31.3374 4.56758C31.0794 4.26405 30.9428 3.91498 30.9428 3.50521C30.9428 3.09544 31.0794 2.74638 31.3374 2.4732C31.6106 2.18484 31.9748 2.04825 32.4301 2.04825C32.8854 2.04825 33.2345 2.20002 33.4925 2.50355C33.7657 2.77673 33.9175 3.1258 33.9175 3.50521C33.9175 3.93016 33.796 4.2944 33.5229 4.56758ZM31.1705 18.4694V6.1156H33.6898V18.4694H31.1705ZM27.6798 16.8455C26.5112 18.09 25.0087 18.7122 23.1875 18.7122C21.2601 18.7122 19.6817 18.0445 18.4828 16.7089C17.3597 15.4493 16.7982 13.8709 16.7982 11.9738C16.7982 10.2588 17.3749 8.81705 18.5435 7.63327C19.7273 6.43431 21.1235 5.84242 22.7626 5.84242C24.0526 5.84242 25.2212 6.13078 26.2684 6.69231L26.3443 6.73784V9.42412L26.1318 9.27235C25.7221 8.99917 25.2212 8.75634 24.6597 8.54387C24.1133 8.3314 23.6125 8.22516 23.1572 8.22516C21.9886 8.22516 21.0628 8.5894 20.3647 9.31788C19.6666 10.0464 19.3175 11.0177 19.3175 12.247C19.3175 13.4763 19.6817 14.4324 20.395 15.1913C21.1235 15.9349 22.0645 16.3143 23.2179 16.3143C24.2954 16.3143 25.1757 15.9046 25.889 15.1002C26.6023 14.2958 26.9665 13.0969 26.9665 11.5185V0.515408H29.4555V11.9131C29.4555 13.9468 28.8636 15.5858 27.6798 16.8455ZM12.7763 18.4694V11.2757C12.7763 10.3954 12.5032 9.68212 11.9568 9.12058C11.4256 8.54387 10.773 8.25551 9.96866 8.25551C9.20983 8.25551 8.55723 8.54387 7.98052 9.12058C7.43416 9.68212 7.16098 10.3954 7.16098 11.2757V18.4694H4.672V11.2757C4.672 9.68212 5.17283 8.37693 6.15932 7.37527C7.16098 6.35843 8.43582 5.8576 9.96866 5.8576C11.5015 5.8576 12.7612 6.35843 13.778 7.37527C14.7948 8.3921 15.2957 9.6973 15.2957 11.2757V18.4694H12.7763ZM0.543945 18.4694V0.530584H3.18469V18.4694H0.543945Z" fill="white"/>
</svg>
