<svg xmlns="http://www.w3.org/2000/svg" width="175" height="175" viewBox="0 0 175 175" fill="none">
<rect x="0.865967" y="0.195312" width="174" height="174" rx="32" fill="#0561E2"/>
<mask id="mask0_840_43590" style="mask-type:alpha" maskUnits="userSpaceOnUse" x="19" y="18" width="138" height="138">
<path d="M87.7975 18.4925V53.3004C87.7975 53.3004 87.706 54.1248 88.7119 54.1248C103.982 54.4912 117.24 65.5748 120.166 80.4139C121.812 88.5663 120.532 96.2606 117.332 103.772C115.046 109.085 111.754 113.665 107.914 117.97C102.062 124.565 95.2953 130.061 88.1632 135.099C88.1056 135.157 87.9753 135.251 87.8868 135.312C87.8873 134.079 87.8937 125.77 87.9782 121.452C87.9782 120.445 87.7953 120.262 86.881 120.262C71.3366 119.987 60.2727 108.903 56.7066 98.1861C55.2436 93.8809 54.695 89.3925 54.9693 84.8125C55.5179 75.1946 59.3583 67.0422 65.1188 59.6226C69.4164 54.035 74.5369 49.3635 79.9317 44.9667C82.3091 43.0431 84.7779 41.2111 87.2467 39.4707C87.4296 39.2875 87.6124 39.1959 87.7953 39.1043V18.586C83.5892 18.4028 79.3831 18.8608 75.177 19.6852C60.0898 22.6164 47.2885 29.6695 36.9561 41.2111C25.0692 54.5846 19.2172 70.3398 19.3087 88.2933C19.3087 92.7817 19.7659 97.2701 20.7717 101.667C25.2521 121.269 36.1332 136.2 53.1405 146.459C60.8213 151.131 69.1421 153.97 78.0115 155.253C81.3033 155.711 84.5036 155.985 87.7953 155.894C87.7953 154.003 87.7953 152.119 87.7975 150.241V155.8C92.4608 155.892 97.1241 155.342 101.696 154.426C115.046 151.587 126.567 145.358 136.259 135.74C144.214 127.771 149.883 118.336 153.267 107.619C156.193 98.1842 157.107 88.4747 155.918 78.6735C154.913 70.3379 152.352 62.3688 148.42 54.8576C141.563 41.8504 131.413 32.3241 118.52 25.6373C112.303 22.4313 105.719 20.4161 98.8614 19.3169C95.2039 18.7673 91.5464 18.4009 87.7975 18.4925Z" fill="#0561E2"/>
</mask>
<g mask="url(#mask0_840_43590)">
<circle cx="21.529" cy="133.135" r="2.65348" fill="#D9D9D9"/>
<circle cx="26.8358" cy="133.135" r="2.65348" fill="#D9D9D9"/>
<circle cx="32.1427" cy="133.135" r="2.65348" fill="#D9D9D9"/>
<circle cx="37.4496" cy="133.135" r="2.65348" fill="#D9D9D9"/>
<circle opacity="0.4" cx="42.7567" cy="133.135" r="2.65348" fill="#D9D9D9"/>
<circle opacity="0.4" cx="48.0636" cy="133.135" r="2.65348" fill="#D9D9D9"/>
<circle cx="79.9054" cy="133.135" r="2.65348" fill="#578FF0"/>
<circle cx="85.2123" cy="133.135" r="2.65348" fill="#D9D9D9"/>
<circle cx="101.133" cy="133.135" r="2.65348" fill="#D9D9D9"/>
<circle cx="106.44" cy="133.135" r="2.65348" fill="#D9D9D9"/>
<circle opacity="0.4" cx="21.529" cy="122.522" r="2.65348" fill="#D9D9D9"/>
<circle cx="53.3708" cy="31.9567" r="2.65348" fill="#D9D9D9"/>
<circle cx="48.0636" cy="31.9567" r="2.65348" fill="#D9D9D9"/>
<circle cx="58.6776" cy="26.6496" r="2.65348" fill="#D9D9D9"/>
<circle cx="53.3708" cy="26.6496" r="2.65348" fill="#D9D9D9"/>
<circle cx="42.7567" cy="31.9567" r="2.65348" fill="#D9D9D9"/>
<circle cx="44.0834" cy="28.3234" r="2.65348" fill="#D9D9D9"/>
<circle cx="38.7765" cy="28.3234" r="2.65348" fill="#D9D9D9"/>
<circle cx="22.8556" cy="37.6105" r="2.65348" fill="#D9D9D9"/>
<circle cx="22.8556" cy="42.9176" r="2.65348" fill="#D9D9D9"/>
<circle cx="22.8556" cy="48.2248" r="2.65348" fill="#D9D9D9"/>
<circle cx="17.5487" cy="48.2248" r="2.65348" fill="#D9D9D9"/>
<circle cx="49.3905" cy="26.6496" r="2.65348" fill="#D9D9D9"/>
<circle cx="60.0043" cy="17.7096" r="2.65348" fill="#D9D9D9"/>
<circle cx="44.0834" cy="17.7096" r="2.65348" fill="#D9D9D9"/>
<circle cx="130.321" cy="17.7096" r="2.65348" fill="#D9D9D9"/>
<circle cx="140.935" cy="28.3234" r="2.65348" fill="#D9D9D9"/>
<circle cx="146.242" cy="28.3234" r="2.65348" fill="#D9D9D9"/>
<circle cx="140.935" cy="23.0163" r="2.65348" fill="#D9D9D9"/>
<circle cx="140.935" cy="33.6305" r="2.65348" fill="#D9D9D9"/>
<circle cx="140.935" cy="38.9372" r="2.65348" fill="#D9D9D9"/>
<circle cx="151.549" cy="38.9372" r="2.65348" fill="#D9D9D9"/>
<circle cx="156.856" cy="38.9372" r="2.65348" fill="#D9D9D9"/>
<circle cx="156.856" cy="33.6305" r="2.65348" fill="#D9D9D9"/>
<circle cx="130.321" cy="23.0163" r="2.65348" fill="#D9D9D9"/>
<circle opacity="0.4" cx="58.6776" cy="31.9567" r="2.65348" fill="#D9D9D9"/>
<circle opacity="0.4" cx="65.3112" cy="17.7096" r="2.65348" fill="#D9D9D9"/>
<circle opacity="0.4" cx="85.2123" cy="31.9567" r="2.65348" fill="#D9D9D9"/>
<circle opacity="0.4" cx="79.9054" cy="31.9567" r="2.65348" fill="#D9D9D9"/>
<circle opacity="0.4" cx="125.015" cy="17.7096" r="2.65348" fill="#D9D9D9"/>
<circle opacity="0.4" cx="135.629" cy="23.0163" r="2.65348" fill="#D9D9D9"/>
<circle opacity="0.4" cx="135.629" cy="17.7096" r="2.65348" fill="#D9D9D9"/>
<circle opacity="0.4" cx="146.242" cy="38.9372" r="2.65348" fill="#D9D9D9"/>
<circle opacity="0.4" cx="151.549" cy="33.6305" r="2.65348" fill="#D9D9D9"/>
<circle opacity="0.4" cx="156.856" cy="44.2443" r="2.65348" fill="#D9D9D9"/>
<circle opacity="0.4" cx="63.9845" cy="26.6496" r="2.65348" fill="#D9D9D9"/>
<circle opacity="0.4" cx="69.2914" cy="26.6496" r="2.65348" fill="#D9D9D9"/>
<circle opacity="0.4" cx="74.5983" cy="26.6496" r="2.65348" fill="#D9D9D9"/>
<circle opacity="0.4" cx="60.0043" cy="21.3424" r="2.65348" fill="#D9D9D9"/>
<circle opacity="0.4" cx="54.6974" cy="23.0163" r="2.65348" fill="#D9D9D9"/>
<circle opacity="0.4" cx="44.0834" cy="23.0163" r="2.65348" fill="#D9D9D9"/>
<circle opacity="0.4" cx="33.4696" cy="23.0163" r="2.65348" fill="#D9D9D9"/>
<circle opacity="0.4" cx="49.3905" cy="17.7096" r="2.65348" fill="#D9D9D9"/>
<circle opacity="0.4" cx="38.7765" cy="33.6305" r="2.65348" fill="#D9D9D9"/>
<circle opacity="0.4" cx="33.4696" cy="33.6305" r="2.65348" fill="#D9D9D9"/>
<circle opacity="0.4" cx="33.4696" cy="28.3234" r="2.65348" fill="#D9D9D9"/>
<circle opacity="0.4" cx="28.1625" cy="33.6305" r="2.65348" fill="#D9D9D9"/>
<circle opacity="0.4" cx="28.1625" cy="28.3234" r="2.65348" fill="#D9D9D9"/>
<circle opacity="0.4" cx="63.9845" cy="31.9567" r="2.65348" fill="#D9D9D9"/>
<circle cx="90.5192" cy="122.522" r="2.65348" fill="#D9D9D9"/>
<circle cx="95.8263" cy="122.522" r="2.65348" fill="#D9D9D9"/>
<circle cx="106.44" cy="122.522" r="2.65348" fill="#D9D9D9"/>
<circle cx="111.747" cy="122.522" r="2.65348" fill="#D9D9D9"/>
<circle cx="117.054" cy="122.522" r="2.65348" fill="#D9D9D9"/>
<circle cx="122.361" cy="122.522" r="2.65348" fill="#D9D9D9"/>
<circle cx="117.054" cy="127.829" r="2.65348" fill="#D9D9D9"/>
<circle cx="122.361" cy="138.443" r="2.65348" fill="#D9D9D9"/>
<circle cx="138.282" cy="138.443" r="2.65348" fill="#D9D9D9"/>
<circle cx="143.589" cy="138.443" r="2.65348" fill="#D9D9D9"/>
<circle cx="143.589" cy="143.75" r="2.65348" fill="#D9D9D9"/>
<circle cx="138.282" cy="143.75" r="2.65348" fill="#D9D9D9"/>
<circle cx="132.975" cy="122.522" r="2.65348" fill="#D9D9D9"/>
<circle cx="138.282" cy="106.601" r="2.65348" fill="#D9D9D9"/>
<circle cx="138.282" cy="111.908" r="2.65348" fill="#D9D9D9"/>
<circle cx="143.589" cy="111.908" r="2.65348" fill="#D9D9D9"/>
<circle cx="158.183" cy="106.601" r="2.65348" fill="#D9D9D9"/>
<circle opacity="0.4" cx="143.589" cy="122.522" r="2.65348" fill="#D9D9D9"/>
<circle opacity="0.4" cx="130.688" cy="132.789" r="2.65348" fill="#D9D9D9"/>
<circle opacity="0.4" cx="142.262" cy="101.294" r="2.65348" fill="#D9D9D9"/>
<circle opacity="0.4" cx="148.896" cy="138.443" r="2.65348" fill="#D9D9D9"/>
<circle opacity="0.4" cx="143.589" cy="149.057" r="2.65348" fill="#D9D9D9"/>
<circle opacity="0.4" cx="132.975" cy="143.75" r="2.65348" fill="#D9D9D9"/>
<circle opacity="0.4" cx="127.668" cy="143.75" r="2.65348" fill="#D9D9D9"/>
<circle opacity="0.4" cx="111.747" cy="127.829" r="2.65348" fill="#D9D9D9"/>
<circle opacity="0.4" cx="111.747" cy="133.135" r="2.65348" fill="#D9D9D9"/>
<circle opacity="0.4" cx="117.054" cy="138.443" r="2.65348" fill="#D9D9D9"/>
<circle opacity="0.4" cx="117.054" cy="143.75" r="2.65348" fill="#D9D9D9"/>
<circle opacity="0.4" cx="148.896" cy="133.135" r="2.65348" fill="#D9D9D9"/>
<circle opacity="0.4" cx="154.203" cy="133.135" r="2.65348" fill="#D9D9D9"/>
<circle opacity="0.4" cx="154.203" cy="138.443" r="2.65348" fill="#D9D9D9"/>
<circle opacity="0.4" cx="154.203" cy="127.829" r="2.65348" fill="#D9D9D9"/>
<circle opacity="0.4" cx="154.203" cy="122.522" r="2.65348" fill="#D9D9D9"/>
<circle opacity="0.4" cx="158.183" cy="111.908" r="2.65348" fill="#D9D9D9"/>
<circle opacity="0.4" cx="158.183" cy="101.294" r="2.65348" fill="#D9D9D9"/>
<circle opacity="0.4" cx="122.361" cy="90.6803" r="2.65348" fill="#D9D9D9"/>
<circle opacity="0.4" cx="138.282" cy="90.6803" r="2.65348" fill="#D9D9D9"/>
<circle opacity="0.4" cx="143.589" cy="90.6803" r="2.65348" fill="#D9D9D9"/>
<circle cx="21.529" cy="138.443" r="2.65348" fill="#D9D9D9"/>
<circle cx="26.8358" cy="138.443" r="2.65348" fill="#D9D9D9"/>
<circle cx="32.1427" cy="138.443" r="2.65348" fill="#D9D9D9"/>
<circle cx="32.1427" cy="143.75" r="2.65348" fill="#578FF0"/>
<circle cx="32.1427" cy="149.057" r="2.65348" fill="#578FF0"/>
<circle cx="37.4496" cy="138.443" r="2.65348" fill="#D9D9D9"/>
<circle cx="37.4496" cy="143.75" r="2.65348" fill="#578FF0"/>
<circle cx="37.4496" cy="149.057" r="2.65348" fill="#D9D9D9"/>
<circle cx="42.7567" cy="138.443" r="2.65348" fill="#D9D9D9"/>
<circle cx="42.7567" cy="143.75" r="2.65348" fill="#578FF0"/>
<circle cx="42.7567" cy="149.057" r="2.65348" fill="#D9D9D9"/>
<circle cx="42.7567" cy="154.363" r="2.65348" fill="#D9D9D9"/>
<circle cx="48.0636" cy="138.443" r="2.65348" fill="#D9D9D9"/>
<circle cx="48.0636" cy="143.75" r="2.65348" fill="#D9D9D9"/>
<circle cx="48.0636" cy="149.057" r="2.65348" fill="#D9D9D9"/>
<circle cx="48.0636" cy="154.363" r="2.65348" fill="#D9D9D9"/>
<circle cx="53.3708" cy="138.443" r="2.65348" fill="#578FF0"/>
<circle cx="53.3708" cy="143.75" r="2.65348" fill="#578FF0"/>
<circle cx="53.3708" cy="149.057" r="2.65348" fill="#D9D9D9"/>
<circle cx="53.3708" cy="154.363" r="2.65348" fill="#D9D9D9"/>
<circle cx="58.6776" cy="138.443" r="2.65348" fill="#D9D9D9"/>
<circle cx="58.6776" cy="143.75" r="2.65348" fill="#578FF0"/>
<circle cx="58.6776" cy="149.057" r="2.65348" fill="#D9D9D9"/>
<circle cx="58.6776" cy="154.363" r="2.65348" fill="#D9D9D9"/>
<circle cx="63.9845" cy="143.75" r="2.65348" fill="#D9D9D9"/>
<circle cx="63.9845" cy="149.057" r="2.65348" fill="#D9D9D9"/>
<circle cx="74.5983" cy="143.75" r="2.65348" fill="#D9D9D9"/>
<circle cx="74.5983" cy="149.057" r="2.65348" fill="#D9D9D9"/>
<circle cx="74.5983" cy="154.363" r="2.65348" fill="#578FF0"/>
<circle cx="63.9845" cy="154.363" r="2.65348" fill="#D9D9D9"/>
<circle cx="69.2914" cy="143.75" r="2.65348" fill="#D9D9D9"/>
<circle cx="69.2914" cy="149.057" r="2.65348" fill="#D9D9D9"/>
<circle cx="79.9054" cy="143.75" r="2.65348" fill="#D9D9D9"/>
<circle cx="79.9054" cy="149.057" r="2.65348" fill="#D9D9D9"/>
<circle cx="69.2914" cy="154.363" r="2.65348" fill="#D9D9D9"/>
<circle cx="74.5983" cy="138.443" r="2.65348" fill="#578FF0"/>
<circle cx="79.9054" cy="138.443" r="2.65348" fill="#578FF0"/>
<circle cx="85.2123" cy="138.443" r="2.65348" fill="#D9D9D9"/>
<circle cx="85.2123" cy="143.75" r="2.65348" fill="#D9D9D9"/>
<circle cx="90.5192" cy="138.443" r="2.65348" fill="#D9D9D9"/>
<circle cx="90.5192" cy="143.75" r="2.65348" fill="#D9D9D9"/>
<circle cx="90.5192" cy="149.057" r="2.65348" fill="#D9D9D9"/>
<circle cx="85.2123" cy="154.363" r="2.65348" fill="#D9D9D9"/>
<circle cx="95.8263" cy="138.443" r="2.65348" fill="#D9D9D9"/>
<circle cx="95.8263" cy="143.75" r="2.65348" fill="#578FF0"/>
<circle cx="101.133" cy="138.443" r="2.65348" fill="#D9D9D9"/>
<circle cx="101.133" cy="143.75" r="2.65348" fill="#D9D9D9"/>
<circle cx="95.8263" cy="149.057" r="2.65348" fill="#D9D9D9"/>
<circle cx="111.747" cy="149.057" r="2.65348" fill="#D9D9D9"/>
<circle cx="90.5192" cy="154.363" r="2.65348" fill="#D9D9D9"/>
<circle cx="106.44" cy="138.443" r="2.65348" fill="#D9D9D9"/>
<circle cx="106.44" cy="143.75" r="2.65348" fill="#D9D9D9"/>
<circle cx="101.133" cy="149.057" r="2.65348" fill="#D9D9D9"/>
<circle cx="117.054" cy="149.057" r="2.65348" fill="#578FF0"/>
<circle cx="95.8263" cy="154.363" r="2.65348" fill="#D9D9D9"/>
<circle cx="111.747" cy="154.363" r="2.65348" fill="#D9D9D9"/>
<circle cx="132.975" cy="154.363" r="2.65348" fill="#D9D9D9"/>
<circle cx="106.44" cy="149.057" r="2.65348" fill="#D9D9D9"/>
<circle cx="106.44" cy="154.363" r="2.65348" fill="#D9D9D9"/>
<circle cx="127.668" cy="154.363" r="2.65348" fill="#D9D9D9"/>
<circle cx="122.361" cy="154.363" r="2.65348" fill="#578FF0"/>
<circle cx="101.133" cy="154.363" r="2.65348" fill="#D9D9D9"/>
<circle cx="117.054" cy="154.363" r="2.65348" fill="#D9D9D9"/>
<circle cx="138.282" cy="154.363" r="2.65348" fill="#D9D9D9"/>
<circle cx="26.8358" cy="127.829" r="2.65348" fill="#D9D9D9"/>
<circle cx="48.0636" cy="127.829" r="2.65348" fill="#D9D9D9"/>
<circle cx="21.529" cy="127.829" r="2.65348" fill="#D9D9D9"/>
<circle cx="32.1427" cy="127.829" r="2.65348" fill="#D9D9D9"/>
<circle cx="79.9054" cy="127.829" r="2.65348" fill="#578FF0"/>
<circle cx="85.2123" cy="127.829" r="2.65348" fill="#D9D9D9"/>
<circle cx="90.5192" cy="127.829" r="2.65348" fill="#D9D9D9"/>
<circle cx="95.8263" cy="127.829" r="2.65348" fill="#D9D9D9"/>
<circle cx="92.8061" cy="133.135" r="2.65348" fill="#D9D9D9"/>
<circle cx="101.133" cy="127.829" r="2.65348" fill="#578FF0"/>
<circle opacity="0.4" cx="21.529" cy="111.561" r="2.65348" fill="#D9D9D9"/>
<circle opacity="0.4" cx="26.8358" cy="111.561" r="2.65348" fill="#D9D9D9"/>
<circle cx="32.1427" cy="111.561" r="2.65348" fill="#D9D9D9"/>
<circle cx="37.4496" cy="111.561" r="2.65348" fill="#D9D9D9"/>
<circle opacity="0.4" cx="42.7567" cy="111.561" r="2.65348" fill="#D9D9D9"/>
<circle cx="48.0636" cy="111.561" r="2.65348" fill="#D9D9D9"/>
<circle opacity="0.4" cx="53.3708" cy="111.561" r="2.65348" fill="#D9D9D9"/>
<circle cx="58.6776" cy="111.561" r="2.65348" fill="#D9D9D9"/>
<circle cx="63.9845" cy="111.561" r="2.65348" fill="#D9D9D9"/>
<circle opacity="0.4" cx="69.2914" cy="111.561" r="2.65348" fill="#D9D9D9"/>
<circle cx="74.5983" cy="111.561" r="2.65348" fill="#D9D9D9"/>
<circle opacity="0.4" cx="79.9054" cy="111.561" r="2.65348" fill="#D9D9D9"/>
<circle cx="85.2123" cy="111.561" r="2.65348" fill="#D9D9D9"/>
<circle cx="90.5192" cy="111.561" r="2.65348" fill="#D9D9D9"/>
<circle cx="95.8263" cy="111.561" r="2.65348" fill="#D9D9D9"/>
<circle cx="101.133" cy="111.561" r="2.65348" fill="#D9D9D9"/>
<circle opacity="0.4" cx="106.44" cy="111.561" r="2.65348" fill="#D9D9D9"/>
<circle cx="111.747" cy="111.561" r="2.65348" fill="#D9D9D9"/>
<circle cx="117.054" cy="111.561" r="2.65348" fill="#D9D9D9"/>
<circle cx="122.361" cy="111.561" r="2.65348" fill="#D9D9D9"/>
<circle opacity="0.4" cx="21.529" cy="116.868" r="2.65348" fill="#D9D9D9"/>
<circle opacity="0.4" cx="26.8358" cy="116.868" r="2.65348" fill="#D9D9D9"/>
<circle cx="32.1427" cy="116.868" r="2.65348" fill="#D9D9D9"/>
<circle cx="37.4496" cy="116.868" r="2.65348" fill="#D9D9D9"/>
<circle opacity="0.4" cx="42.7567" cy="116.868" r="2.65348" fill="#D9D9D9"/>
<circle cx="48.0636" cy="116.868" r="2.65348" fill="#D9D9D9"/>
<circle opacity="0.4" cx="53.3708" cy="116.868" r="2.65348" fill="#D9D9D9"/>
<circle cx="58.6776" cy="116.868" r="2.65348" fill="#D9D9D9"/>
<circle cx="63.9845" cy="116.868" r="2.65348" fill="#D9D9D9"/>
<circle opacity="0.4" cx="69.2914" cy="116.868" r="2.65348" fill="#D9D9D9"/>
<circle cx="74.5983" cy="116.868" r="2.65348" fill="#D9D9D9"/>
<circle opacity="0.4" cx="79.9054" cy="116.868" r="2.65348" fill="#D9D9D9"/>
<circle cx="85.2123" cy="116.868" r="2.65348" fill="#D9D9D9"/>
<circle cx="90.5192" cy="116.868" r="2.65348" fill="#D9D9D9"/>
<circle cx="95.8263" cy="116.868" r="2.65348" fill="#D9D9D9"/>
<circle cx="101.133" cy="116.868" r="2.65348" fill="#D9D9D9"/>
<circle opacity="0.4" cx="106.44" cy="116.868" r="2.65348" fill="#D9D9D9"/>
<circle cx="111.747" cy="116.868" r="2.65348" fill="#D9D9D9"/>
<circle cx="117.054" cy="116.868" r="2.65348" fill="#D9D9D9"/>
<circle cx="122.361" cy="116.868" r="2.65348" fill="#D9D9D9"/>
<circle cx="32.1427" cy="122.174" r="2.65348" fill="#D9D9D9"/>
<circle opacity="0.4" cx="37.4496" cy="122.174" r="2.65348" fill="#D9D9D9"/>
<circle opacity="0.4" cx="42.7565" cy="122.174" r="2.65348" fill="#D9D9D9"/>
<circle cx="48.0636" cy="122.174" r="2.65348" fill="#D9D9D9"/>
<circle cx="53.3705" cy="122.174" r="2.65348" fill="#D9D9D9"/>
<circle opacity="0.4" cx="58.6776" cy="122.174" r="2.65348" fill="#D9D9D9"/>
<circle cx="63.9843" cy="122.174" r="2.65348" fill="#D9D9D9"/>
<circle opacity="0.4" cx="69.2914" cy="122.174" r="2.65348" fill="#D9D9D9"/>
<circle cx="74.5983" cy="122.174" r="2.65348" fill="#D9D9D9"/>
<circle cx="79.9052" cy="122.174" r="2.65348" fill="#D9D9D9"/>
<circle opacity="0.4" cx="85.2123" cy="122.174" r="2.65348" fill="#D9D9D9"/>
<circle cx="90.5192" cy="122.174" r="2.65348" fill="#D9D9D9"/>
<circle cx="95.8261" cy="122.174" r="2.65348" fill="#D9D9D9"/>
<circle cx="101.133" cy="122.174" r="2.65348" fill="#D9D9D9"/>
<circle cx="2.65348" cy="2.65348" r="2.65348" transform="matrix(-1 0 0 1 135.628 103.601)" fill="#D9D9D9"/>
<circle opacity="0.4" cx="2.65348" cy="2.65348" r="2.65348" transform="matrix(-1 0 0 1 130.321 103.601)" fill="#D9D9D9"/>
<circle opacity="0.4" cx="2.65348" cy="2.65348" r="2.65348" transform="matrix(-1 0 0 1 125.014 103.601)" fill="#D9D9D9"/>
<circle cx="2.65348" cy="2.65348" r="2.65348" transform="matrix(-1 0 0 1 119.707 103.601)" fill="#D9D9D9"/>
<circle cx="2.65348" cy="2.65348" r="2.65348" transform="matrix(-1 0 0 1 114.4 103.601)" fill="#D9D9D9"/>
<circle opacity="0.4" cx="2.65348" cy="2.65348" r="2.65348" transform="matrix(-1 0 0 1 109.094 103.601)" fill="#D9D9D9"/>
<circle cx="2.65348" cy="2.65348" r="2.65348" transform="matrix(-1 0 0 1 103.787 103.601)" fill="#D9D9D9"/>
<circle opacity="0.4" cx="2.65348" cy="2.65348" r="2.65348" transform="matrix(-1 0 0 1 98.4797 103.601)" fill="#D9D9D9"/>
<circle cx="2.65348" cy="2.65348" r="2.65348" transform="matrix(-1 0 0 1 93.1726 103.601)" fill="#D9D9D9"/>
<circle cx="2.65348" cy="2.65348" r="2.65348" transform="matrix(-1 0 0 1 87.8657 103.601)" fill="#D9D9D9"/>
<circle opacity="0.4" cx="2.65348" cy="2.65348" r="2.65348" transform="matrix(-1 0 0 1 82.5588 103.601)" fill="#D9D9D9"/>
<circle cx="2.65348" cy="2.65348" r="2.65348" transform="matrix(-1 0 0 1 77.2517 103.601)" fill="#D9D9D9"/>
<circle cx="2.65348" cy="2.65348" r="2.65348" transform="matrix(-1 0 0 1 71.9448 103.601)" fill="#D9D9D9"/>
<circle opacity="0.4" cx="2.65348" cy="2.65348" r="2.65348" transform="matrix(-1 0 0 1 66.6379 103.601)" fill="#D9D9D9"/>
<circle opacity="0.4" cx="2.65348" cy="2.65348" r="2.65348" transform="matrix(-1 0 0 1 61.3311 103.601)" fill="#D9D9D9"/>
<circle cx="2.65348" cy="2.65348" r="2.65348" transform="matrix(-1 0 0 1 56.0242 103.601)" fill="#D9D9D9"/>
<circle cx="2.65348" cy="2.65348" r="2.65348" transform="matrix(-1 0 0 1 50.717 103.601)" fill="#D9D9D9"/>
<circle cx="2.65348" cy="2.65348" r="2.65348" transform="matrix(-1 0 0 1 45.4102 103.601)" fill="#D9D9D9"/>
<circle cx="2.65348" cy="2.65348" r="2.65348" transform="matrix(-1 0 0 1 40.103 103.601)" fill="#D9D9D9"/>
<circle opacity="0.4" cx="2.65348" cy="2.65348" r="2.65348" transform="matrix(-1 0 0 1 34.7961 103.601)" fill="#D9D9D9"/>
<circle cx="2.65348" cy="2.65348" r="2.65348" transform="matrix(-1 0 0 1 29.4893 103.601)" fill="#D9D9D9"/>
<circle cx="2.65348" cy="2.65348" r="2.65348" transform="matrix(-1 0 0 1 24.1824 103.601)" fill="#D9D9D9"/>
<circle cx="2.65348" cy="2.65348" r="2.65348" transform="matrix(-1 0 0 1 125.014 98.2935)" fill="#D9D9D9"/>
<circle opacity="0.4" cx="2.65348" cy="2.65348" r="2.65348" transform="matrix(-1 0 0 1 119.707 98.2935)" fill="#D9D9D9"/>
<circle opacity="0.4" cx="2.65348" cy="2.65348" r="2.65348" transform="matrix(-1 0 0 1 114.4 98.2935)" fill="#D9D9D9"/>
<circle cx="2.65348" cy="2.65348" r="2.65348" transform="matrix(-1 0 0 1 109.094 98.2935)" fill="#D9D9D9"/>
<circle cx="2.65348" cy="2.65348" r="2.65348" transform="matrix(-1 0 0 1 103.787 98.2935)" fill="#D9D9D9"/>
<circle opacity="0.4" cx="2.65348" cy="2.65348" r="2.65348" transform="matrix(-1 0 0 1 98.4797 98.2935)" fill="#D9D9D9"/>
<circle cx="2.65348" cy="2.65348" r="2.65348" transform="matrix(-1 0 0 1 93.1726 98.2935)" fill="#D9D9D9"/>
<circle opacity="0.4" cx="2.65348" cy="2.65348" r="2.65348" transform="matrix(-1 0 0 1 87.8657 98.2935)" fill="#D9D9D9"/>
<circle cx="2.65348" cy="2.65348" r="2.65348" transform="matrix(-1 0 0 1 82.5588 98.2935)" fill="#D9D9D9"/>
<circle cx="2.65348" cy="2.65348" r="2.65348" transform="matrix(-1 0 0 1 77.2517 98.2935)" fill="#D9D9D9"/>
<circle opacity="0.4" cx="2.65348" cy="2.65348" r="2.65348" transform="matrix(-1 0 0 1 71.9448 98.2935)" fill="#D9D9D9"/>
<circle cx="2.65348" cy="2.65348" r="2.65348" transform="matrix(-1 0 0 1 66.6379 98.2935)" fill="#D9D9D9"/>
<circle cx="2.65348" cy="2.65348" r="2.65348" transform="matrix(-1 0 0 1 61.3311 98.2935)" fill="#D9D9D9"/>
<circle cx="2.65348" cy="2.65348" r="2.65348" transform="matrix(-1 0 0 1 56.0242 98.2935)" fill="#D9D9D9"/>
<circle opacity="0.4" cx="2.65348" cy="2.65348" r="2.65348" transform="matrix(-1 0 0 1 50.717 98.2935)" fill="#D9D9D9"/>
<circle cx="2.65348" cy="2.65348" r="2.65348" transform="matrix(-1 0 0 1 45.4102 98.2935)" fill="#D9D9D9"/>
<circle cx="2.65348" cy="2.65348" r="2.65348" transform="matrix(-1 0 0 1 40.103 98.2935)" fill="#D9D9D9"/>
<circle cx="2.65348" cy="2.65348" r="2.65348" transform="matrix(-1 0 0 1 34.7961 98.2935)" fill="#D9D9D9"/>
<circle cx="2.65348" cy="2.65348" r="2.65348" transform="matrix(-1 0 0 1 29.4893 98.2935)" fill="#D9D9D9"/>
<circle opacity="0.4" cx="2.65348" cy="2.65348" r="2.65348" transform="matrix(-1 0 0 1 24.1824 98.2935)" fill="#D9D9D9"/>
<circle cx="2.65348" cy="2.65348" r="2.65348" transform="matrix(-1 0 0 1 135.628 92.9863)" fill="#D9D9D9"/>
<circle opacity="0.4" cx="2.65348" cy="2.65348" r="2.65348" transform="matrix(-1 0 0 1 130.321 92.9863)" fill="#D9D9D9"/>
<circle opacity="0.4" cx="2.65348" cy="2.65348" r="2.65348" transform="matrix(-1 0 0 1 125.014 92.9863)" fill="#D9D9D9"/>
<circle cx="2.65348" cy="2.65348" r="2.65348" transform="matrix(-1 0 0 1 119.707 92.9863)" fill="#D9D9D9"/>
<circle cx="2.65348" cy="2.65348" r="2.65348" transform="matrix(-1 0 0 1 114.4 92.9863)" fill="#D9D9D9"/>
<circle opacity="0.4" cx="2.65348" cy="2.65348" r="2.65348" transform="matrix(-1 0 0 1 109.094 92.9863)" fill="#D9D9D9"/>
<circle cx="2.65348" cy="2.65348" r="2.65348" transform="matrix(-1 0 0 1 103.787 92.9863)" fill="#D9D9D9"/>
<circle opacity="0.4" cx="2.65348" cy="2.65348" r="2.65348" transform="matrix(-1 0 0 1 98.4797 92.9863)" fill="#D9D9D9"/>
<circle cx="2.65348" cy="2.65348" r="2.65348" transform="matrix(-1 0 0 1 93.1726 92.9863)" fill="#D9D9D9"/>
<circle cx="2.65348" cy="2.65348" r="2.65348" transform="matrix(-1 0 0 1 87.8657 92.9863)" fill="#D9D9D9"/>
<circle cx="2.65348" cy="2.65348" r="2.65348" transform="matrix(-1 0 0 1 82.5588 92.9863)" fill="#D9D9D9"/>
<circle cx="2.65348" cy="2.65348" r="2.65348" transform="matrix(-1 0 0 1 77.2517 92.9863)" fill="#D9D9D9"/>
<circle opacity="0.4" cx="2.65348" cy="2.65348" r="2.65348" transform="matrix(-1 0 0 1 71.9448 92.9863)" fill="#D9D9D9"/>
<circle opacity="0.4" cx="2.65348" cy="2.65348" r="2.65348" transform="matrix(-1 0 0 1 66.6379 92.9863)" fill="#D9D9D9"/>
<circle cx="2.65348" cy="2.65348" r="2.65348" transform="matrix(-1 0 0 1 61.3311 92.9863)" fill="#D9D9D9"/>
<circle cx="2.65348" cy="2.65348" r="2.65348" transform="matrix(-1 0 0 1 56.0242 92.9863)" fill="#D9D9D9"/>
<circle cx="2.65348" cy="2.65348" r="2.65348" transform="matrix(-1 0 0 1 50.717 92.9863)" fill="#D9D9D9"/>
<circle cx="2.65348" cy="2.65348" r="2.65348" transform="matrix(-1 0 0 1 45.4102 92.9863)" fill="#D9D9D9"/>
<circle cx="2.65348" cy="2.65348" r="2.65348" transform="matrix(-1 0 0 1 40.103 92.9863)" fill="#D9D9D9"/>
<circle opacity="0.4" cx="2.65348" cy="2.65348" r="2.65348" transform="matrix(-1 0 0 1 34.7961 92.9863)" fill="#D9D9D9"/>
<circle cx="2.65348" cy="2.65348" r="2.65348" transform="matrix(-1 0 0 1 29.4893 92.9863)" fill="#D9D9D9"/>
<circle cx="2.65348" cy="2.65348" r="2.65348" transform="matrix(-1 0 0 1 24.1824 92.9863)" fill="#D9D9D9"/>
<circle cx="2.65348" cy="2.65348" r="2.65348" transform="matrix(-1 0 0 1 135.628 87.6797)" fill="#D9D9D9"/>
<circle opacity="0.4" cx="2.65348" cy="2.65348" r="2.65348" transform="matrix(-1 0 0 1 130.321 87.6797)" fill="#D9D9D9"/>
<circle opacity="0.4" cx="2.65348" cy="2.65348" r="2.65348" transform="matrix(-1 0 0 1 125.014 87.6797)" fill="#D9D9D9"/>
<circle cx="2.65348" cy="2.65348" r="2.65348" transform="matrix(-1 0 0 1 119.707 87.6797)" fill="#D9D9D9"/>
<circle cx="2.65348" cy="2.65348" r="2.65348" transform="matrix(-1 0 0 1 114.4 87.6797)" fill="#D9D9D9"/>
<circle opacity="0.4" cx="2.65348" cy="2.65348" r="2.65348" transform="matrix(-1 0 0 1 109.094 87.6797)" fill="#D9D9D9"/>
<circle cx="2.65348" cy="2.65348" r="2.65348" transform="matrix(-1 0 0 1 103.787 87.6797)" fill="#D9D9D9"/>
<circle opacity="0.4" cx="2.65348" cy="2.65348" r="2.65348" transform="matrix(-1 0 0 1 98.4797 87.6797)" fill="#D9D9D9"/>
<circle cx="2.65348" cy="2.65348" r="2.65348" transform="matrix(-1 0 0 1 93.1726 87.6797)" fill="#D9D9D9"/>
<circle cx="2.65348" cy="2.65348" r="2.65348" transform="matrix(-1 0 0 1 87.8657 87.6797)" fill="#D9D9D9"/>
<circle cx="2.65348" cy="2.65348" r="2.65348" transform="matrix(-1 0 0 1 82.5588 87.6797)" fill="#D9D9D9"/>
<circle cx="2.65348" cy="2.65348" r="2.65348" transform="matrix(-1 0 0 1 77.2517 87.6797)" fill="#D9D9D9"/>
<circle opacity="0.4" cx="2.65348" cy="2.65348" r="2.65348" transform="matrix(-1 0 0 1 71.9448 87.6797)" fill="#D9D9D9"/>
<circle opacity="0.4" cx="2.65348" cy="2.65348" r="2.65348" transform="matrix(-1 0 0 1 66.6379 87.6797)" fill="#D9D9D9"/>
<circle cx="2.65348" cy="2.65348" r="2.65348" transform="matrix(-1 0 0 1 61.3311 87.6797)" fill="#D9D9D9"/>
<circle cx="2.65348" cy="2.65348" r="2.65348" transform="matrix(-1 0 0 1 56.0242 87.6797)" fill="#D9D9D9"/>
<circle cx="2.65348" cy="2.65348" r="2.65348" transform="matrix(-1 0 0 1 50.717 87.6797)" fill="#D9D9D9"/>
<circle cx="2.65348" cy="2.65348" r="2.65348" transform="matrix(-1 0 0 1 45.4102 87.6797)" fill="#D9D9D9"/>
<circle cx="2.65348" cy="2.65348" r="2.65348" transform="matrix(-1 0 0 1 40.103 87.6797)" fill="#D9D9D9"/>
<circle opacity="0.4" cx="2.65348" cy="2.65348" r="2.65348" transform="matrix(-1 0 0 1 34.7961 87.6797)" fill="#D9D9D9"/>
<circle cx="2.65348" cy="2.65348" r="2.65348" transform="matrix(-1 0 0 1 29.4893 87.6797)" fill="#D9D9D9"/>
<circle cx="2.65348" cy="2.65348" r="2.65348" transform="matrix(-1 0 0 1 24.1824 87.6797)" fill="#D9D9D9"/>
<circle cx="2.65348" cy="2.65348" r="2.65348" transform="matrix(-1 0 0 1 140.936 82.3726)" fill="#D9D9D9"/>
<circle opacity="0.4" cx="2.65348" cy="2.65348" r="2.65348" transform="matrix(-1 0 0 1 135.629 82.3726)" fill="#D9D9D9"/>
<circle opacity="0.4" cx="2.65348" cy="2.65348" r="2.65348" transform="matrix(-1 0 0 1 130.322 82.3726)" fill="#D9D9D9"/>
<circle cx="2.65348" cy="2.65348" r="2.65348" transform="matrix(-1 0 0 1 125.015 82.3726)" fill="#D9D9D9"/>
<circle cx="2.65348" cy="2.65348" r="2.65348" transform="matrix(-1 0 0 1 119.708 82.3726)" fill="#D9D9D9"/>
<circle opacity="0.4" cx="2.65348" cy="2.65348" r="2.65348" transform="matrix(-1 0 0 1 114.401 82.3726)" fill="#D9D9D9"/>
<circle cx="2.65348" cy="2.65348" r="2.65348" transform="matrix(-1 0 0 1 109.094 82.3726)" fill="#D9D9D9"/>
<circle opacity="0.4" cx="2.65348" cy="2.65348" r="2.65348" transform="matrix(-1 0 0 1 103.787 82.3726)" fill="#D9D9D9"/>
<circle cx="2.65348" cy="2.65348" r="2.65348" transform="matrix(-1 0 0 1 98.48 82.3726)" fill="#D9D9D9"/>
<circle cx="2.65348" cy="2.65348" r="2.65348" transform="matrix(-1 0 0 1 93.1731 82.3726)" fill="#D9D9D9"/>
<circle cx="2.65348" cy="2.65348" r="2.65348" transform="matrix(-1 0 0 1 87.8662 82.3726)" fill="#D9D9D9"/>
<circle cx="2.65348" cy="2.65348" r="2.65348" transform="matrix(-1 0 0 1 82.5591 82.3726)" fill="#D9D9D9"/>
<circle opacity="0.4" cx="2.65348" cy="2.65348" r="2.65348" transform="matrix(-1 0 0 1 77.2522 82.3726)" fill="#D9D9D9"/>
<circle opacity="0.4" cx="2.65348" cy="2.65348" r="2.65348" transform="matrix(-1 0 0 1 71.9451 82.3726)" fill="#D9D9D9"/>
<circle cx="2.65348" cy="2.65348" r="2.65348" transform="matrix(-1 0 0 1 66.6382 82.3726)" fill="#D9D9D9"/>
<circle cx="2.65348" cy="2.65348" r="2.65348" transform="matrix(-1 0 0 1 61.3315 82.3726)" fill="#D9D9D9"/>
<circle cx="2.65348" cy="2.65348" r="2.65348" transform="matrix(-1 0 0 1 56.0244 82.3726)" fill="#D9D9D9"/>
<circle cx="2.65348" cy="2.65348" r="2.65348" transform="matrix(-1 0 0 1 50.7175 82.3726)" fill="#D9D9D9"/>
<circle cx="2.65348" cy="2.65348" r="2.65348" transform="matrix(-1 0 0 1 45.4104 82.3726)" fill="#D9D9D9"/>
<circle opacity="0.4" cx="2.65348" cy="2.65348" r="2.65348" transform="matrix(-1 0 0 1 40.1035 82.3726)" fill="#D9D9D9"/>
<circle cx="2.65348" cy="2.65348" r="2.65348" transform="matrix(-1 0 0 1 34.7966 82.3726)" fill="#D9D9D9"/>
<circle cx="2.65348" cy="2.65348" r="2.65348" transform="matrix(-1 0 0 1 29.4897 82.3726)" fill="#D9D9D9"/>
<circle cx="2.65348" cy="2.65348" r="2.65348" transform="matrix(-1 0 0 1 24.1826 82.3726)" fill="#D9D9D9"/>
<circle cx="2.65348" cy="2.65348" r="2.65348" transform="matrix(-1 0 0 1 146.242 71.7583)" fill="#D9D9D9"/>
<circle opacity="0.4" cx="2.65348" cy="2.65348" r="2.65348" transform="matrix(-1 0 0 1 140.936 71.7583)" fill="#D9D9D9"/>
<circle cx="2.65348" cy="2.65348" r="2.65348" transform="matrix(-1 0 0 1 135.629 71.7583)" fill="#D9D9D9"/>
<circle cx="2.65348" cy="2.65348" r="2.65348" transform="matrix(-1 0 0 1 130.322 71.7583)" fill="#D9D9D9"/>
<circle cx="2.65348" cy="2.65348" r="2.65348" transform="matrix(-1 0 0 1 125.015 71.7583)" fill="#D9D9D9"/>
<circle cx="2.65348" cy="2.65348" r="2.65348" transform="matrix(-1 0 0 1 119.708 71.7583)" fill="#D9D9D9"/>
<circle opacity="0.4" cx="2.65348" cy="2.65348" r="2.65348" transform="matrix(-1 0 0 1 114.401 71.7583)" fill="#D9D9D9"/>
<circle opacity="0.4" cx="2.65348" cy="2.65348" r="2.65348" transform="matrix(-1 0 0 1 109.094 71.7583)" fill="#D9D9D9"/>
<circle cx="2.65348" cy="2.65348" r="2.65348" transform="matrix(-1 0 0 1 103.787 71.7583)" fill="#D9D9D9"/>
<circle cx="2.65348" cy="2.65348" r="2.65348" transform="matrix(-1 0 0 1 98.48 71.7583)" fill="#D9D9D9"/>
<circle cx="2.65348" cy="2.65348" r="2.65348" transform="matrix(-1 0 0 1 93.1729 71.7583)" fill="#D9D9D9"/>
<circle cx="2.65348" cy="2.65348" r="2.65348" transform="matrix(-1 0 0 1 87.866 71.7583)" fill="#D9D9D9"/>
<circle cx="2.65348" cy="2.65348" r="2.65348" transform="matrix(-1 0 0 1 82.5591 71.7583)" fill="#D9D9D9"/>
<circle opacity="0.4" cx="2.65348" cy="2.65348" r="2.65348" transform="matrix(-1 0 0 1 77.252 71.7583)" fill="#D9D9D9"/>
<circle cx="2.65348" cy="2.65348" r="2.65348" transform="matrix(-1 0 0 1 71.9451 71.7583)" fill="#D9D9D9"/>
<circle cx="2.65348" cy="2.65348" r="2.65348" transform="matrix(-1 0 0 1 66.6382 71.7583)" fill="#D9D9D9"/>
<circle cx="2.65348" cy="2.65348" r="2.65348" transform="matrix(-1 0 0 1 61.3313 71.7583)" fill="#D9D9D9"/>
<circle opacity="0.4" cx="2.65348" cy="2.65348" r="2.65348" transform="matrix(-1 0 0 1 156.856 77.0654)" fill="#D9D9D9"/>
<circle cx="2.65348" cy="2.65348" r="2.65348" transform="matrix(-1 0 0 1 151.549 77.0654)" fill="#D9D9D9"/>
<circle cx="2.65348" cy="2.65348" r="2.65348" transform="matrix(-1 0 0 1 146.242 77.0654)" fill="#D9D9D9"/>
<circle cx="2.65348" cy="2.65348" r="2.65348" transform="matrix(-1 0 0 1 140.936 77.0654)" fill="#D9D9D9"/>
<circle cx="2.65348" cy="2.65348" r="2.65348" transform="matrix(-1 0 0 1 135.628 77.0654)" fill="#D9D9D9"/>
<circle opacity="0.4" cx="2.65348" cy="2.65348" r="2.65348" transform="matrix(-1 0 0 1 130.322 77.0654)" fill="#D9D9D9"/>
<circle opacity="0.4" cx="2.65348" cy="2.65348" r="2.65348" transform="matrix(-1 0 0 1 125.014 77.0654)" fill="#D9D9D9"/>
<circle cx="2.65348" cy="2.65348" r="2.65348" transform="matrix(-1 0 0 1 119.708 77.0654)" fill="#D9D9D9"/>
<circle cx="2.65348" cy="2.65348" r="2.65348" transform="matrix(-1 0 0 1 114.401 77.0654)" fill="#D9D9D9"/>
<circle cx="2.65348" cy="2.65348" r="2.65348" transform="matrix(-1 0 0 1 109.094 77.0654)" fill="#D9D9D9"/>
<circle cx="2.65348" cy="2.65348" r="2.65348" transform="matrix(-1 0 0 1 103.787 77.0654)" fill="#D9D9D9"/>
<circle cx="2.65348" cy="2.65348" r="2.65348" transform="matrix(-1 0 0 1 98.4797 77.0654)" fill="#D9D9D9"/>
<circle opacity="0.4" cx="2.65348" cy="2.65348" r="2.65348" transform="matrix(-1 0 0 1 93.1729 77.0654)" fill="#D9D9D9"/>
<circle cx="2.65348" cy="2.65348" r="2.65348" transform="matrix(-1 0 0 1 87.866 77.0654)" fill="#D9D9D9"/>
<circle cx="2.65348" cy="2.65348" r="2.65348" transform="matrix(-1 0 0 1 82.5588 77.0654)" fill="#D9D9D9"/>
<circle cx="2.65348" cy="2.65348" r="2.65348" transform="matrix(-1 0 0 1 77.252 77.0654)" fill="#D9D9D9"/>
<circle opacity="0.4" cx="21.529" cy="79.7189" r="2.65348" fill="#D9D9D9"/>
<circle opacity="0.4" cx="26.8358" cy="79.7189" r="2.65348" fill="#D9D9D9"/>
<circle cx="32.1427" cy="79.7189" r="2.65348" fill="#D9D9D9"/>
<circle cx="37.4496" cy="79.7189" r="2.65348" fill="#D9D9D9"/>
<circle opacity="0.4" cx="42.7567" cy="79.7189" r="2.65348" fill="#D9D9D9"/>
<circle cx="48.0636" cy="79.7189" r="2.65348" fill="#D9D9D9"/>
<circle opacity="0.4" cx="53.3708" cy="79.7189" r="2.65348" fill="#D9D9D9"/>
<circle cx="58.6776" cy="79.7189" r="2.65348" fill="#D9D9D9"/>
<circle cx="63.9845" cy="79.7189" r="2.65348" fill="#D9D9D9"/>
<circle cx="69.2914" cy="79.7189" r="2.65348" fill="#D9D9D9"/>
<circle opacity="0.4" cx="74.5983" cy="79.7189" r="2.65348" fill="#D9D9D9"/>
<circle opacity="0.4" cx="79.9054" cy="79.7189" r="2.65348" fill="#D9D9D9"/>
<circle cx="85.2123" cy="79.7189" r="2.65348" fill="#D9D9D9"/>
<circle cx="90.5192" cy="79.7189" r="2.65348" fill="#D9D9D9"/>
<circle cx="95.8263" cy="79.7189" r="2.65348" fill="#D9D9D9"/>
<circle cx="101.133" cy="79.7189" r="2.65348" fill="#D9D9D9"/>
<circle cx="106.44" cy="79.7189" r="2.65348" fill="#D9D9D9"/>
<circle opacity="0.4" cx="111.747" cy="79.7189" r="2.65348" fill="#D9D9D9"/>
<circle cx="17.5487" cy="63.798" r="2.65348" fill="#D9D9D9"/>
<circle cx="22.8556" cy="63.798" r="2.65348" fill="#D9D9D9"/>
<circle opacity="0.4" cx="28.1625" cy="63.798" r="2.65348" fill="#D9D9D9"/>
<circle cx="33.4696" cy="63.798" r="2.65348" fill="#D9D9D9"/>
<circle opacity="0.4" cx="38.7765" cy="63.798" r="2.65348" fill="#D9D9D9"/>
<circle cx="44.0834" cy="63.798" r="2.65348" fill="#D9D9D9"/>
<circle cx="49.3905" cy="63.798" r="2.65348" fill="#D9D9D9"/>
<circle cx="54.6974" cy="63.798" r="2.65348" fill="#D9D9D9"/>
<circle opacity="0.4" cx="60.0043" cy="63.798" r="2.65348" fill="#D9D9D9"/>
<circle opacity="0.4" cx="65.3112" cy="63.798" r="2.65348" fill="#D9D9D9"/>
<circle cx="70.6183" cy="63.798" r="2.65348" fill="#D9D9D9"/>
<circle cx="75.9252" cy="63.798" r="2.65348" fill="#D9D9D9"/>
<circle cx="81.2323" cy="63.798" r="2.65348" fill="#D9D9D9"/>
<circle cx="86.5392" cy="63.798" r="2.65348" fill="#D9D9D9"/>
<circle cx="91.8459" cy="63.798" r="2.65348" fill="#D9D9D9"/>
<circle opacity="0.4" cx="97.153" cy="63.798" r="2.65348" fill="#D9D9D9"/>
<circle opacity="0.4" cx="21.529" cy="37.2638" r="2.65348" fill="#D9D9D9"/>
<circle opacity="0.4" cx="26.8358" cy="37.2638" r="2.65348" fill="#D9D9D9"/>
<circle cx="32.1427" cy="37.2638" r="2.65348" fill="#D9D9D9"/>
<circle opacity="0.4" cx="42.7567" cy="37.2638" r="2.65348" fill="#D9D9D9"/>
<circle cx="48.0636" cy="37.2638" r="2.65348" fill="#D9D9D9"/>
<circle opacity="0.4" cx="53.3708" cy="37.2638" r="2.65348" fill="#D9D9D9"/>
<circle cx="58.6776" cy="37.2638" r="2.65348" fill="#D9D9D9"/>
<circle cx="63.9845" cy="37.2638" r="2.65348" fill="#D9D9D9"/>
<circle cx="69.2914" cy="37.2638" r="2.65348" fill="#D9D9D9"/>
<circle opacity="0.4" cx="74.5983" cy="37.2638" r="2.65348" fill="#D9D9D9"/>
<circle opacity="0.4" cx="79.9054" cy="37.2638" r="2.65348" fill="#D9D9D9"/>
<circle cx="85.2123" cy="37.2638" r="2.65348" fill="#D9D9D9"/>
<circle cx="90.5192" cy="37.2638" r="2.65348" fill="#D9D9D9"/>
<circle cx="95.8263" cy="37.2638" r="2.65348" fill="#D9D9D9"/>
<circle cx="101.133" cy="37.2638" r="2.65348" fill="#D9D9D9"/>
<circle cx="106.44" cy="37.2638" r="2.65348" fill="#D9D9D9"/>
<circle opacity="0.4" cx="111.747" cy="37.2638" r="2.65348" fill="#D9D9D9"/>
<circle cx="90.5192" cy="31.9567" r="2.65348" fill="#D9D9D9"/>
<circle opacity="0.4" cx="95.8261" cy="31.9567" r="2.65348" fill="#D9D9D9"/>
<circle opacity="0.4" cx="101.133" cy="31.9567" r="2.65348" fill="#D9D9D9"/>
<circle cx="106.44" cy="31.9567" r="2.65348" fill="#D9D9D9"/>
<circle cx="111.747" cy="31.9567" r="2.65348" fill="#D9D9D9"/>
<circle opacity="0.4" cx="117.054" cy="31.9567" r="2.65348" fill="#D9D9D9"/>
<circle cx="122.361" cy="31.9567" r="2.65348" fill="#D9D9D9"/>
<circle opacity="0.4" cx="127.668" cy="31.9567" r="2.65348" fill="#D9D9D9"/>
<circle cx="132.975" cy="31.9567" r="2.65348" fill="#D9D9D9"/>
<circle cx="138.282" cy="31.9567" r="2.65348" fill="#D9D9D9"/>
<circle cx="143.589" cy="31.9567" r="2.65348" fill="#D9D9D9"/>
<circle opacity="0.4" cx="148.896" cy="31.9567" r="2.65348" fill="#D9D9D9"/>
<circle opacity="0.4" cx="154.203" cy="31.9567" r="2.65348" fill="#D9D9D9"/>
<circle cx="79.9054" cy="26.6496" r="2.65348" fill="#D9D9D9"/>
<circle opacity="0.4" cx="85.2126" cy="26.6496" r="2.65348" fill="#D9D9D9"/>
<circle opacity="0.4" cx="90.5194" cy="26.6496" r="2.65348" fill="#D9D9D9"/>
<circle cx="95.8263" cy="26.6496" r="2.65348" fill="#D9D9D9"/>
<circle cx="101.133" cy="26.6496" r="2.65348" fill="#D9D9D9"/>
<circle opacity="0.4" cx="106.44" cy="26.6496" r="2.65348" fill="#D9D9D9"/>
<circle cx="111.747" cy="26.6496" r="2.65348" fill="#D9D9D9"/>
<circle opacity="0.4" cx="117.054" cy="26.6496" r="2.65348" fill="#D9D9D9"/>
<circle cx="122.361" cy="26.6496" r="2.65348" fill="#D9D9D9"/>
<circle cx="127.668" cy="26.6496" r="2.65348" fill="#D9D9D9"/>
<circle cx="132.975" cy="26.6496" r="2.65348" fill="#D9D9D9"/>
<circle opacity="0.4" cx="138.282" cy="26.6496" r="2.65348" fill="#D9D9D9"/>
<circle opacity="0.4" cx="143.589" cy="26.6496" r="2.65348" fill="#D9D9D9"/>
<circle cx="148.896" cy="26.6496" r="2.65348" fill="#D9D9D9"/>
<circle cx="154.203" cy="26.6496" r="2.65348" fill="#D9D9D9"/>
<circle cx="58.6776" cy="21.3424" r="2.65348" fill="#D9D9D9"/>
<circle opacity="0.4" cx="63.9845" cy="21.3424" r="2.65348" fill="#D9D9D9"/>
<circle opacity="0.4" cx="69.2914" cy="21.3424" r="2.65348" fill="#D9D9D9"/>
<circle cx="74.5983" cy="21.3424" r="2.65348" fill="#D9D9D9"/>
<circle cx="79.9054" cy="21.3424" r="2.65348" fill="#D9D9D9"/>
<circle opacity="0.4" cx="85.2123" cy="21.3424" r="2.65348" fill="#D9D9D9"/>
<circle cx="90.5194" cy="21.3424" r="2.65348" fill="#D9D9D9"/>
<circle opacity="0.4" cx="95.8263" cy="21.3424" r="2.65348" fill="#D9D9D9"/>
<circle cx="101.133" cy="21.3424" r="2.65348" fill="#D9D9D9"/>
<circle cx="106.44" cy="21.3424" r="2.65348" fill="#D9D9D9"/>
<circle cx="111.747" cy="21.3424" r="2.65348" fill="#D9D9D9"/>
<circle opacity="0.4" cx="117.054" cy="21.3424" r="2.65348" fill="#D9D9D9"/>
<circle opacity="0.4" cx="122.361" cy="21.3424" r="2.65348" fill="#D9D9D9"/>
<circle cx="127.668" cy="21.3424" r="2.65348" fill="#D9D9D9"/>
<circle cx="132.975" cy="21.3424" r="2.65348" fill="#D9D9D9"/>
<circle cx="138.282" cy="21.3424" r="2.65348" fill="#D9D9D9"/>
<circle cx="143.589" cy="21.3424" r="2.65348" fill="#D9D9D9"/>
<circle cx="148.896" cy="21.3424" r="2.65348" fill="#D9D9D9"/>
<circle opacity="0.4" cx="154.203" cy="21.3424" r="2.65348" fill="#D9D9D9"/>
<circle cx="21.529" cy="69.1051" r="2.65348" fill="#D9D9D9"/>
<circle cx="26.8358" cy="69.1051" r="2.65348" fill="#D9D9D9"/>
<circle opacity="0.4" cx="32.1427" cy="69.1051" r="2.65348" fill="#D9D9D9"/>
<circle cx="37.4496" cy="69.1051" r="2.65348" fill="#D9D9D9"/>
<circle opacity="0.4" cx="42.7567" cy="69.1051" r="2.65348" fill="#D9D9D9"/>
<circle cx="48.0636" cy="69.1051" r="2.65348" fill="#D9D9D9"/>
<circle cx="53.3708" cy="69.1051" r="2.65348" fill="#D9D9D9"/>
<circle cx="58.6776" cy="69.1051" r="2.65348" fill="#D9D9D9"/>
<circle opacity="0.4" cx="63.9845" cy="69.1051" r="2.65348" fill="#D9D9D9"/>
<circle opacity="0.4" cx="69.2914" cy="69.1051" r="2.65348" fill="#D9D9D9"/>
<circle cx="74.5983" cy="69.1051" r="2.65348" fill="#D9D9D9"/>
<circle cx="79.9054" cy="69.1051" r="2.65348" fill="#D9D9D9"/>
<circle cx="85.2123" cy="69.1051" r="2.65348" fill="#D9D9D9"/>
<circle cx="90.5192" cy="69.1051" r="2.65348" fill="#D9D9D9"/>
<circle cx="95.8263" cy="69.1051" r="2.65348" fill="#D9D9D9"/>
<circle opacity="0.4" cx="101.133" cy="69.1051" r="2.65348" fill="#D9D9D9"/>
<circle cx="22.8556" cy="53.1842" r="2.65348" fill="#D9D9D9"/>
<circle opacity="0.4" cx="28.1625" cy="53.1842" r="2.65348" fill="#D9D9D9"/>
<circle opacity="0.4" cx="33.4696" cy="53.1842" r="2.65348" fill="#D9D9D9"/>
<circle cx="38.7765" cy="53.1842" r="2.65348" fill="#D9D9D9"/>
<circle cx="44.0834" cy="53.1842" r="2.65348" fill="#D9D9D9"/>
<circle opacity="0.4" cx="49.3905" cy="53.1842" r="2.65348" fill="#D9D9D9"/>
<circle cx="54.6972" cy="53.1842" r="2.65348" fill="#D9D9D9"/>
<circle opacity="0.4" cx="60.0043" cy="53.1842" r="2.65348" fill="#D9D9D9"/>
<circle cx="65.3112" cy="53.1842" r="2.65348" fill="#D9D9D9"/>
<circle cx="70.6183" cy="53.1842" r="2.65348" fill="#D9D9D9"/>
<circle cx="75.9252" cy="53.1842" r="2.65348" fill="#D9D9D9"/>
<circle opacity="0.4" cx="81.2323" cy="53.1842" r="2.65348" fill="#D9D9D9"/>
<circle cx="28.1625" cy="47.8776" r="2.65348" fill="#D9D9D9"/>
<circle opacity="0.4" cx="33.4694" cy="47.8776" r="2.65348" fill="#D9D9D9"/>
<circle opacity="0.4" cx="38.7763" cy="47.8776" r="2.65348" fill="#D9D9D9"/>
<circle cx="44.0834" cy="47.8776" r="2.65348" fill="#D9D9D9"/>
<circle cx="49.3903" cy="47.8776" r="2.65348" fill="#D9D9D9"/>
<circle opacity="0.4" cx="54.6972" cy="47.8776" r="2.65348" fill="#D9D9D9"/>
<circle cx="60.0041" cy="47.8776" r="2.65348" fill="#D9D9D9"/>
<circle opacity="0.4" cx="65.3112" cy="47.8776" r="2.65348" fill="#D9D9D9"/>
<circle cx="70.6181" cy="47.8776" r="2.65348" fill="#D9D9D9"/>
<circle cx="75.9252" cy="47.8776" r="2.65348" fill="#D9D9D9"/>
<circle cx="81.2321" cy="47.8776" r="2.65348" fill="#D9D9D9"/>
<circle cx="74.5983" cy="69.1051" r="2.65348" fill="#D9D9D9"/>
<circle opacity="0.4" cx="79.9052" cy="69.1051" r="2.65348" fill="#D9D9D9"/>
<circle opacity="0.4" cx="85.2123" cy="69.1051" r="2.65348" fill="#D9D9D9"/>
<circle cx="90.5192" cy="69.1051" r="2.65348" fill="#D9D9D9"/>
<circle cx="95.8261" cy="69.1051" r="2.65348" fill="#D9D9D9"/>
<circle opacity="0.4" cx="101.133" cy="69.1051" r="2.65348" fill="#D9D9D9"/>
<circle cx="106.44" cy="69.1051" r="2.65348" fill="#D9D9D9"/>
<circle opacity="0.4" cx="111.747" cy="69.1051" r="2.65348" fill="#D9D9D9"/>
<circle cx="117.054" cy="69.1051" r="2.65348" fill="#D9D9D9"/>
<circle cx="122.361" cy="69.1051" r="2.65348" fill="#D9D9D9"/>
<circle cx="127.668" cy="69.1051" r="2.65348" fill="#D9D9D9"/>
<circle cx="132.975" cy="69.1051" r="2.65348" fill="#D9D9D9"/>
<circle cx="143.589" cy="69.1051" r="2.65348" fill="#D9D9D9"/>
<circle cx="148.896" cy="69.1051" r="2.65348" fill="#D9D9D9"/>
<circle cx="154.203" cy="69.1051" r="2.65348" fill="#D9D9D9"/>
<circle opacity="0.4" cx="38.7765" cy="42.5705" r="2.65348" fill="#D9D9D9"/>
<circle opacity="0.4" cx="44.0834" cy="42.5705" r="2.65348" fill="#D9D9D9"/>
<circle cx="65.3112" cy="42.5705" r="2.65348" fill="#D9D9D9"/>
<circle opacity="0.4" cx="70.6183" cy="42.5705" r="2.65348" fill="#D9D9D9"/>
<circle cx="75.9252" cy="42.5705" r="2.65348" fill="#D9D9D9"/>
<circle cx="81.2323" cy="42.5705" r="2.65348" fill="#D9D9D9"/>
<circle cx="90.5192" cy="47.8776" r="2.65348" fill="#D9D9D9"/>
<circle opacity="0.4" cx="95.8261" cy="47.8776" r="2.65348" fill="#D9D9D9"/>
<circle opacity="0.4" cx="101.133" cy="47.8776" r="2.65348" fill="#D9D9D9"/>
<circle cx="106.44" cy="47.8776" r="2.65348" fill="#D9D9D9"/>
<circle cx="111.747" cy="47.8776" r="2.65348" fill="#D9D9D9"/>
<circle opacity="0.4" cx="117.054" cy="47.8776" r="2.65348" fill="#D9D9D9"/>
<circle cx="122.361" cy="47.8776" r="2.65348" fill="#D9D9D9"/>
<circle opacity="0.4" cx="127.668" cy="47.8776" r="2.65348" fill="#D9D9D9"/>
<circle cx="132.975" cy="47.8776" r="2.65348" fill="#D9D9D9"/>
<circle cx="138.282" cy="47.8776" r="2.65348" fill="#D9D9D9"/>
<circle cx="143.589" cy="47.8776" r="2.65348" fill="#D9D9D9"/>
<circle cx="90.5192" cy="42.5705" r="2.65348" fill="#D9D9D9"/>
<circle opacity="0.4" cx="95.8261" cy="42.5705" r="2.65348" fill="#D9D9D9"/>
<circle opacity="0.4" cx="101.133" cy="42.5705" r="2.65348" fill="#D9D9D9"/>
<circle cx="106.44" cy="42.5705" r="2.65348" fill="#D9D9D9"/>
<circle cx="111.747" cy="42.5705" r="2.65348" fill="#D9D9D9"/>
<circle opacity="0.4" cx="117.054" cy="42.5705" r="2.65348" fill="#D9D9D9"/>
<circle cx="122.361" cy="42.5705" r="2.65348" fill="#D9D9D9"/>
<circle opacity="0.4" cx="127.668" cy="42.5705" r="2.65348" fill="#D9D9D9"/>
<circle cx="132.975" cy="42.5705" r="2.65348" fill="#D9D9D9"/>
<circle cx="138.282" cy="42.5705" r="2.65348" fill="#D9D9D9"/>
<circle cx="143.589" cy="42.5705" r="2.65348" fill="#D9D9D9"/>
<circle cx="117.054" cy="37.2638" r="2.65348" fill="#D9D9D9"/>
<circle opacity="0.4" cx="122.361" cy="37.2638" r="2.65348" fill="#D9D9D9"/>
<circle opacity="0.4" cx="127.668" cy="37.2638" r="2.65348" fill="#D9D9D9"/>
<circle cx="132.975" cy="37.2638" r="2.65348" fill="#D9D9D9"/>
<circle cx="138.282" cy="37.2638" r="2.65348" fill="#D9D9D9"/>
<circle opacity="0.4" cx="143.589" cy="37.2638" r="2.65348" fill="#D9D9D9"/>
<circle cx="148.896" cy="37.2638" r="2.65348" fill="#D9D9D9"/>
<circle opacity="0.4" cx="154.203" cy="37.2638" r="2.65348" fill="#D9D9D9"/>
<circle cx="90.5192" cy="53.1842" r="2.65348" fill="#D9D9D9"/>
<circle opacity="0.4" cx="95.8261" cy="53.1842" r="2.65348" fill="#D9D9D9"/>
<circle opacity="0.4" cx="101.133" cy="53.1842" r="2.65348" fill="#D9D9D9"/>
<circle cx="106.44" cy="53.1842" r="2.65348" fill="#D9D9D9"/>
<circle cx="111.747" cy="53.1842" r="2.65348" fill="#D9D9D9"/>
<circle opacity="0.4" cx="117.054" cy="53.1842" r="2.65348" fill="#D9D9D9"/>
<circle cx="122.361" cy="53.1842" r="2.65348" fill="#D9D9D9"/>
<circle opacity="0.4" cx="127.668" cy="53.1842" r="2.65348" fill="#D9D9D9"/>
<circle cx="132.975" cy="53.1842" r="2.65348" fill="#D9D9D9"/>
<circle cx="138.282" cy="53.1842" r="2.65348" fill="#D9D9D9"/>
<circle cx="143.589" cy="53.1842" r="2.65348" fill="#D9D9D9"/>
<circle cx="106.44" cy="58.4909" r="2.65348" fill="#D9D9D9"/>
<circle opacity="0.4" cx="111.747" cy="58.4909" r="2.65348" fill="#D9D9D9"/>
<circle opacity="0.4" cx="117.054" cy="58.4909" r="2.65348" fill="#D9D9D9"/>
<circle cx="122.361" cy="58.4909" r="2.65348" fill="#D9D9D9"/>
<circle cx="127.668" cy="58.4909" r="2.65348" fill="#D9D9D9"/>
<circle cx="138.282" cy="58.4909" r="2.65348" fill="#D9D9D9"/>
<circle opacity="0.4" cx="143.589" cy="58.4909" r="2.65348" fill="#D9D9D9"/>
<circle cx="148.896" cy="58.4909" r="2.65348" fill="#D9D9D9"/>
<circle cx="154.203" cy="58.4909" r="2.65348" fill="#D9D9D9"/>
<circle cx="106.44" cy="63.798" r="2.65348" fill="#D9D9D9"/>
<circle opacity="0.4" cx="111.747" cy="63.798" r="2.65348" fill="#D9D9D9"/>
<circle opacity="0.4" cx="117.054" cy="63.798" r="2.65348" fill="#D9D9D9"/>
<circle cx="122.361" cy="63.798" r="2.65348" fill="#D9D9D9"/>
<circle cx="138.282" cy="63.798" r="2.65348" fill="#D9D9D9"/>
<circle opacity="0.4" cx="143.589" cy="63.798" r="2.65348" fill="#D9D9D9"/>
<circle cx="148.896" cy="63.798" r="2.65348" fill="#D9D9D9"/>
<circle cx="154.203" cy="63.798" r="2.65348" fill="#D9D9D9"/>
<circle cx="44.0834" cy="58.4909" r="2.65348" fill="#D9D9D9"/>
<circle opacity="0.4" cx="49.3905" cy="58.4909" r="2.65348" fill="#D9D9D9"/>
<circle opacity="0.4" cx="54.6972" cy="58.4909" r="2.65348" fill="#D9D9D9"/>
<circle cx="60.0043" cy="58.4909" r="2.65348" fill="#D9D9D9"/>
<circle opacity="0.4" cx="65.3112" cy="58.4909" r="2.65348" fill="#D9D9D9"/>
<circle opacity="0.4" cx="70.6183" cy="58.4909" r="2.65348" fill="#D9D9D9"/>
<circle cx="37.4496" cy="74.4118" r="2.65348" fill="#D9D9D9"/>
<circle opacity="0.4" cx="42.7565" cy="74.4118" r="2.65348" fill="#D9D9D9"/>
<circle opacity="0.4" cx="48.0634" cy="74.4118" r="2.65348" fill="#D9D9D9"/>
<circle cx="21.529" cy="74.4118" r="2.65348" fill="#D9D9D9"/>
<circle opacity="0.4" cx="26.8361" cy="74.4118" r="2.65348" fill="#D9D9D9"/>
<circle opacity="0.4" cx="32.143" cy="74.4118" r="2.65348" fill="#D9D9D9"/>
<circle opacity="0.4" cx="33.4696" cy="58.4909" r="2.65348" fill="#D9D9D9"/>
<circle cx="38.7765" cy="58.4909" r="2.65348" fill="#D9D9D9"/>
<circle opacity="0.4" cx="22.8556" cy="58.4909" r="2.65348" fill="#D9D9D9"/>
<circle cx="28.1625" cy="58.4909" r="2.65348" fill="#D9D9D9"/>
<circle opacity="0.4" cx="18.8754" cy="60.1652" r="2.65348" fill="#D9D9D9"/>
<circle cx="18.8754" cy="65.4723" r="2.65348" fill="#D9D9D9"/>
</g>
</svg>