<svg width="134" height="17" viewBox="0 0 134 17" fill="none" xmlns="http://www.w3.org/2000/svg">
<path fill-rule="evenodd" clip-rule="evenodd" d="M29.5045 2.77199C25.1731 2.77199 22.4482 5.78674 22.4482 10.0014C22.4482 14.0645 25.458 16.7979 29.5045 16.7979C33.0849 16.7979 35.8848 14.755 36.2738 11.2032H31.9958C31.7869 12.6095 31.0083 13.4766 29.4783 13.4766C27.6101 13.4766 26.8586 11.7151 26.8586 10.0014C26.8586 8.16382 27.2477 6.09275 29.7118 6.09275C30.8261 6.09275 31.8383 6.88796 31.8659 8.01082H36.143C35.8339 4.50988 32.8514 2.77199 29.5045 2.77199ZM76.7641 2.77149C74.8551 2.77149 73.5128 3.63565 72.7101 5.02626H72.6557V3.1555H68.3782V16.4154H72.7866V9.53027C72.7866 7.59459 73.6336 6.34591 75.1722 6.34641C77.4602 6.34641 77.3782 8.18748 77.3782 10.0004V16.4154H81.7881V7.90613C81.7881 5.98957 81.252 2.77149 76.7641 2.77149ZM89.6355 2.77149C88.1039 2.77149 86.5482 3.02817 85.3544 3.69353C84.1616 4.38103 83.3312 5.50641 83.2542 7.24329H87.3787C87.5865 6.11942 88.3642 5.58442 89.5831 5.58442C90.4921 5.58442 91.7096 5.96391 91.7096 6.96044C91.7096 7.78081 91.2943 8.03397 90.5429 8.18848C87.4824 8.79999 82.7096 8.46932 82.7096 12.7851C82.7096 15.5205 84.7329 16.7969 87.2987 16.7969C88.9092 16.7969 90.5963 16.3374 91.7362 15.1632C91.7891 15.5975 91.8394 16.0047 91.9949 16.4154H96.432C95.9131 15.368 95.9136 14.1405 95.9136 13.0156V7.21561C95.9136 3.46252 92.8239 2.77149 89.635 2.77149H89.6355ZM91.6587 10.2062C91.7624 12.9411 91.0603 14.1143 88.9606 14.1143C87.9746 14.1143 87.1195 13.679 87.1195 12.6089C87.1195 11.5596 87.9504 11.1504 88.9354 10.9214C89.8967 10.6662 91.0367 10.5912 91.6582 10.2067L91.6587 10.2062ZM97.3531 0.200139V16.4164H101.762V0.199635L97.3531 0.200139ZM112.258 0.200139V4.58739H112.203C111.296 3.38652 110.025 2.773 108.365 2.773C104.551 2.773 102.685 6.04292 102.685 9.49152C102.685 13.2215 104.475 16.7979 108.702 16.7979C110.259 16.7979 111.556 16.134 112.412 14.8818H112.463V16.4159H116.667V0.200139H112.258ZM109.792 6.09376C111.711 6.09376 112.412 7.85782 112.412 9.77286C112.412 11.4579 111.945 13.4766 109.792 13.4766C107.768 13.4766 107.095 11.4584 107.095 9.64503C107.095 7.95999 107.768 6.09376 109.792 6.09376ZM117.587 0.200139V4.58638H119.65L121.711 0.200139H117.587ZM37.1959 0.200139V16.4164H44.2753C49.278 16.4164 52.3446 13.5541 52.3446 8.24183C52.3446 3.22043 49.3233 0.200139 44.2753 0.200139H37.1959ZM41.8947 3.95977H43.8756C46.4379 3.95977 47.5865 5.64683 47.5865 8.22925C47.5865 11.0699 46.6604 12.6583 43.8756 12.6583H41.8947V3.95977ZM3.88761 0.17749L0.486328 16.4159H5.34265L6.59435 9.96714C6.72826 9.25461 6.84222 8.53847 6.93609 7.81956H6.98491C7.06141 8.26851 7.25921 9.15733 7.45801 9.9158L9.22257 16.4159H14.0492L15.8107 9.9158C16.0116 9.15733 16.2083 8.26851 16.2838 7.81956H16.3357C16.3785 8.16432 16.5138 9.1367 16.6764 9.96714L17.9281 16.4159H22.7834L19.3826 0.17749H14.2359L12.1739 8.33343C12.0013 8.96557 11.7884 9.98928 11.6595 10.5233H11.6112C11.4804 9.98928 11.269 8.96557 11.0969 8.33343L9.03384 0.17749L3.88761 0.17749ZM60.3486 2.77199C56.0021 2.77199 53.2642 5.81342 53.2642 9.79702C53.2642 13.7816 56.0011 16.8221 60.3476 16.8221C64.6946 16.8221 67.43 13.7821 67.43 9.79702C67.43 5.81342 64.6951 2.77199 60.3486 2.77199ZM60.3476 6.09275C62.2536 6.09275 63.0186 7.67462 63.0186 9.79702C63.0186 11.9214 62.2541 13.5013 60.3481 13.5013C58.4406 13.5013 57.6756 11.9214 57.6756 9.79702C57.6756 7.67411 58.4401 6.09275 60.3476 6.09275ZM126.956 2.77048C124.345 2.77048 120.775 3.63867 120.775 6.8331C120.775 10.41 124.32 10.485 127.059 11.1756C127.826 11.3557 129.184 11.5586 129.184 12.5813C129.184 13.6301 127.98 13.9875 127.135 13.9875C126.52 13.9875 125.99 13.834 125.581 13.527C125.146 13.1938 124.865 12.7071 124.865 12.0448H120.658C120.787 15.751 124.012 16.7969 127.161 16.7969C130.157 16.7969 133.65 15.6212 133.65 12.0709C133.65 10.9722 132.961 9.03 130.272 8.49197C128.275 8.06014 125.242 7.83064 125.242 6.57843C125.242 5.6574 126.395 5.5809 127.11 5.5809C127.649 5.5809 128.076 5.68357 128.435 5.91307C128.793 6.14358 128.999 6.50042 128.999 7.06261H133.075C132.922 3.61401 129.875 2.77048 126.956 2.77048Z" fill="white"/>
</svg>
