<svg width="120" height="29" viewBox="0 0 120 29" fill="none" xmlns="http://www.w3.org/2000/svg">
<g clip-path="url(#clip0_2_53732)">
<path d="M42.0648 16.5723L41.3547 18.7293H41.2955C41.1772 18.2429 40.9602 17.5028 40.6051 16.6146L36.7983 6.35805H33.0703V22.7051H35.5359V12.6177C35.5359 11.9833 35.5359 11.2643 35.5162 10.3761C35.4964 9.93198 35.457 9.59362 35.4373 9.33985H35.4964C35.6148 9.97428 35.7529 10.4395 35.8515 10.7356L40.4276 22.6628H42.1634L46.7001 10.6298C46.7987 10.3549 46.8973 9.8051 46.9959 9.33985H47.0551C46.9959 10.5453 46.9565 11.6238 46.9368 12.2794V22.6416H49.5602V6.31576H45.9703L42.0648 16.5723ZM52.0455 10.9259H54.6097V22.6416H52.0455V10.9259ZM53.3473 5.9774C52.9134 5.9774 52.5583 6.14658 52.2624 6.44264C51.9666 6.73871 51.8088 7.11936 51.8088 7.58461C51.8088 8.02871 51.9666 8.40936 52.2624 8.70543C52.5583 9.00149 52.9134 9.14952 53.3473 9.14952C53.7812 9.14952 54.156 8.98034 54.4322 8.70543C54.728 8.40936 54.8858 8.02871 54.8858 7.58461C54.8858 7.14051 54.728 6.75986 54.4322 6.44264C54.1757 6.14658 53.801 5.9774 53.3473 5.9774ZM63.7028 10.8202C63.2294 10.7144 62.7363 10.651 62.2629 10.651C61.0991 10.651 60.034 10.9259 59.1464 11.4757C58.2587 12.0256 57.5487 12.7869 57.095 13.7385C56.6216 14.7113 56.3849 15.8321 56.3849 17.1221C56.3849 18.2429 56.6216 19.2369 57.0753 20.1462C57.5289 21.0344 58.1601 21.7534 59.0083 22.2398C59.817 22.7262 60.7638 22.98 61.8289 22.98C63.0519 22.98 64.0973 22.7051 64.9257 22.1975L64.9454 22.1764V19.6387L64.8468 19.7233C64.472 20.0193 64.0381 20.2731 63.6041 20.4211C63.1505 20.5903 62.7363 20.6749 62.3812 20.6749C61.3555 20.6749 60.5468 20.3577 59.9748 19.6598C59.3831 18.9831 59.0872 18.0526 59.0872 16.8895C59.0872 15.6841 59.3831 14.7325 59.9945 14.0346C60.606 13.3367 61.4147 12.9772 62.4009 12.9772C63.2294 12.9772 64.0775 13.2733 64.8468 13.8654L64.9454 13.95V11.2643L64.9257 11.2431C64.5904 11.0951 64.2156 10.9259 63.7028 10.8202ZM72.1647 10.7356C71.5335 10.7356 70.9417 10.9471 70.4289 11.3912C69.9949 11.7718 69.6991 12.3216 69.4427 12.9772H69.4229V10.9259H66.8587V22.6416H69.4229V16.6569C69.4229 15.6418 69.6202 14.7959 70.0541 14.1826C70.4881 13.5482 71.0404 13.231 71.711 13.231C71.9477 13.231 72.1844 13.2944 72.4803 13.3367C72.7564 13.4213 72.9537 13.5059 73.0917 13.6116L73.1903 13.6962V10.9471L73.1312 10.9259C72.9537 10.799 72.5986 10.7356 72.1647 10.7356ZM79.1472 10.6721C77.3523 10.6721 75.9124 11.2431 74.9064 12.3639C73.8807 13.4848 73.3876 15.0285 73.3876 16.9741C73.3876 18.7928 73.9004 20.2731 74.8867 21.3516C75.8729 22.409 77.2142 22.9588 78.8908 22.9588C80.6463 22.9588 82.0467 22.3879 83.0527 21.2459C84.0784 20.1039 84.5715 18.5813 84.5715 16.6992C84.5715 14.8382 84.0981 13.3579 83.1316 12.2794C82.2045 11.2008 80.8435 10.6721 79.1472 10.6721ZM81.1986 19.681C80.7252 20.3366 79.9756 20.6538 79.0486 20.6538C78.1215 20.6538 77.372 20.3366 76.8394 19.6387C76.3069 18.9831 76.0504 18.0315 76.0504 16.8261C76.0504 15.5784 76.3266 14.6267 76.8394 13.95C77.372 13.2733 78.1018 12.9349 79.0289 12.9349C79.9362 12.9349 80.6463 13.2521 81.1591 13.9077C81.672 14.5633 81.9481 15.5149 81.9481 16.7626C81.9087 18.0315 81.6917 19.0254 81.1986 19.681ZM90.2917 15.7898C89.483 15.4303 88.9701 15.1554 88.7334 14.9228C88.5362 14.7113 88.4375 14.4152 88.4375 14.0346C88.4375 13.7174 88.5559 13.4002 88.8518 13.1887C89.1476 12.9772 89.4829 12.8715 89.9761 12.8715C90.41 12.8715 90.8637 12.9561 91.2976 13.083C91.7316 13.2098 92.1261 13.4002 92.4417 13.6539L92.5403 13.7385V11.1585L92.4811 11.1374C92.1852 11.0105 91.7907 10.8836 91.3173 10.7779C90.844 10.6933 90.41 10.651 90.055 10.651C88.832 10.651 87.8261 10.9682 87.0371 11.6661C86.2481 12.3216 85.8733 13.2098 85.8733 14.2461C85.8733 14.7959 85.9522 15.2823 86.1297 15.6841C86.3073 16.0859 86.5637 16.4666 86.9187 16.7838C87.2738 17.0798 87.7866 17.4182 88.4967 17.7354C89.0885 18.0103 89.5421 18.2218 89.8183 18.391C90.0944 18.5602 90.2719 18.7505 90.41 18.8985C90.5086 19.0677 90.5678 19.2792 90.5678 19.5541C90.5678 20.3366 90.0155 20.7172 88.8912 20.7172C88.4573 20.7172 88.0036 20.6326 87.471 20.4423C86.9385 20.252 86.4453 19.977 86.0311 19.6598L85.9325 19.5752V22.261L85.9917 22.2821C86.3664 22.4724 86.8201 22.5993 87.3724 22.7474C87.9247 22.8531 88.4178 22.9377 88.8518 22.9377C90.1733 22.9377 91.2582 22.6205 92.0274 21.9226C92.8164 21.2459 93.2306 20.3788 93.2306 19.258C93.2306 18.4756 93.0334 17.7777 92.5994 17.249C92.0274 16.7415 91.3173 16.2128 90.2917 15.7898ZM99.9962 10.6721C98.2013 10.6721 96.7614 11.2431 95.7554 12.3639C94.7494 13.4848 94.2366 15.0285 94.2366 16.9741C94.2366 18.7928 94.7494 20.2731 95.7357 21.3516C96.7219 22.409 98.0632 22.9588 99.7398 22.9588C101.495 22.9588 102.896 22.3879 103.902 21.2459C104.927 20.1039 105.421 18.5813 105.421 16.6992C105.421 14.8382 104.947 13.3579 103.981 12.2794C103.054 11.2008 101.693 10.6721 99.9962 10.6721ZM102.028 19.681C101.554 20.3366 100.805 20.6538 99.8779 20.6538C98.9311 20.6538 98.2013 20.3366 97.6687 19.6387C97.1361 18.9831 96.8797 18.0315 96.8797 16.8261C96.8797 15.5784 97.1559 14.6267 97.6687 13.95C98.2013 13.2733 98.9311 12.9349 99.8581 12.9349C100.746 12.9349 101.476 13.2521 101.988 13.9077C102.501 14.5633 102.777 15.5149 102.777 16.7626C102.777 18.0315 102.521 19.0254 102.028 19.681ZM119.129 13.1887V10.9259H116.545V7.45772L116.466 7.47887L114.02 8.26133L113.961 8.28248V10.9259H110.095V9.44559C110.095 8.76887 110.253 8.24018 110.529 7.90182C110.805 7.56346 111.22 7.39428 111.732 7.39428C112.087 7.39428 112.462 7.47887 112.876 7.6692L112.975 7.73264V5.34297L112.916 5.32183C112.561 5.19494 112.087 5.11035 111.476 5.11035C110.707 5.11035 110.036 5.30068 109.425 5.61789C108.813 5.9774 108.359 6.46379 108.024 7.11936C107.689 7.75379 107.511 8.4728 107.511 9.29756V10.9259H105.716V13.1675H107.511V22.6416H110.095V13.1887H113.961V19.2157C113.961 21.69 115.046 22.9377 117.216 22.9377C117.571 22.9377 117.946 22.8743 118.301 22.8108C118.676 22.7262 118.952 22.6205 119.109 22.5359L119.129 22.5147V20.252L119.031 20.3366C118.873 20.4423 118.735 20.5269 118.498 20.5903C118.301 20.6538 118.123 20.6749 117.985 20.6749C117.472 20.6749 117.117 20.548 116.861 20.2308C116.624 19.9347 116.506 19.4484 116.506 18.7293V13.1887H119.129Z" fill="white"/>
<path d="M0.0107422 0.859863H12.102V13.8233H0.0107422V0.859863Z" fill="#F25022"/>
<path d="M13.3633 0.859863H25.4545V13.8233H13.3633V0.859863Z" fill="#7FBA00"/>
<path d="M0.0107422 15.1768H12.102V28.1402H0.0107422V15.1768Z" fill="#00A4EF"/>
<path d="M13.3633 15.1768H25.4545V28.1402H13.3633V15.1768Z" fill="#FFB900"/>
</g>
<defs>
<clipPath id="clip0_2_53732">
<rect width="119.124" height="27.2803" fill="white" transform="translate(0.00683594 0.859863)"/>
</clipPath>
</defs>
</svg>
