<svg width="100" height="23" viewBox="0 0 100 23" fill="none" xmlns="http://www.w3.org/2000/svg">
<path d="M34.3597 13.317C34.3597 11.102 33.349 9.33867 31.306 9.33867C29.2631 9.33867 28.1878 11.102 28.1878 13.317C28.1878 15.532 29.1986 17.2954 31.306 17.2954C33.392 17.2309 34.3597 15.532 34.3597 13.317ZM25.9084 13.317C25.9084 9.9623 28.0158 7.46776 31.2845 7.46776C34.5532 7.46776 36.6607 9.9623 36.6607 13.317C36.6607 16.6717 34.5532 19.1018 31.2845 19.1018C28.0158 19.1018 25.9084 16.6717 25.9084 13.317ZM38.6176 7.70431H40.9401L44.6819 13.9407C45.026 14.5643 45.4776 15.532 45.4776 15.532H45.5421C45.5421 15.532 45.4776 14.3923 45.4776 13.5966V7.70431H47.671V18.8652H45.4561L41.6067 12.6934C41.2627 12.1343 40.8111 11.1666 40.8111 11.1666H40.7465C40.7465 11.1666 40.8111 12.3493 40.8111 13.102V18.8867H38.5961V7.70431H38.6176ZM50.1871 7.70431H58.4018V9.57521H52.4451V12.0698H57.6707V13.9407H52.4451V16.9513H58.4449V18.8867H50.1656V7.70431H50.1871ZM62.9823 12.9729H65.3048C66.4876 12.9729 67.1112 12.2848 67.1112 11.3386C67.1112 10.3279 66.4231 9.70424 65.3478 9.70424H62.9608V12.9729H62.9823ZM60.6598 7.70431H65.5844C66.8962 7.70431 67.8424 8.0914 68.5305 8.71503C69.1542 9.33866 69.5413 10.2419 69.5413 11.2741C69.5413 13.3815 68.1219 14.7793 65.7994 14.7793H63.0683V18.8007H60.7889V7.68281H60.6598V7.70431ZM71.1541 7.70431H73.4121V16.9513H78.6377V18.8867H71.1541V7.70431ZM79.885 15.2524V7.70431H82.143V15.2954C82.143 16.4352 82.7021 17.2739 84.2504 17.2739C85.6697 17.2739 86.3579 16.4137 86.3579 15.2954V7.70431H88.6158V15.2954C88.6158 17.6825 87.132 19.1018 84.3149 19.1018C81.3688 19.0373 79.885 17.6825 79.885 15.2524ZM90.2072 15.4245H92.4222C92.5942 16.7793 93.3254 17.2954 94.9167 17.2954C96.0564 17.2954 97.0672 16.9083 97.0672 15.8761C97.0672 14.8008 95.9919 14.5643 94.2931 14.1772C92.3146 13.7256 90.4437 13.2095 90.4437 10.887C90.4437 8.67202 92.2501 7.53228 94.7017 7.53228C97.1962 7.53228 98.8306 8.77954 99.0026 10.9945H96.8521C96.7446 9.85478 95.8414 9.29566 94.7017 9.29566C93.5189 9.29566 92.6587 9.81177 92.6587 10.6074C92.6587 11.5106 93.4544 11.7902 95.0887 12.1343C97.4112 12.6504 99.2821 13.145 99.2821 15.5965C99.2821 17.8545 97.4758 19.1018 94.9167 19.1018C91.9706 19.1018 90.2717 17.747 90.2072 15.4245ZM0.855469 3.72596V22.7791H19.9086V11.8977H17.8011V20.6931H2.94142V5.89793H11.7368V3.74746H0.855469V3.72596ZM17.8011 0.220703V3.72596H14.2313V5.87642H17.8011V9.38167H19.9086V5.87642H23.4138V3.72596H19.9086V0.220703H17.8011Z" fill="white"/>
<path d="M11.7373 17.8547V8.5647H9.8664C9.8664 9.18833 9.62985 9.70444 9.30728 9.984C8.96321 10.2636 8.4471 10.3711 7.82346 10.3711H7.58691V11.8979H9.56534V17.8547C9.58685 17.8547 11.7373 17.8547 11.7373 17.8547Z" fill="white"/>
</svg>
