<svg width="140" height="33" viewBox="0 0 140 33" fill="none" xmlns="http://www.w3.org/2000/svg">
<g clip-path="url(#clip0_2_53717)">
<path d="M122.585 11.1092C123.358 11.1092 123.995 10.7071 124.081 10.1877L124.845 1.55393C124.845 0.700563 123.845 0 122.587 0C121.33 0 120.331 0.700559 120.331 1.55408L121.094 10.1877C121.178 10.707 121.815 11.1092 122.587 11.1092H122.585ZM117.915 13.8059C118.303 13.1371 118.273 12.3854 117.864 12.0514L110.762 7.07339C110.024 6.64609 108.916 7.16042 108.288 8.2493C107.658 9.33681 107.769 10.5514 108.506 10.9788L116.37 14.6375C116.862 14.8196 117.532 14.4692 117.917 13.8008L117.915 13.8059ZM127.259 13.8013C127.646 14.4696 128.313 14.8202 128.805 14.638L136.669 10.9793C137.41 10.552 137.516 9.33727 136.891 8.24977C136.26 7.16196 135.15 6.64655 134.414 7.07385L127.311 12.0519C126.905 12.3854 126.875 13.1377 127.261 13.8064L127.259 13.8013ZM122.585 21.8941C123.358 21.8941 123.995 22.2927 124.081 22.8126L124.845 31.4452C124.845 32.3011 123.845 33.0002 122.587 33.0002C121.33 33.0002 120.331 32.3011 120.331 31.4452L121.094 22.8126C121.178 22.2927 121.815 21.8941 122.587 21.8941H122.585ZM127.259 19.1967C127.646 18.5265 128.313 18.179 128.805 18.3632L136.669 22.0195C137.41 22.4472 137.516 23.663 136.891 24.7515C136.26 25.8357 135.15 26.3525 134.414 25.9258L127.311 20.9524C126.905 20.6163 126.875 19.8636 127.261 19.1953H127.258M117.915 19.1958C118.303 19.8636 118.273 20.6163 117.864 20.9531L110.762 25.9263C110.024 26.353 108.916 25.8362 108.288 24.7519C107.658 23.6635 107.769 22.4477 108.506 22.0199L116.37 18.3637C116.862 18.1795 117.532 18.527 117.917 19.1973H117.915" fill="#FDBB30"/>
<path d="M77.7864 20.9366C77.7864 21.2016 77.7628 21.4748 77.6902 21.7148C77.3889 22.7116 76.3561 23.5545 75.0639 23.5545C73.9865 23.5545 73.1307 22.9429 73.1307 21.6513C73.1307 19.6746 75.3083 19.1287 77.787 19.1424L77.7864 20.9365V20.9366ZM81.6743 17.4917C81.6743 14.2321 80.2804 11.364 75.5705 11.364C73.1528 11.364 71.2339 12.0425 70.1866 12.6473L70.9537 15.2677C71.9109 14.6639 73.4364 14.1641 74.8801 14.1641C77.2692 14.1574 77.6604 15.5159 77.6604 16.3853V16.5911C72.4527 16.5834 69.1608 18.3851 69.1608 22.0555C69.1608 24.2983 70.8374 26.3989 73.752 26.3989C75.5429 26.3989 77.0429 25.6847 77.9405 24.5394H78.0292C78.0292 24.5394 78.6232 27.0259 81.9023 26.0745C81.7312 25.0405 81.6749 23.9366 81.6749 22.6093L81.6745 17.4917M0.533203 6.92493C0.533203 6.92493 3.9363 20.8582 4.47971 23.1195C5.11362 25.7589 6.2561 26.7306 9.54851 26.0745L11.6733 17.4364C12.2121 15.2898 12.5727 13.7593 12.9198 11.5778H12.9803C13.224 13.7824 13.5698 15.2964 14.0131 17.4435C14.0131 17.4435 14.8777 21.3653 15.3212 23.4245C15.7652 25.483 17.0009 26.7812 20.2263 26.0745L25.2895 6.92432H21.2027L19.4733 15.2043C19.0084 17.6134 18.5869 19.4981 18.2617 21.7016H18.2038C17.9083 19.5175 17.532 17.7097 17.0598 15.3619L15.2608 6.92432H11.0019L9.07646 15.1491C8.53151 17.6492 8.02046 19.667 7.69673 21.7972H7.63784C7.30547 19.7913 6.86303 17.2542 6.38421 14.8354C6.38421 14.8354 5.24111 8.95222 4.83906 6.92432L0.533203 6.92493ZM33.02 20.9366C33.02 21.2016 32.9965 21.4748 32.9228 21.7148C32.6222 22.7116 31.5887 23.5545 30.2965 23.5545C29.2189 23.5545 28.3644 22.9429 28.3644 21.6513C28.3644 19.6746 30.5413 19.1287 33.0205 19.1424L33.02 20.9365V20.9366ZM36.9075 17.4917C36.9075 14.2321 35.5136 11.364 30.8046 11.364C28.3863 11.364 26.4659 12.0425 25.4192 12.6473L26.1853 15.2677C27.1424 14.6639 28.6679 14.1641 30.1121 14.1641C32.5028 14.1574 32.8941 15.5159 32.8941 16.3853V16.5911C27.6842 16.5834 24.3938 18.3851 24.3938 22.0555C24.3938 24.2983 26.0696 26.3989 28.982 26.3989C30.7753 26.3989 32.2744 25.6847 33.1731 24.5394H33.2607C33.2607 24.5394 33.8564 27.0259 37.1347 26.0745C36.9633 25.0405 36.9075 23.9366 36.9075 22.6093V17.4917ZM43.3955 22.0095V6.92493H39.503V26.0751H43.3955V22.0095ZM94.3172 6.92493V21.0517C94.3172 23.0002 94.6848 24.3639 95.4687 25.1985C96.1557 25.9282 97.2843 26.4005 98.6378 26.4005C99.7891 26.4005 100.921 26.181 101.455 25.983L101.405 22.9445C101.007 23.0415 100.551 23.1201 99.9264 23.1201C98.6 23.1201 98.1565 22.271 98.1565 20.5226V15.1174H101.546V11.4529H98.1565V6.92493H94.3172ZM84.2699 11.6888V26.0751H88.2853V18.7091C88.2853 18.3109 88.3094 17.964 88.3724 17.6467C88.6695 16.1029 89.8503 15.1174 91.5466 15.1174C92.0115 15.1174 92.3444 15.1679 92.7049 15.2191V11.4529C92.4023 11.3926 92.197 11.3644 91.8205 11.3644C90.3221 11.3644 88.6172 12.3306 87.9018 14.403H87.7932V11.6888H84.2699ZM46.1211 11.6888V26.0751H50.0332V17.639C50.0332 17.2431 50.0797 16.8244 50.2169 16.4615C50.5411 15.6122 51.3323 14.6174 52.5947 14.6174C54.1741 14.6174 54.9116 15.9509 54.9116 17.8754V26.0741H58.8206V17.5352C58.8206 17.1575 58.8723 16.7021 58.984 16.3691C59.305 15.4024 60.1572 14.6163 61.331 14.6163C62.9313 14.6163 63.6995 15.9264 63.6995 18.1917V26.0736H67.6112V17.6C67.6112 13.1319 65.3404 11.3631 62.7767 11.3631C61.6424 11.3631 60.7461 11.6469 59.9355 12.1433C59.2549 12.5622 58.6444 13.1559 58.1118 13.9362H58.054C57.4358 12.3859 55.9813 11.3638 54.0859 11.3638C51.6509 11.3638 50.5566 12.5972 49.8927 13.6431H49.8345V11.6884H46.1211" fill="white"/>
<path d="M138.642 25.3756H138.701C138.779 25.3756 138.83 25.3433 138.83 25.2952C138.83 25.2405 138.783 25.2108 138.71 25.2108C138.685 25.2108 138.659 25.2159 138.642 25.2159V25.377V25.3755L138.642 25.3756ZM138.633 25.7635H138.425V25.0865C138.472 25.0772 138.582 25.0608 138.723 25.0608C138.876 25.0608 138.945 25.0823 138.995 25.1162C139.038 25.1458 139.068 25.1963 139.068 25.2645C139.068 25.334 139.004 25.3929 138.91 25.4186V25.4272C138.987 25.4477 139.029 25.5035 139.051 25.6013C139.072 25.6989 139.085 25.7388 139.098 25.7639H138.862C138.842 25.7388 138.83 25.6789 138.816 25.6191C138.803 25.5506 138.77 25.5162 138.701 25.5162H138.633L138.633 25.7635ZM138.719 24.8659C138.42 24.8659 138.195 25.109 138.195 25.4189C138.195 25.7208 138.421 25.9671 138.727 25.9671C139.035 25.9722 139.26 25.721 139.26 25.414C139.26 25.1084 139.035 24.8659 138.724 24.8659H138.719ZM138.732 24.6821C139.149 24.6821 139.481 25.0096 139.481 25.4138C139.481 25.8228 139.149 26.1507 138.727 26.1507C138.305 26.1507 137.969 25.8223 137.969 25.414C137.969 25.0096 138.305 24.6823 138.727 24.6823H138.731" fill="#FDBB30"/>
</g>
<defs>
<clipPath id="clip0_2_53717">
<rect width="139" height="33" fill="white" transform="translate(0.507812)"/>
</clipPath>
</defs>
</svg>
